<svg width="564" height="312" viewBox="0 0 564 312" version="1.1" xmlns="http://www.w3.org/2000/svg" xmlns:xlink="http://www.w3.org/1999/xlink">
<title>Group</title>
<desc>Created using Figma</desc>
<g id="Canvas" transform="translate(418 312)">
<g id="Group">
<g id="mac">
<g id="Page 1">
<g id="Laptop">
<g id="bezel">
<use xlink:href="#path0_fill" transform="translate(-357.784 -311)" fill="#FEFEFE"/>
<use xlink:href="#path1_stroke" transform="translate(-357.784 -311)" fill="#828282"/>
</g>
<g id="webcam">
<use xlink:href="#path2_stroke" transform="translate(-138.768 -298.832)" fill="#E0E0E0"/>
</g>
<g id="bottom">
<g id="Shape">
<use xlink:href="#path3_fill" transform="translate(-417 -26.2722)" fill="#FDFDFD"/>
<use xlink:href="#path4_stroke" transform="translate(-417 -26.2722)" fill="#828282"/>
</g>
<g id="Line">
<use xlink:href="#path5_stroke" transform="translate(-416.594 -14.5099)" fill="#828282"/>
</g>
</g>
<g id="screen">
<use xlink:href="#path6_fill" transform="translate(-339.939 -279.364)" fill="#1386CC"/>
<use xlink:href="#path7_stroke" transform="translate(-339.939 -279.364)" fill="#828282"/>
</g>
<g id="touchpad">
<use xlink:href="#path8_fill" transform="translate(-197.172 -25.461)" fill="#FFFFFF"/>
<use xlink:href="#path9_stroke" transform="translate(-197.172 -25.461)" fill="#828282"/>
</g>
</g>
</g>
</g>
<g id="Group 6">
<g id="Vector">
<use xlink:href="#path10_fill" transform="translate(-206.92 -202.819)" fill="#EF5B43"/>
</g>
<g id="Vector">
<use xlink:href="#path11_fill" transform="translate(-134.999 -244.101)" fill="#125670"/>
</g>
<g id="Vector">
<use xlink:href="#path12_fill" transform="translate(-134.999 -129.328)" fill="#EF5B43"/>
</g>
<g id="Vector">
<use xlink:href="#path13_fill" transform="translate(-79.2585 -202.819)" fill="#F3C36A"/>
</g>
<g id="Vector">
<use xlink:href="#path14_fill" transform="translate(-206.92 -129.328)" fill="#3F494A"/>
</g>
<g id="Vector">
<use xlink:href="#path15_fill" transform="translate(-206.711 -244.101)" fill="#76BCC8"/>
</g>
<g id="Vector">
<use xlink:href="#path16_fill" transform="translate(-198.228 -197.815)" fill="#F47A58"/>
</g>
<g id="Vector">
<use xlink:href="#path17_fill" transform="translate(-134.999 -234.092)" fill="#1A7396"/>
</g>
<g id="Vector">
<use xlink:href="#path18_fill" transform="translate(-134.999 -129.328)" fill="#F47A58"/>
</g>
<g id="Vector">
<use xlink:href="#path19_fill" transform="translate(-79.2585 -197.815)" fill="#F7D890"/>
</g>
<g id="Vector">
<use xlink:href="#path20_fill" transform="translate(-198.228 -129.328)" fill="#546263"/>
</g>
<g id="Vector">
<use xlink:href="#path21_fill" transform="translate(-198.018 -234.092)" fill="#9CD2DB"/>
</g>
<g id="Vector">
<use xlink:href="#path22_fill" transform="translate(-183.007 -233.196)" fill="#F4F5F6"/>
</g>
<g id="Vector">
<use xlink:href="#path23_fill" transform="translate(-183.58 -233.768)" fill="#76BCC8"/>
</g>
<g id="Vector">
<use xlink:href="#path24_fill" transform="translate(-120.004 -233.196)" fill="#F4F5F6"/>
</g>
<g id="Vector">
<use xlink:href="#path25_fill" transform="translate(-120.577 -233.768)" fill="#125670"/>
</g>
<g id="Vector">
<use xlink:href="#path26_fill" transform="translate(-87.2806 -177.466)" fill="#F4F5F6"/>
</g>
<g id="Vector">
<use xlink:href="#path27_fill" transform="translate(-87.8544 -178.037)" fill="#F3C36A"/>
</g>
<g id="Vector">
<use xlink:href="#path28_fill" transform="translate(-120.004 -121.736)" fill="#F4F5F6"/>
</g>
<g id="Vector">
<use xlink:href="#path29_fill" transform="translate(-120.577 -122.307)" fill="#EF5B43"/>
</g>
<g id="Vector">
<use xlink:href="#path30_fill" transform="translate(-183.007 -121.736)" fill="#F4F5F6"/>
</g>
<g id="Vector">
<use xlink:href="#path31_fill" transform="translate(-183.58 -122.307)" fill="#3F494A"/>
</g>
<g id="Vector">
<use xlink:href="#path32_fill" transform="translate(-215.153 -177.466)" fill="#F4F5F6"/>
</g>
<g id="Vector">
<use xlink:href="#path33_fill" transform="translate(-215.725 -178.037)" fill="#EF5B43"/>
</g>
<g id="Vector">
<use xlink:href="#path34_fill" transform="translate(-109.89 -223.01)" fill="#125670"/>
</g>
<g id="Vector">
<use xlink:href="#path35_fill" transform="translate(-101.381 -223.024)" fill="#125670"/>
</g>
<g id="Vector">
<use xlink:href="#path36_fill" transform="translate(-78.7513 -167.279)" fill="#F3C36A"/>
</g>
<g id="Vector">
<use xlink:href="#path37_fill" transform="translate(-70.242 -167.43)" fill="#F3C36A"/>
</g>
<g id="Vector">
<use xlink:href="#path38_fill" transform="translate(-111.459 -111.541)" fill="#EF5B43"/>
</g>
<g id="Vector">
<use xlink:href="#path39_fill" transform="translate(-103.075 -111.608)" fill="#EF5B43"/>
</g>
<g id="Vector">
<use xlink:href="#path40_fill" transform="translate(-174.562 -111.541)" fill="#3F494A"/>
</g>
<g id="Vector">
<use xlink:href="#path41_fill" transform="translate(-166.315 -111.556)" fill="#3F494A"/>
</g>
<g id="Vector">
<use xlink:href="#path42_fill" transform="translate(-206.669 -167.279)" fill="#EF5B43"/>
</g>
<g id="Vector">
<use xlink:href="#path43_fill" transform="translate(-197.689 -167.306)" fill="#EF5B43"/>
</g>
<g id="Vector">
<use xlink:href="#path44_fill" transform="translate(-174.644 -223.01)" fill="#76BCC8"/>
</g>
<g id="Vector">
<use xlink:href="#path45_fill" transform="translate(-165.816 -223.084)" fill="#76BCC8"/>
</g>
<g id="Vector">
<use xlink:href="#path46_fill" transform="translate(-89.0086 -266)" fill="#F2F2F2"/>
</g>
<g id="Vector">
<use xlink:href="#path47_fill" transform="translate(-274.702 -266)" fill="#F2F2F2"/>
</g>
<g id="Vector">
<use xlink:href="#path48_fill" transform="translate(-89.0086 -82.9023)" fill="#F2F2F2"/>
</g>
<g id="Vector">
<use xlink:href="#path49_fill" transform="translate(-274.702 -82.9023)" fill="#F2F2F2"/>
</g>
<g id="Vector">
<use xlink:href="#path50_fill" transform="translate(-42.1865 -161.982)" fill="#F2F2F2"/>
</g>
<g id="Vector">
<use xlink:href="#path51_fill" transform="translate(-287 -161.982)" fill="#F2F2F2"/>
</g>
<g id="SKOT TENERMAN MOST DIE">
<use xlink:href="#path52_fill" transform="translate(-277 -263)" fill="#F2F2F2"/>
</g>
<g id="SKOT TENERMAN MOST DIE">
<use xlink:href="#path52_fill" transform="translate(-297 -179)" fill="#F2F2F2"/>
</g>
<g id="SKOT TENERMAN MOST DIE">
<use xlink:href="#path53_fill" transform="translate(-62 -263)" fill="#F2F2F2"/>
</g>
<g id="SKOT TENERMAN MOST DIE">
<use xlink:href="#path53_fill" transform="translate(-43 -179)" fill="#F2F2F2"/>
</g>
<g id="SKOT TENERMAN MOST DIE">
<use xlink:href="#path53_fill" transform="translate(-63 -77)" fill="#F2F2F2"/>
</g>
<g id="SKOT TENERMAN MOST DIE">
<use xlink:href="#path52_fill" transform="translate(-276 -77)" fill="#F2F2F2"/>
</g>
<g id="Group 7">
<g id="Group">
<g id="Vector">
<use xlink:href="#path54_fill" transform="matrix(-1 0 0 1 -134.424 -206)" fill="#343434"/>
</g>
<g id="Vector">
<use xlink:href="#path55_fill" transform="matrix(-1 0 0 1 -109 -206)" fill="#8C8C8C"/>
</g>
<g id="Vector">
<use xlink:href="#path56_fill" transform="matrix(-1 0 0 1 -134.672 -156.629)" fill="#3C3C3B"/>
</g>
<g id="Vector">
<use xlink:href="#path57_fill" transform="matrix(-1 0 0 1 -109 -156.629)" fill="#8C8C8C"/>
</g>
<g id="Vector">
<use xlink:href="#path58_fill" transform="matrix(-1 0 0 1 -134.992 -173.83)" fill="#141414"/>
</g>
<g id="Vector">
<use xlink:href="#path59_fill" transform="matrix(-1 0 0 1 -109 -173.83)" fill="#393939"/>
</g>
</g>
</g>
</g>
</g>
</g>
<defs>
<path id="path0_fill" fill-rule="evenodd" d="M 422.621 0L 20.2793 0C 9.33186 0 0 8.98298 0 20.1095L 0 284.751L 442.901 284.751L 442.901 20.1095C 442.901 8.98217 433.602 0 422.621 0Z"/>
<path id="path1_stroke" d="M 0 284.751L -1 284.751L -1 285.751L 0 285.751L 0 284.751ZM 442.901 284.751L 442.901 285.751L 443.901 285.751L 443.901 284.751L 442.901 284.751ZM 442.901 20.1095L 443.901 20.1095L 443.901 20.1095L 442.901 20.1095ZM 422.621 -1L 20.2793 -1L 20.2793 1L 422.621 1L 422.621 -1ZM 20.2793 -1C 8.79631 -1 -1 8.4141 -1 20.1095L 1 20.1095C 1 9.55185 9.86741 1 20.2793 1L 20.2793 -1ZM -1 20.1095L -1 284.751L 1 284.751L 1 20.1095L -1 20.1095ZM 0 285.751L 442.901 285.751L 442.901 283.751L 0 283.751L 0 285.751ZM 443.901 284.751L 443.901 20.1095L 441.901 20.1095L 441.901 284.751L 443.901 284.751ZM 443.901 20.1095C 443.901 8.41434 434.139 -1 422.621 -1L 422.621 1C 433.066 1 441.901 9.55 441.901 20.1095L 443.901 20.1095Z"/>
<path id="path2_stroke" d="M 5.48939 3.24476C 5.48939 4.48453 4.48438 5.48952 3.24469 5.48952L 3.24469 7.48952C 5.58899 7.48952 7.48939 5.58906 7.48939 3.24476L 5.48939 3.24476ZM 3.24469 5.48952C 2.005 5.48952 1 4.48453 1 3.24476L -1 3.24476C -1 5.58906 0.900394 7.48952 3.24469 7.48952L 3.24469 5.48952ZM 1 3.24476C 1 2.00499 2.005 1 3.24469 1L 3.24469 -1C 0.900394 -1 -1 0.900464 -1 3.24476L 1 3.24476ZM 3.24469 1C 4.48438 1 5.48939 2.00499 5.48939 3.24476L 7.48939 3.24476C 7.48939 0.900464 5.58899 -1 3.24469 -1L 3.24469 1Z"/>
<path id="path3_fill" fill-rule="evenodd" d="M 519.81 25.155L 41.6034 25.155C 16.7434 25.155 0 16.6245 0 12.9969L 0 1.96957C 0 0.87933 1.08292 0 2.42946 0L 558.983 0C 560.331 0 561.415 0.87933 561.415 1.96957L 561.415 13.4309C 561.41 16.2984 548.444 25.155 519.81 25.155Z"/>
<path id="path4_stroke" d="M 561.415 13.4309L 562.415 13.4329L 562.415 13.4309L 561.415 13.4309ZM 519.81 24.155L 41.6034 24.155L 41.6034 26.155L 519.81 26.155L 519.81 24.155ZM 41.6034 24.155C 29.2744 24.1601 19.0407 22.059 11.8134 19.4938C 8.2203 18.2215 5.46189 16.8704 3.5606 15.5958C 2.62597 14.9724 1.9748 14.4275 1.52154 13.9034C 1.07014 13.386 1 13.0872 1 12.9969L -1 12.9969C -1 13.8135 -0.546907 14.5748 0.0144608 15.2182C 0.573966 15.855 1.42509 16.5717 2.44859 17.2582C 4.46358 18.6034 7.44477 20.065 11.145 21.3788C 18.5044 23.9858 29.0725 26.1499 41.6034 26.155L 41.6034 24.155ZM 1 12.9969L 1 1.96957L -1 1.96957L -1 12.9969L 1 12.9969ZM 1 1.96957C 1 1.61705 1.42942 1 2.42946 1L 2.42946 -1C 0.736413 -1 -1 0.141611 -1 1.96957L 1 1.96957ZM 2.42946 1L 558.983 1L 558.983 -1L 2.42946 -1L 2.42946 1ZM 558.983 1C 559.986 1 560.415 1.6182 560.415 1.96957L 562.415 1.96957C 562.415 0.140465 560.676 -1 558.983 -1L 558.983 1ZM 560.415 1.96957L 560.415 13.4309L 562.415 13.4309L 562.415 1.96957L 560.415 1.96957ZM 560.415 13.4289C 560.408 13.3716 560.421 13.4804 560.353 13.6173C 560.281 13.7798 560.191 13.9198 560.018 14.1354C 559.654 14.597 559.13 15.0884 558.343 15.6692C 556.736 16.8638 554.342 18.1732 550.995 19.4326C 544.245 21.9813 534.022 24.1605 519.81 24.155L 519.81 26.155C 534.231 26.1495 544.808 23.9005 551.701 21.304C 555.176 19.9907 557.814 18.5484 559.534 17.2758C 560.412 16.6231 561.125 15.9521 561.583 15.3805C 562.041 14.8052 562.414 14.1314 562.415 13.4329L 560.415 13.4289Z"/>
<path id="path5_stroke" d="M 0 -0.5L -0.5 -0.5L -0.5 0.5L 0 0.5L 0 -0.5ZM 559.501 0.5L 560.001 0.5L 560.001 -0.5L 559.501 -0.5L 559.501 0.5ZM 0 0.5L 559.501 0.5L 559.501 -0.5L 0 -0.5L 0 0.5Z"/>
<path id="path6_fill" d="M 406.458 0L 0 0L 0 236.875L 406.458 236.875L 406.458 0Z"/>
<path id="path7_stroke" d="M 0 0L 0 -0.5L -0.5 -0.5L -0.5 0L 0 0ZM 406.458 0L 406.958 0L 406.958 -0.5L 406.458 -0.5L 406.458 0ZM 406.458 236.875L 406.458 237.375L 406.958 237.375L 406.958 236.875L 406.458 236.875ZM 0 236.875L -0.5 236.875L -0.5 237.375L 0 237.375L 0 236.875ZM 0 0.5L 406.458 0.5L 406.458 -0.5L 0 -0.5L 0 0.5ZM 405.958 0L 405.958 236.875L 406.958 236.875L 406.958 0L 405.958 0ZM 406.458 236.375L 0 236.375L 0 237.375L 406.458 237.375L 406.458 236.375ZM 0.5 236.875L 0.5 0L -0.5 0L -0.5 236.875L 0.5 236.875Z"/>
<path id="path8_fill" fill-rule="evenodd" d="M 121.676 0L 121.676 2.50415C 121.676 4.28958 118.161 4.8288 115.5 4.8288L 6.33954 4.8288C 3.54018 4.8288 0 4.29039 0 2.50415L 0 0"/>
<path id="path9_stroke" d="M 121.176 0L 121.176 2.50415L 122.176 2.50415L 122.176 0L 121.176 0ZM 121.176 2.50415C 121.176 2.76143 121.058 2.9986 120.77 3.2326C 120.452 3.49659 120.018 3.68816 119.444 3.85651C 118.281 4.20273 116.809 4.32927 115.5 4.3288L 115.5 5.3288C 116.852 5.32832 118.468 5.18525 119.728 4.81551C 120.365 4.62587 120.976 4.34787 121.401 4.00861C 121.855 3.63935 122.176 3.13959 122.176 2.50415L 121.176 2.50415ZM 115.5 4.3288L 6.33954 4.3288L 6.33954 5.3288L 115.5 5.3288L 115.5 4.3288ZM 6.33954 4.3288C 4.96104 4.32924 3.44616 4.20258 2.25918 3.85607C 1.67375 3.6876 1.2325 3.49551 0.909975 3.2311C 0.618123 2.99672 0.5 2.75994 0.5 2.50415L -0.5 2.50415C -0.5 3.14148 -0.1756 3.64184 0.283813 4.01079C 0.71255 4.34971 1.33131 4.62714 1.98084 4.81655C 3.26379 5.18581 4.91869 5.32835 6.33954 5.3288L 6.33954 4.3288ZM 0.5 2.50415L 0.5 0L -0.5 0L -0.5 2.50415L 0.5 2.50415Z"/>
<path id="path10_fill" d="M 15.9694 9.31426L 16.1789 9.19319L 0.209532 9.91278e-06L -8.13414e-07 0.121081L -8.13414e-07 82.6842L 15.9694 73.491L 15.9694 9.31426Z"/>
<path id="path11_fill" d="M 55.7408 50.4751L 71.7109 41.2819L -1.26531e-06 0L -1.26531e-06 18.3864L 55.7408 50.4751Z"/>
<path id="path12_fill" d="M 55.9503 0.242143L -1.26531e-06 32.4497L -1.26531e-06 50.8376L 71.919 9.43386L 71.919 9.1932L 55.9503 9.01162e-07L 55.9503 0.242143Z"/>
<path id="path13_fill" d="M 15.9701 9.91278e-06L 6.68807e-06 9.19319L 0.209528 9.31426L 0.209528 73.491L 16.1782 82.6842L 16.1782 0.121081L 15.9701 9.91278e-06Z"/>
<path id="path14_fill" d="M 15.9694 0.242143L 15.9694 9.01162e-07L -8.13414e-07 9.1932L -8.13414e-07 9.43386L 71.9212 50.8376L 71.9212 32.4497L 15.9694 0.242143Z"/>
<path id="path15_fill" d="M 71.7117 18.3864L 71.7117 0L 2.71138e-06 41.2819L 15.9694 50.4751L 71.7117 18.3864Z"/>
<path id="path16_fill" d="M -2.80176e-06 72.6752L -2.80176e-06 0.121075L 0.185094 0.0140168L 0.20953 3.78488e-06L 7.48606 4.18872L 7.27652 4.30979L 7.27652 68.4865L -2.80176e-06 72.6752Z"/>
<path id="path17_fill" d="M 55.7408 40.4662L -1.26531e-06 8.37746L -1.26531e-06 -9.91278e-07L 63.0173 36.2774L 55.7408 40.4662Z"/>
<path id="path18_fill" d="M -1.26531e-06 40.8286L -1.26531e-06 32.4497L 55.9503 0.242143L 55.9503 9.01162e-07L 63.2268 4.18874L 63.2268 4.42939L -1.26531e-06 40.8286Z"/>
<path id="path19_fill" d="M 7.48605 72.6752L 0.209528 68.4865L 0.209528 4.30979L 6.68807e-06 4.18872L 7.27653 3.78488e-06L 7.30243 0.0140168L 7.48605 0.121075L 7.48605 72.6752Z"/>
<path id="path20_fill" d="M 63.2283 40.8286L -2.80176e-06 4.42939L -2.80176e-06 4.21753L -2.80176e-06 4.18874L 7.27652 9.01162e-07L 7.27652 0.242143L 63.2283 32.4497L 63.2283 40.8286Z"/>
<path id="path21_fill" d="M 7.27653 40.4662L 7.23034e-07 36.2774L 63.0188 -9.91278e-07L 63.0188 8.37746L 7.27653 40.4662Z"/>
<path id="path22_fill" d="M 32.4349 16.1702C 32.4349 25.0999 25.1746 32.339 16.2174 32.339C 7.26097 32.339 2.25948e-06 25.0999 2.25948e-06 16.1702C 2.25948e-06 7.2391 7.26097 2.34302e-06 16.2174 2.34302e-06C 25.1746 2.34302e-06 32.4349 7.2391 32.4349 16.1702Z"/>
<path id="path23_fill" d="M 33.0072 16.7423L 32.4334 16.7423C 32.4334 21.0507 30.6839 24.9471 27.8526 27.7715C 25.0199 30.596 21.1121 32.3404 16.7898 32.3404C 12.4674 32.3404 8.5611 30.596 5.72763 27.7715C 2.89639 24.9471 1.14612 21.0507 1.14612 16.7423C 1.14612 12.4326 2.89639 8.53616 5.72763 5.71242C 8.5611 2.88795 12.4674 1.14278 16.7898 1.14278C 21.1121 1.14278 25.0199 2.88795 27.8526 5.71242C 30.6839 8.53616 32.4334 12.4326 32.4334 16.7423L 33.5795 16.7423C 33.5795 7.496 26.0638 0.00147205 16.7898 -4.41569e-06C 7.51641 0.00147205 -5.33238e-06 7.496 -5.33238e-06 16.7423C -5.33238e-06 25.988 7.51641 33.4832 16.7898 33.4832C 26.0638 33.4832 33.5795 25.988 33.5795 16.7423L 33.0072 16.7423Z"/>
<path id="path24_fill" d="M 32.4349 16.1702C 32.4349 25.0999 25.1739 32.339 16.2174 32.339C 7.26172 32.339 -8.13414e-06 25.0999 -8.13414e-06 16.1702C -8.13414e-06 7.2391 7.26172 2.34302e-06 16.2174 2.34302e-06C 25.1739 2.34302e-06 32.4349 7.2391 32.4349 16.1702Z"/>
<path id="path25_fill" d="M 33.0072 16.7423L 32.4349 16.7423C 32.4334 21.0507 30.6831 24.9471 27.8519 27.7715C 25.0199 30.596 21.1121 32.3404 16.7898 32.3404C 12.4681 32.3404 8.56109 30.596 5.72689 27.7715C 2.89565 24.9471 1.14538 21.0507 1.14538 16.7423C 1.14538 12.4326 2.89565 8.53616 5.72689 5.71242C 8.56109 2.88795 12.4681 1.14278 16.7898 1.14278C 21.1121 1.14278 25.0199 2.88795 27.8519 5.71242C 30.6831 8.53616 32.4334 12.4326 32.4349 16.7423L 33.5795 16.7423C 33.5795 7.496 26.0631 0.00147205 16.7898 -4.41569e-06C 7.51568 0.00147205 6.86883e-06 7.496 6.86883e-06 16.7423C 6.86883e-06 25.988 7.51568 33.4832 16.7898 33.4832C 26.0631 33.4832 33.5795 25.988 33.5795 16.7423L 33.0072 16.7423Z"/>
<path id="path26_fill" d="M 32.4334 16.1702C 32.4334 25.0999 25.1732 32.3405 16.216 32.3405C 7.26023 32.3405 -9.5802e-06 25.0999 -9.5802e-06 16.1702C -9.5802e-06 7.23909 7.26023 3.60465e-07 16.216 3.60465e-07C 25.1732 3.60465e-07 32.4334 7.23909 32.4334 16.1702Z"/>
<path id="path27_fill" d="M 33.0072 16.7409L 32.4349 16.7409C 32.4349 21.0492 30.6846 24.9456 27.8526 27.7715C 25.0199 30.5945 21.1121 32.339 16.7898 32.339C 12.4689 32.339 8.56109 30.5945 5.72837 27.7715C 2.89639 24.9456 1.14612 21.0492 1.14612 16.7409C 1.14612 12.4311 2.89639 8.53471 5.72837 5.71097C 8.56109 2.8865 12.4689 1.14279 16.7898 1.14131C 21.1121 1.14279 25.0199 2.8865 27.8526 5.71097C 30.6846 8.53471 32.4349 12.4311 32.4349 16.7409L 33.581 16.7409C 33.5795 7.49452 26.0631 -7.20929e-06 16.7898 -7.20929e-06C 7.51789 -7.20929e-06 -5.06124e-06 7.49452 -5.06124e-06 16.7409C -5.06124e-06 25.9872 7.51789 33.4818 16.7898 33.4818C 26.0631 33.4818 33.5795 25.9872 33.581 16.7409L 33.0072 16.7409Z"/>
<path id="path28_fill" d="M 32.4349 16.1702C 32.4349 25.1013 25.1739 32.3405 16.2174 32.3405C 7.26172 32.3405 -8.13414e-06 25.1013 -8.13414e-06 16.1702C -8.13414e-06 7.23909 7.26172 -1.62209e-06 16.2174 -1.62209e-06C 25.1739 -1.62209e-06 32.4349 7.23909 32.4349 16.1702Z"/>
<path id="path29_fill" d="M 33.0072 16.7409L 32.4349 16.7409C 32.4334 21.0507 30.6831 24.9471 27.8519 27.7715C 25.0199 30.5945 21.1121 32.339 16.7898 32.339C 12.4681 32.339 8.56109 30.5945 5.72689 27.7715C 2.89565 24.9471 1.14538 21.0507 1.14538 16.7409C 1.14538 12.4311 2.89565 8.53618 5.72689 5.71097C 8.56109 2.88797 12.4681 1.14278 16.7898 1.14278C 21.1121 1.14278 25.0199 2.88797 27.8519 5.71097C 30.6831 8.53618 32.4334 12.4311 32.4349 16.7409L 33.5795 16.7409C 33.5795 7.49452 26.0631 -9.19185e-06 16.7898 -9.19185e-06C 7.51568 -9.19185e-06 6.86883e-06 7.49452 6.86883e-06 16.7409C 6.86883e-06 25.988 7.51568 33.4818 16.7898 33.4818C 26.0631 33.4818 33.5795 25.988 33.5795 16.7409L 33.0072 16.7409Z"/>
<path id="path30_fill" d="M 32.4349 16.1702C 32.4349 25.1013 25.1746 32.3405 16.2174 32.3405C 7.26097 32.3405 2.25948e-06 25.1013 2.25948e-06 16.1702C 2.25948e-06 7.23909 7.26097 -1.62209e-06 16.2174 -1.62209e-06C 25.1746 -1.62209e-06 32.4349 7.23909 32.4349 16.1702Z"/>
<path id="path31_fill" d="M 33.0072 16.7409L 32.4334 16.7409C 32.4334 21.0507 30.6839 24.9471 27.8526 27.7715C 25.0199 30.5945 21.1121 32.339 16.7898 32.339C 12.4674 32.339 8.5611 30.5945 5.72763 27.7715C 2.89639 24.9471 1.14612 21.0507 1.14612 16.7409C 1.14612 12.4311 2.89639 8.53618 5.72763 5.71097C 8.5611 2.88797 12.4674 1.14278 16.7898 1.14278C 21.1121 1.14278 25.0199 2.88797 27.8526 5.71097C 30.6839 8.53618 32.4334 12.4311 32.4334 16.7409L 33.5795 16.7409C 33.5795 7.49452 26.0638 -9.19185e-06 16.7898 -9.19185e-06C 7.51641 -9.19185e-06 -5.33238e-06 7.49452 -5.33238e-06 16.7409C -5.33238e-06 25.988 7.51641 33.4818 16.7898 33.4818C 26.0638 33.4818 33.5795 25.988 33.5795 16.7409L 33.0072 16.7409Z"/>
<path id="path32_fill" d="M 32.4349 16.1702C 32.4349 25.0999 25.1739 32.3405 16.2174 32.3405C 7.26024 32.3405 -3.25365e-06 25.0999 -3.25365e-06 16.1702C -3.25365e-06 7.23909 7.26024 3.60465e-07 16.2174 3.60465e-07C 25.1739 3.60465e-07 32.4349 7.23909 32.4349 16.1702Z"/>
<path id="path33_fill" d="M 33.0072 16.7409L 32.4334 16.7409C 32.4334 21.0492 30.6831 24.9456 27.8519 27.7715C 25.0184 30.5945 21.1121 32.339 16.7898 32.339C 12.4666 32.339 8.5611 30.5945 5.7269 27.7715C 2.89565 24.9456 1.14538 21.0492 1.14538 16.7409C 1.14538 12.4311 2.89565 8.53471 5.7269 5.71097C 8.5611 2.8865 12.4666 1.14279 16.7898 1.14131C 21.1121 1.14279 25.0184 2.8865 27.8519 5.71097C 30.6831 8.53471 32.4334 12.4311 32.4334 16.7409L 33.5795 16.7409C 33.5795 7.49452 26.0631 -7.20929e-06 16.7898 -7.20929e-06C 7.51567 -7.20929e-06 4.51896e-07 7.49452 4.51896e-07 16.7409C 4.51896e-07 25.9872 7.51567 33.4818 16.7898 33.4818C 26.0631 33.4818 33.5795 25.9872 33.5795 16.7409L 33.0072 16.7409Z"/>
<path id="path34_fill" d="M -1.80759e-07 7.78095C -1.80759e-07 9.4368 1.07949 10.071 2.40775 10.071L 4.67629 10.071C 6.08821 10.071 7.01443 9.42204 7.01443 7.78095L 7.01443 2.2767C 7.01443 1.06231 6.40584 5.40697e-06 4.67629 5.40697e-06L 2.40775 5.40697e-06C 1.03729 5.40697e-06 -1.80759e-07 0.772197 -1.80759e-07 2.30403L -1.80759e-07 7.78095ZM 1.27272 7.69901L 1.27272 2.37342C 1.27272 1.79391 1.5911 1.24244 2.5188 1.24244L 4.55191 1.24244C 5.46555 1.24244 5.72837 1.75256 5.72837 2.38597L 5.72837 7.72634C 5.72837 8.47122 5.34115 8.87059 4.5245 8.87059L 2.5188 8.87059C 1.90872 8.87059 1.25867 8.62255 1.25867 7.72634L 1.27272 7.69901Z"/>
<path id="path35_fill" d="M 3.0729e-06 2.02867L 2.2145 1.36573L 2.2145 10.099L 3.48722 10.099L 3.48722 -3.78488e-06L 2.22858 -3.78488e-06L 0.0148027 1.15977L 3.0729e-06 2.02867Z"/>
<path id="path36_fill" d="M 4.88048e-06 7.78096C 4.88048e-06 9.43681 1.07948 10.0709 2.40773 10.0709L 4.67627 10.0709C 6.08819 10.0709 7.01443 9.42205 7.01443 7.78096L 7.01443 2.27671C 7.01443 1.06232 6.40656 -8.65115e-06 4.67627 -8.65115e-06L 2.40773 -8.65115e-06C 1.03728 -8.65115e-06 4.88048e-06 0.772183 4.88048e-06 2.30401L 4.88048e-06 7.78096ZM 1.27347 7.69902L 1.27347 2.37343C 1.27347 1.79391 1.5911 1.24245 2.51881 1.24245L 4.55189 1.24245C 5.46553 1.24245 5.72838 1.75183 5.72838 2.38597L 5.72838 7.72633C 5.72838 8.4712 5.34115 8.8706 4.52451 8.8706L 2.51881 8.8706C 1.90873 8.8706 1.25865 8.62254 1.25865 7.72633L 1.27347 7.69902Z"/>
<path id="path37_fill" d="M -9.21869e-06 1.22768L 4.02623 1.22768C 5.27156 1.22768 5.77057 1.94524 5.77057 2.92339C 5.77057 5.02145 1.5489 8.08364 0.111067 9.06328L 0.111067 10.209L 7.0707 10.209L 7.0707 8.98132L 2.4492 8.98132C 3.41763 8.29107 7.0707 5.51903 7.0707 2.93817C 7.0707 1.46097 6.23998 1.26163e-06 4.21946 1.26163e-06C 2.62837 1.26163e-06 1.39711 0.0966991 0.0273983 0.275351L -9.21869e-06 1.22768Z"/>
<path id="path38_fill" d="M 3.43441e-06 7.78096C 3.43441e-06 9.43682 1.07948 10.071 2.40773 10.071L 4.6763 10.071C 6.08821 10.071 7.01443 9.42205 7.01443 7.78096L 7.01443 2.27671C 7.01443 1.06158 6.40658 -3.42441e-06 4.6763 -3.42441e-06L 2.40773 -3.42441e-06C 1.03727 -3.42441e-06 3.43441e-06 0.772188 3.43441e-06 2.30402L 3.43441e-06 7.78096ZM 1.27347 7.69903L 1.27347 2.37341C 1.27347 1.7939 1.5911 1.24171 2.51881 1.24171L 4.55191 1.24171C 5.46555 1.24171 5.72838 1.75182 5.72838 2.38596L 5.72838 7.72633C 5.72838 8.47121 5.34115 8.87058 4.5245 8.87058L 2.51881 8.87058C 1.90873 8.87058 1.25865 8.62254 1.25865 7.72633L 1.27347 7.69903Z"/>
<path id="path39_fill" d="M -1.01225e-05 1.23992L 4.13728 1.23992C 4.85694 1.23992 5.54772 1.54257 5.54772 2.39818L 5.54772 3.22648C 5.54772 4.02673 5.0909 4.42685 4.13728 4.46745L 0.941042 4.60551L 0.941042 5.61319L 4.13728 5.70916C 4.89766 5.73648 5.52033 6.04062 5.52033 7.04831L 5.52033 7.7511C 5.52033 8.82745 4.84288 8.92417 4.06769 8.92417L 0.109575 8.92417L 0.0969894 9.77978C 1.31493 10.2065 2.75275 10.1666 4.33126 10.1666C 6.0186 10.1666 6.82119 9.33756 6.82119 7.82049L 6.82119 7.07564C 6.82119 6.02661 6.49024 5.41977 5.88016 5.07576C 6.47543 4.85355 6.82119 4.20538 6.82119 3.19769L 6.82119 2.31624C 6.82119 0.990379 5.94975 0.0395353 4.42751 0.0122207C 2.80903 -0.0165703 1.23128 -0.0298509 0.0125978 0.398323L -1.01225e-05 1.23992Z"/>
<path id="path40_fill" d="M 5.42276e-07 7.78096C 5.42276e-07 9.43682 1.07948 10.071 2.40774 10.071L 4.67628 10.071C 6.0882 10.071 7.01443 9.42205 7.01443 7.78096L 7.01443 2.27671C 7.01443 1.06158 6.40657 -3.42441e-06 4.67628 -3.42441e-06L 2.40774 -3.42441e-06C 1.03802 -3.42441e-06 5.42276e-07 0.772188 5.42276e-07 2.30402L 5.42276e-07 7.78096ZM 1.27347 7.69903L 1.27347 2.37341C 1.27347 1.7939 1.59109 1.24171 2.51879 1.24171L 4.5519 1.24171C 5.46553 1.24171 5.72838 1.75182 5.72838 2.38596L 5.72838 7.72633C 5.72838 8.47121 5.34115 8.87058 4.5245 8.87058L 2.51879 8.87058C 1.90871 8.87058 1.25866 8.62254 1.25866 7.72633L 1.27347 7.69903Z"/>
<path id="path41_fill" d="M -5.15162e-06 6.99622L 0.470148 7.60232L 5.43814 7.60232L 5.43814 10.0451L 6.71013 10.0451L 6.71013 7.60232L 7.88659 7.32769L 7.88659 6.33328L 6.71013 6.33328L 6.71013 2.59416L 5.93569 2.59416L 5.45147 3.62842L 5.45147 6.33328L 1.92353 6.33328L 5.70024 4.68604e-06L 4.23428 4.68604e-06L -5.15162e-06 6.99622Z"/>
<path id="path42_fill" d="M -3.52479e-06 7.78096C -3.52479e-06 9.43681 1.07948 10.0709 2.40773 10.0709L 4.67629 10.0709C 6.08821 10.0709 7.01517 9.42205 7.01517 7.78096L 7.01517 2.27671C 7.01517 1.06232 6.40657 -8.65115e-06 4.67629 -8.65115e-06L 2.40773 -8.65115e-06C 1.03802 -8.65115e-06 -3.52479e-06 0.772183 -3.52479e-06 2.30401L -3.52479e-06 7.78096ZM 1.27346 7.69902L 1.27346 2.37343C 1.27346 1.79391 1.59109 1.24245 2.5188 1.24245L 4.5519 1.24245C 5.46554 1.24245 5.72837 1.75183 5.72837 2.38597L 5.72837 7.72633C 5.72837 8.4712 5.34116 8.8706 4.52451 8.8706L 2.5188 8.8706C 1.90872 8.8706 1.25866 8.62254 1.25866 7.72633L 1.27346 7.69902Z"/>
<path id="path43_fill" d="M -5.15162e-06 9.82291C 1.85392 10.1396 2.50473 10.1544 4.22021 10.1544C 5.14792 10.1544 6.55983 9.65681 6.55983 7.76693L 6.55983 6.23658C 6.55983 4.8834 5.92235 3.91779 4.30387 3.90376C 3.91665 3.90376 3.0852 3.82108 2.40774 3.90376C 2.00571 3.94511 1.63329 4.05658 1.42524 4.27658L 1.56369 1.22768L 6.29626 1.22768L 6.29626 7.20929e-07L 0.37464 7.20929e-07L 0.0695982 6.05646L 1.23127 6.05646C 1.23127 5.36621 1.75768 5.10413 2.26928 5.10413L 4.16467 5.10413C 5.28636 5.10413 5.31375 5.84901 5.31375 6.30376L 5.31375 7.65695C 5.31375 8.20914 5.07831 8.84328 4.15209 8.84328L 0.0273911 8.84328L -5.15162e-06 9.82291Z"/>
<path id="path44_fill" d="M -5.15162e-06 7.78095C -5.15162e-06 9.4368 1.07949 10.071 2.40774 10.071L 4.67629 10.071C 6.0882 10.071 7.01443 9.42204 7.01443 7.78095L 7.01443 2.2767C 7.01443 1.06231 6.40583 5.40697e-06 4.67629 5.40697e-06L 2.40774 5.40697e-06C 1.03729 5.40697e-06 -5.15162e-06 0.772197 -5.15162e-06 2.30403L -5.15162e-06 7.78095ZM 1.27273 7.69901L 1.27273 2.37342C 1.27273 1.79391 1.59109 1.24244 2.5188 1.24244L 4.5519 1.24244C 5.46554 1.24244 5.72837 1.75256 5.72837 2.38597L 5.72837 7.72634C 5.72837 8.47122 5.34115 8.87059 4.52451 8.87059L 2.5188 8.87059C 1.90872 8.87059 1.25866 8.62255 1.25866 7.72634L 1.27273 7.69901Z"/>
<path id="path45_fill" d="M 3.16328e-06 4.84808C 3.16328e-06 9.19405 1.07949 10.1464 2.60098 10.1464L 4.63482 10.1464C 5.97714 10.1464 6.91818 9.6215 6.91818 8.04833L 6.91818 6.32308C 6.91818 5.1921 6.55835 4.19917 4.6637 4.19917C 3.6242 4.19917 2.33814 4.32321 1.27272 4.47455C 1.28605 3.34357 1.49411 1.20491 2.75276 1.20491L 6.59981 1.20491L 6.59981 0.26736C 5.29895 0.0739433 3.77745 -0.0227559 2.39293 0.00455867C 1.24533 0.0318732 0.0273994 1.21968 0.0273994 4.8754L 3.16328e-06 4.84808ZM 1.30085 5.41283L 4.59411 5.41283C 5.2027 5.41283 5.68617 5.59296 5.68617 6.39246L 5.68617 7.89698C 5.68617 8.79319 5.24416 8.91723 4.5793 8.91723L 2.79496 8.91723C 1.36971 8.91723 1.30085 6.69663 1.30085 5.38553L 1.30085 5.41283Z"/>
<path id="path46_fill" d="M 0.715218 25.9023L 25.6796 1.0099L 93.7101 1.0099L 93.7101 -1.08139e-06L 25.2605 -1.08139e-06L 1.98834e-06 25.1892L 0.715218 25.9023Z"/>
<path id="path47_fill" d="M 93.7123 25.1892L 68.4495 -1.08139e-06L 2.1691e-06 -1.08139e-06L 2.1691e-06 1.0099L 68.0305 1.0099L 92.9956 25.9023L 93.7123 25.1892Z"/>
<path id="path48_fill" d="M 1.98834e-06 0.7146L 25.2605 25.9023L 93.7101 25.9023L 93.7101 24.8932L 25.6796 24.8917L 0.715218 1.26163e-06L 1.98834e-06 0.7146Z"/>
<path id="path49_fill" d="M 92.9956 1.26163e-06L 68.0305 24.8917L 2.1691e-06 24.8917L 2.1691e-06 25.9023L 68.4495 25.9023L 93.7123 0.7146L 92.9956 1.26163e-06Z"/>
<path id="path50_fill" d="M -5.242e-06 1.00843L 59.1865 1.00843L 59.1865 4.86627e-06L -5.242e-06 4.86627e-06"/>
<path id="path51_fill" d="M 1.71721e-06 1.00843L 59.1873 1.00843L 59.1873 4.86627e-06L 1.71721e-06 4.86627e-06"/>
<path id="path52_fill" d="M 14.2866 4.67725C 14.2866 4.50179 14.224 4.36507 14.0986 4.26709C 13.9756 4.16911 13.758 4.06771 13.4458 3.96289C 13.1336 3.85807 12.8784 3.75667 12.6802 3.65869C 12.0353 3.34196 11.7129 2.90674 11.7129 2.35303C 11.7129 2.07731 11.7926 1.83464 11.9521 1.625C 12.1139 1.41309 12.3418 1.24902 12.6357 1.13281C 12.9297 1.01432 13.2601 0.955078 13.627 0.955078C 13.9847 0.955078 14.3049 1.01888 14.5874 1.14648C 14.8722 1.27409 15.0933 1.45638 15.2505 1.69336C 15.4077 1.92806 15.4863 2.19694 15.4863 2.5L 14.29 2.5C 14.29 2.2972 14.2274 2.13997 14.1021 2.02832C 13.979 1.91667 13.8115 1.86084 13.5996 1.86084C 13.3854 1.86084 13.2157 1.90869 13.0903 2.00439C 12.9673 2.09782 12.9058 2.21745 12.9058 2.36328C 12.9058 2.49089 12.9741 2.6071 13.1108 2.71191C 13.2476 2.81445 13.488 2.92155 13.832 3.0332C 14.1761 3.14258 14.4587 3.26107 14.6797 3.38867C 15.2174 3.69857 15.4863 4.12581 15.4863 4.67041C 15.4863 5.10563 15.3223 5.44743 14.9941 5.6958C 14.666 5.94417 14.216 6.06836 13.644 6.06836C 13.2407 6.06836 12.875 5.99658 12.5469 5.85303C 12.221 5.70719 11.9749 5.50895 11.8086 5.2583C 11.6445 5.00537 11.5625 4.71484 11.5625 4.38672L 12.7656 4.38672C 12.7656 4.65332 12.834 4.85042 12.9707 4.97803C 13.1097 5.10335 13.3341 5.16602 13.644 5.16602C 13.8423 5.16602 13.9984 5.12386 14.1123 5.03955C 14.2285 4.95296 14.2866 4.83219 14.2866 4.67725ZM 17.7935 4.14746L 17.3013 4.6875L 17.3013 6L 16.1016 6L 16.1016 1.02344L 17.3013 1.02344L 17.3013 3.21777L 17.7183 2.58545L 18.7915 1.02344L 20.2749 1.02344L 18.5933 3.22461L 20.2749 6L 18.853 6L 17.7935 4.14746ZM 24.6841 3.61426C 24.6841 4.09961 24.5941 4.52913 24.4141 4.90283C 24.234 5.27653 23.9777 5.56478 23.645 5.76758C 23.3146 5.9681 22.9375 6.06836 22.5137 6.06836C 22.0898 6.06836 21.7139 5.97152 21.3857 5.77783C 21.0576 5.58187 20.8013 5.30273 20.6167 4.94043C 20.4344 4.57812 20.3387 4.16227 20.3296 3.69287L 20.3296 3.4126C 20.3296 2.92497 20.4185 2.49544 20.5962 2.12402C 20.7762 1.75033 21.0326 1.46208 21.3652 1.25928C 21.7002 1.05648 22.0807 0.955078 22.5068 0.955078C 22.9284 0.955078 23.3044 1.05534 23.6348 1.25586C 23.9652 1.45638 24.2215 1.74235 24.4038 2.11377C 24.5884 2.48291 24.6818 2.90674 24.6841 3.38525L 24.6841 3.61426ZM 23.4639 3.40576C 23.4639 2.9113 23.3807 2.53646 23.2144 2.28125C 23.0503 2.02376 22.8145 1.89502 22.5068 1.89502C 21.9053 1.89502 21.5874 2.34619 21.5532 3.24854L 21.5498 3.61426C 21.5498 4.10189 21.6307 4.47673 21.7925 4.73877C 21.9543 5.00081 22.1947 5.13184 22.5137 5.13184C 22.8167 5.13184 23.0503 5.00309 23.2144 4.74561C 23.3784 4.48812 23.4616 4.11784 23.4639 3.63477L 23.4639 3.40576ZM 28.9155 1.94971L 27.4219 1.94971L 27.4219 6L 26.2222 6L 26.2222 1.94971L 24.7559 1.94971L 24.7559 1.02344L 28.9155 1.02344L 28.9155 1.94971ZM 34.6646 1.94971L 33.1709 1.94971L 33.1709 6L 31.9712 6L 31.9712 1.94971L 30.5049 1.94971L 30.5049 1.02344L 34.6646 1.02344L 34.6646 1.94971ZM 38.2603 3.89111L 36.3735 3.89111L 36.3735 5.07715L 38.6021 5.07715L 38.6021 6L 35.1738 6L 35.1738 1.02344L 38.6089 1.02344L 38.6089 1.94971L 36.3735 1.94971L 36.3735 2.99902L 38.2603 2.99902L 38.2603 3.89111ZM 43.2471 6L 42.0542 6L 40.2905 2.90332L 40.2905 6L 39.0908 6L 39.0908 1.02344L 40.2905 1.02344L 42.0508 4.12012L 42.0508 1.02344L 43.2471 1.02344L 43.2471 6ZM 47.0923 3.89111L 45.2056 3.89111L 45.2056 5.07715L 47.4341 5.07715L 47.4341 6L 44.0059 6L 44.0059 1.02344L 47.4409 1.02344L 47.4409 1.94971L 45.2056 1.94971L 45.2056 2.99902L 47.0923 2.99902L 47.0923 3.89111ZM 49.772 4.24316L 49.1226 4.24316L 49.1226 6L 47.9229 6L 47.9229 1.02344L 49.8813 1.02344C 50.4715 1.02344 50.9329 1.15446 51.2656 1.4165C 51.5983 1.67855 51.7646 2.04883 51.7646 2.52734C 51.7646 2.8737 51.694 3.16081 51.5527 3.38867C 51.4137 3.61654 51.195 3.80111 50.8965 3.94238L 51.9355 5.94873L 51.9355 6L 50.6504 6L 49.772 4.24316ZM 49.1226 3.31689L 49.8813 3.31689C 50.1092 3.31689 50.2801 3.25765 50.394 3.13916C 50.5103 3.01839 50.5684 2.85091 50.5684 2.63672C 50.5684 2.42253 50.5103 2.25505 50.394 2.13428C 50.2778 2.01123 50.1069 1.94971 49.8813 1.94971L 49.1226 1.94971L 49.1226 3.31689ZM 54.0649 1.02344L 55.1758 4.48584L 56.2832 1.02344L 57.8623 1.02344L 57.8623 6L 56.6592 6L 56.6592 4.83789L 56.7754 2.45898L 55.5723 6L 54.7793 6L 53.5728 2.45557L 53.689 4.83789L 53.689 6L 52.4893 6L 52.4893 1.02344L 54.0649 1.02344ZM 61.5161 5.07031L 59.8721 5.07031L 59.585 6L 58.3032 6L 60.1284 1.02344L 61.2563 1.02344L 63.0952 6L 61.8066 6L 61.5161 5.07031ZM 60.1592 4.14404L 61.229 4.14404L 60.6924 2.41797L 60.1592 4.14404ZM 67.6172 6L 66.4243 6L 64.6606 2.90332L 64.6606 6L 63.4609 6L 63.4609 1.02344L 64.6606 1.02344L 66.4209 4.12012L 66.4209 1.02344L 67.6172 1.02344L 67.6172 6ZM 38.0894 10.0234L 39.2002 13.4858L 40.3076 10.0234L 41.8867 10.0234L 41.8867 15L 40.6836 15L 40.6836 13.8379L 40.7998 11.459L 39.5967 15L 38.8037 15L 37.5972 11.4556L 37.7134 13.8379L 37.7134 15L 36.5137 15L 36.5137 10.0234L 38.0894 10.0234ZM 46.8667 12.6143C 46.8667 13.0996 46.7767 13.5291 46.5967 13.9028C 46.4167 14.2765 46.1603 14.5648 45.8276 14.7676C 45.4972 14.9681 45.1201 15.0684 44.6963 15.0684C 44.2725 15.0684 43.8965 14.9715 43.5684 14.7778C 43.2402 14.5819 42.9839 14.3027 42.7993 13.9404C 42.617 13.5781 42.5213 13.1623 42.5122 12.6929L 42.5122 12.4126C 42.5122 11.925 42.6011 11.4954 42.7788 11.124C 42.9588 10.7503 43.2152 10.4621 43.5479 10.2593C 43.8828 10.0565 44.2633 9.95508 44.6895 9.95508C 45.111 9.95508 45.487 10.0553 45.8174 10.2559C 46.1478 10.4564 46.4041 10.7424 46.5864 11.1138C 46.771 11.4829 46.8644 11.9067 46.8667 12.3853L 46.8667 12.6143ZM 45.6465 12.4058C 45.6465 11.9113 45.5633 11.5365 45.397 11.2812C 45.2329 11.0238 44.9971 10.895 44.6895 10.895C 44.0879 10.895 43.77 11.3462 43.7358 12.2485L 43.7324 12.6143C 43.7324 13.1019 43.8133 13.4767 43.9751 13.7388C 44.1369 14.0008 44.3773 14.1318 44.6963 14.1318C 44.9993 14.1318 45.2329 14.0031 45.397 13.7456C 45.561 13.4881 45.6442 13.1178 45.6465 12.6348L 45.6465 12.4058ZM 50.0522 13.6772C 50.0522 13.5018 49.9896 13.3651 49.8643 13.2671C 49.7412 13.1691 49.5236 13.0677 49.2114 12.9629C 48.8993 12.8581 48.644 12.7567 48.4458 12.6587C 47.8009 12.342 47.4785 11.9067 47.4785 11.353C 47.4785 11.0773 47.5583 10.8346 47.7178 10.625C 47.8796 10.4131 48.1074 10.249 48.4014 10.1328C 48.6953 10.0143 49.0257 9.95508 49.3926 9.95508C 49.7503 9.95508 50.0705 10.0189 50.353 10.1465C 50.6379 10.2741 50.8589 10.4564 51.0161 10.6934C 51.1733 10.9281 51.252 11.1969 51.252 11.5L 50.0557 11.5C 50.0557 11.2972 49.993 11.14 49.8677 11.0283C 49.7446 10.9167 49.5771 10.8608 49.3652 10.8608C 49.151 10.8608 48.9813 10.9087 48.856 11.0044C 48.7329 11.0978 48.6714 11.2174 48.6714 11.3633C 48.6714 11.4909 48.7397 11.6071 48.8765 11.7119C 49.0132 11.8145 49.2536 11.9215 49.5977 12.0332C 49.9417 12.1426 50.2243 12.2611 50.4453 12.3887C 50.9831 12.6986 51.252 13.1258 51.252 13.6704C 51.252 14.1056 51.0879 14.4474 50.7598 14.6958C 50.4316 14.9442 49.9816 15.0684 49.4097 15.0684C 49.0063 15.0684 48.6406 14.9966 48.3125 14.853C 47.9867 14.7072 47.7406 14.509 47.5742 14.2583C 47.4102 14.0054 47.3281 13.7148 47.3281 13.3867L 48.5312 13.3867C 48.5312 13.6533 48.5996 13.8504 48.7363 13.978C 48.8753 14.1034 49.0998 14.166 49.4097 14.166C 49.6079 14.166 49.764 14.1239 49.8779 14.0396C 49.9941 13.953 50.0522 13.8322 50.0522 13.6772ZM 55.7739 10.9497L 54.2803 10.9497L 54.2803 15L 53.0806 15L 53.0806 10.9497L 51.6143 10.9497L 51.6143 10.0234L 55.7739 10.0234L 55.7739 10.9497ZM 57.8213 15L 57.8213 10.0234L 59.4243 10.0234C 59.8641 10.0234 60.2594 10.1237 60.6104 10.3242C 60.9613 10.5225 61.2347 10.8039 61.4307 11.1685C 61.6289 11.5308 61.7292 11.9375 61.7314 12.3887L 61.7314 12.6177C 61.7314 13.0734 61.6346 13.4824 61.4409 13.8447C 61.2495 14.2048 60.9784 14.4873 60.6274 14.6924C 60.2788 14.8952 59.8892 14.9977 59.4585 15L 57.8213 15ZM 59.021 10.9497L 59.021 14.0771L 59.438 14.0771C 59.7821 14.0771 60.0464 13.9552 60.231 13.7114C 60.4155 13.4653 60.5078 13.1007 60.5078 12.6177L 60.5078 12.4023C 60.5078 11.9215 60.4155 11.5592 60.231 11.3154C 60.0464 11.0716 59.7775 10.9497 59.4243 10.9497L 59.021 10.9497ZM 63.625 15L 62.4287 15L 62.4287 10.0234L 63.625 10.0234L 63.625 15ZM 67.5454 12.8911L 65.6587 12.8911L 65.6587 14.0771L 67.8872 14.0771L 67.8872 15L 64.459 15L 64.459 10.0234L 67.894 10.0234L 67.894 10.9497L 65.6587 10.9497L 65.6587 11.999L 67.5454 11.999L 67.5454 12.8911Z"/>
<path id="path53_fill" d="M 2.94287 4.67725C 2.94287 4.50179 2.88021 4.36507 2.75488 4.26709C 2.63184 4.16911 2.41423 4.06771 2.10205 3.96289C 1.78988 3.85807 1.53467 3.75667 1.33643 3.65869C 0.691569 3.34196 0.369141 2.90674 0.369141 2.35303C 0.369141 2.07731 0.448893 1.83464 0.608398 1.625C 0.770182 1.41309 0.998047 1.24902 1.29199 1.13281C 1.58594 1.01432 1.91634 0.955078 2.2832 0.955078C 2.64095 0.955078 2.9611 1.01888 3.24365 1.14648C 3.52848 1.27409 3.74951 1.45638 3.90674 1.69336C 4.06396 1.92806 4.14258 2.19694 4.14258 2.5L 2.94629 2.5C 2.94629 2.2972 2.88363 2.13997 2.7583 2.02832C 2.63525 1.91667 2.46777 1.86084 2.25586 1.86084C 2.04167 1.86084 1.87191 1.90869 1.74658 2.00439C 1.62354 2.09782 1.56201 2.21745 1.56201 2.36328C 1.56201 2.49089 1.63037 2.6071 1.76709 2.71191C 1.90381 2.81445 2.14421 2.92155 2.48828 3.0332C 2.83236 3.14258 3.11491 3.26107 3.33594 3.38867C 3.8737 3.69857 4.14258 4.12581 4.14258 4.67041C 4.14258 5.10563 3.97852 5.44743 3.65039 5.6958C 3.32227 5.94417 2.87223 6.06836 2.30029 6.06836C 1.89697 6.06836 1.53125 5.99658 1.20312 5.85303C 0.877279 5.70719 0.631185 5.50895 0.464844 5.2583C 0.300781 5.00537 0.21875 4.71484 0.21875 4.38672L 1.42188 4.38672C 1.42188 4.65332 1.49023 4.85042 1.62695 4.97803C 1.76595 5.10335 1.9904 5.16602 2.30029 5.16602C 2.49854 5.16602 2.65462 5.12386 2.76855 5.03955C 2.88477 4.95296 2.94287 4.83219 2.94287 4.67725ZM 6.44971 4.14746L 5.95752 4.6875L 5.95752 6L 4.75781 6L 4.75781 1.02344L 5.95752 1.02344L 5.95752 3.21777L 6.37451 2.58545L 7.44775 1.02344L 8.93115 1.02344L 7.24951 3.22461L 8.93115 6L 7.50928 6L 6.44971 4.14746ZM 13.3403 3.61426C 13.3403 4.09961 13.2503 4.52913 13.0703 4.90283C 12.8903 5.27653 12.634 5.56478 12.3013 5.76758C 11.9709 5.9681 11.5938 6.06836 11.1699 6.06836C 10.7461 6.06836 10.3701 5.97152 10.042 5.77783C 9.71387 5.58187 9.45752 5.30273 9.27295 4.94043C 9.09066 4.57812 8.99495 4.16227 8.98584 3.69287L 8.98584 3.4126C 8.98584 2.92497 9.07471 2.49544 9.25244 2.12402C 9.43245 1.75033 9.6888 1.46208 10.0215 1.25928C 10.3564 1.05648 10.737 0.955078 11.1631 0.955078C 11.5846 0.955078 11.9606 1.05534 12.291 1.25586C 12.6214 1.45638 12.8778 1.74235 13.0601 2.11377C 13.2446 2.48291 13.3381 2.90674 13.3403 3.38525L 13.3403 3.61426ZM 12.1201 3.40576C 12.1201 2.9113 12.0369 2.53646 11.8706 2.28125C 11.7065 2.02376 11.4707 1.89502 11.1631 1.89502C 10.5615 1.89502 10.2437 2.34619 10.2095 3.24854L 10.2061 3.61426C 10.2061 4.10189 10.2869 4.47673 10.4487 4.73877C 10.6105 5.00081 10.8509 5.13184 11.1699 5.13184C 11.473 5.13184 11.7065 5.00309 11.8706 4.74561C 12.0347 4.48812 12.1178 4.11784 12.1201 3.63477L 12.1201 3.40576ZM 17.5718 1.94971L 16.0781 1.94971L 16.0781 6L 14.8784 6L 14.8784 1.94971L 13.4121 1.94971L 13.4121 1.02344L 17.5718 1.02344L 17.5718 1.94971ZM 23.3208 1.94971L 21.8271 1.94971L 21.8271 6L 20.6274 6L 20.6274 1.94971L 19.1611 1.94971L 19.1611 1.02344L 23.3208 1.02344L 23.3208 1.94971ZM 26.9165 3.89111L 25.0298 3.89111L 25.0298 5.07715L 27.2583 5.07715L 27.2583 6L 23.8301 6L 23.8301 1.02344L 27.2651 1.02344L 27.2651 1.94971L 25.0298 1.94971L 25.0298 2.99902L 26.9165 2.99902L 26.9165 3.89111ZM 31.9033 6L 30.7104 6L 28.9468 2.90332L 28.9468 6L 27.7471 6L 27.7471 1.02344L 28.9468 1.02344L 30.707 4.12012L 30.707 1.02344L 31.9033 1.02344L 31.9033 6ZM 35.7485 3.89111L 33.8618 3.89111L 33.8618 5.07715L 36.0903 5.07715L 36.0903 6L 32.6621 6L 32.6621 1.02344L 36.0972 1.02344L 36.0972 1.94971L 33.8618 1.94971L 33.8618 2.99902L 35.7485 2.99902L 35.7485 3.89111ZM 38.4282 4.24316L 37.7788 4.24316L 37.7788 6L 36.5791 6L 36.5791 1.02344L 38.5376 1.02344C 39.1278 1.02344 39.5892 1.15446 39.9219 1.4165C 40.2546 1.67855 40.4209 2.04883 40.4209 2.52734C 40.4209 2.8737 40.3503 3.16081 40.209 3.38867C 40.07 3.61654 39.8512 3.80111 39.5527 3.94238L 40.5918 5.94873L 40.5918 6L 39.3066 6L 38.4282 4.24316ZM 37.7788 3.31689L 38.5376 3.31689C 38.7655 3.31689 38.9364 3.25765 39.0503 3.13916C 39.1665 3.01839 39.2246 2.85091 39.2246 2.63672C 39.2246 2.42253 39.1665 2.25505 39.0503 2.13428C 38.9341 2.01123 38.7632 1.94971 38.5376 1.94971L 37.7788 1.94971L 37.7788 3.31689ZM 42.7212 1.02344L 43.832 4.48584L 44.9395 1.02344L 46.5186 1.02344L 46.5186 6L 45.3154 6L 45.3154 4.83789L 45.4316 2.45898L 44.2285 6L 43.4355 6L 42.229 2.45557L 42.3452 4.83789L 42.3452 6L 41.1455 6L 41.1455 1.02344L 42.7212 1.02344ZM 50.1724 5.07031L 48.5283 5.07031L 48.2412 6L 46.9595 6L 48.7847 1.02344L 49.9126 1.02344L 51.7515 6L 50.4629 6L 50.1724 5.07031ZM 48.8154 4.14404L 49.8853 4.14404L 49.3486 2.41797L 48.8154 4.14404ZM 56.2734 6L 55.0806 6L 53.3169 2.90332L 53.3169 6L 52.1172 6L 52.1172 1.02344L 53.3169 1.02344L 55.0771 4.12012L 55.0771 1.02344L 56.2734 1.02344L 56.2734 6ZM 1.95166 10.0234L 3.0625 13.4858L 4.16992 10.0234L 5.74902 10.0234L 5.74902 15L 4.5459 15L 4.5459 13.8379L 4.66211 11.459L 3.45898 15L 2.66602 15L 1.45947 11.4556L 1.57568 13.8379L 1.57568 15L 0.375977 15L 0.375977 10.0234L 1.95166 10.0234ZM 10.729 12.6143C 10.729 13.0996 10.639 13.5291 10.459 13.9028C 10.279 14.2765 10.0226 14.5648 9.68994 14.7676C 9.35954 14.9681 8.98242 15.0684 8.55859 15.0684C 8.13477 15.0684 7.75879 14.9715 7.43066 14.7778C 7.10254 14.5819 6.84619 14.3027 6.66162 13.9404C 6.47933 13.5781 6.38363 13.1623 6.37451 12.6929L 6.37451 12.4126C 6.37451 11.925 6.46338 11.4954 6.64111 11.124C 6.82113 10.7503 7.07747 10.4621 7.41016 10.2593C 7.74512 10.0565 8.12565 9.95508 8.55176 9.95508C 8.97331 9.95508 9.34928 10.0553 9.67969 10.2559C 10.0101 10.4564 10.2664 10.7424 10.4487 11.1138C 10.6333 11.4829 10.7267 11.9067 10.729 12.3853L 10.729 12.6143ZM 9.50879 12.4058C 9.50879 11.9113 9.42562 11.5365 9.25928 11.2812C 9.09521 11.0238 8.85938 10.895 8.55176 10.895C 7.9502 10.895 7.63232 11.3462 7.59814 12.2485L 7.59473 12.6143C 7.59473 13.1019 7.67562 13.4767 7.8374 13.7388C 7.99919 14.0008 8.23958 14.1318 8.55859 14.1318C 8.86165 14.1318 9.09521 14.0031 9.25928 13.7456C 9.42334 13.4881 9.50651 13.1178 9.50879 12.6348L 9.50879 12.4058ZM 13.9146 13.6772C 13.9146 13.5018 13.8519 13.3651 13.7266 13.2671C 13.6035 13.1691 13.3859 13.0677 13.0737 12.9629C 12.7616 12.8581 12.5063 12.7567 12.3081 12.6587C 11.6632 12.342 11.3408 11.9067 11.3408 11.353C 11.3408 11.0773 11.4206 10.8346 11.5801 10.625C 11.7419 10.4131 11.9697 10.249 12.2637 10.1328C 12.5576 10.0143 12.888 9.95508 13.2549 9.95508C 13.6126 9.95508 13.9328 10.0189 14.2153 10.1465C 14.5002 10.2741 14.7212 10.4564 14.8784 10.6934C 15.0356 10.9281 15.1143 11.1969 15.1143 11.5L 13.918 11.5C 13.918 11.2972 13.8553 11.14 13.73 11.0283C 13.6069 10.9167 13.4395 10.8608 13.2275 10.8608C 13.0133 10.8608 12.8436 10.9087 12.7183 11.0044C 12.5952 11.0978 12.5337 11.2174 12.5337 11.3633C 12.5337 11.4909 12.6021 11.6071 12.7388 11.7119C 12.8755 11.8145 13.1159 11.9215 13.46 12.0332C 13.804 12.1426 14.0866 12.2611 14.3076 12.3887C 14.8454 12.6986 15.1143 13.1258 15.1143 13.6704C 15.1143 14.1056 14.9502 14.4474 14.6221 14.6958C 14.2939 14.9442 13.8439 15.0684 13.272 15.0684C 12.8687 15.0684 12.5029 14.9966 12.1748 14.853C 11.849 14.7072 11.6029 14.509 11.4365 14.2583C 11.2725 14.0054 11.1904 13.7148 11.1904 13.3867L 12.3936 13.3867C 12.3936 13.6533 12.4619 13.8504 12.5986 13.978C 12.7376 14.1034 12.9621 14.166 13.272 14.166C 13.4702 14.166 13.6263 14.1239 13.7402 14.0396C 13.8564 13.953 13.9146 13.8322 13.9146 13.6772ZM 19.6362 10.9497L 18.1426 10.9497L 18.1426 15L 16.9429 15L 16.9429 10.9497L 15.4766 10.9497L 15.4766 10.0234L 19.6362 10.0234L 19.6362 10.9497ZM 21.6836 15L 21.6836 10.0234L 23.2866 10.0234C 23.7264 10.0234 24.1217 10.1237 24.4727 10.3242C 24.8236 10.5225 25.097 10.8039 25.293 11.1685C 25.4912 11.5308 25.5915 11.9375 25.5938 12.3887L 25.5938 12.6177C 25.5938 13.0734 25.4969 13.4824 25.3032 13.8447C 25.1118 14.2048 24.8407 14.4873 24.4897 14.6924C 24.1411 14.8952 23.7515 14.9977 23.3208 15L 21.6836 15ZM 22.8833 10.9497L 22.8833 14.0771L 23.3003 14.0771C 23.6444 14.0771 23.9087 13.9552 24.0933 13.7114C 24.2778 13.4653 24.3701 13.1007 24.3701 12.6177L 24.3701 12.4023C 24.3701 11.9215 24.2778 11.5592 24.0933 11.3154C 23.9087 11.0716 23.6398 10.9497 23.2866 10.9497L 22.8833 10.9497ZM 27.4873 15L 26.291 15L 26.291 10.0234L 27.4873 10.0234L 27.4873 15ZM 31.4077 12.8911L 29.521 12.8911L 29.521 14.0771L 31.7495 14.0771L 31.7495 15L 28.3213 15L 28.3213 10.0234L 31.7563 10.0234L 31.7563 10.9497L 29.521 10.9497L 29.521 11.999L 31.4077 11.999L 31.4077 12.8911Z"/>
<path id="path54_fill" d="M 0.567736 0L -9.17438e-08 1.98246L -9.17438e-08 59.5088L 0.567736 60.091L 26.5601 44.3069L 0.567736 0Z"/>
<path id="path55_fill" d="M 25.9924 0L 0 44.3069L 25.9924 60.0912L 25.9924 32.1697L 25.9924 0Z"/>
<path id="path56_fill" d="M 0.319923 15.7762L 1.56212e-07 16.1769L 1.56212e-07 36.669L 0.319923 37.6291L 26.3277 -1.32972e-06L 0.319923 15.7762Z"/>
<path id="path57_fill" d="M 25.9924 37.6291L 25.9924 15.7762L 0 1.0597e-06L 25.9924 37.6291Z"/>
<path id="path58_fill" d="M -4.63678e-07 27.9212L 25.992 12.1372L -4.63678e-07 1.39086e-06L -4.63678e-07 27.9212Z"/>
<path id="path59_fill" d="M -3.14031e-12 12.1372L 25.992 27.9212L 25.992 -3.71915e-07L -3.14031e-12 12.1372Z"/>
</defs>
</svg>
