<svg width="22" height="22" viewBox="0 0 22 22" version="1.1" xmlns="http://www.w3.org/2000/svg" xmlns:xlink="http://www.w3.org/1999/xlink">
<title>Layer 1 3</title>
<desc>Created using Figma</desc>
<g id="Canvas" transform="translate(-1321 161)">
<g id="Layer 1 3">
<g id="Group 10">
<g id="Vector">
<use xlink:href="#path0_fill" transform="translate(1321 -161)" fill="#2D9CDB"/>
</g>
</g>
</g>
</g>
<defs>
<path id="path0_fill" d="M 22 11C 22 12.4896 21.7088 13.9123 21.1263 15.2682C 20.5438 16.6241 19.7609 17.7938 18.7773 18.7773C 17.7938 19.7609 16.6241 20.5438 15.2682 21.1263C 13.9123 21.7088 12.4896 22 11 22C 9.35764 22 7.79644 21.6539 6.31641 20.9616C 4.83637 20.2693 3.57595 19.293 2.53516 18.0326C 2.46832 17.9371 2.43728 17.8296 2.44206 17.7103C 2.44683 17.5909 2.48741 17.4931 2.5638 17.4167L 4.52604 15.4401C 4.62153 15.3542 4.74089 15.3112 4.88411 15.3112C 5.03689 15.3303 5.1467 15.3876 5.21354 15.4831C 5.91059 16.3902 6.76519 17.092 7.77734 17.5885C 8.7895 18.0851 9.86372 18.3333 11 18.3333C 11.9931 18.3333 12.9408 18.14 13.8431 17.7533C 14.7454 17.3665 15.526 16.8438 16.1849 16.1849C 16.8438 15.526 17.3665 14.7454 17.7533 13.8431C 18.14 12.9408 18.3333 11.9931 18.3333 11C 18.3333 10.0069 18.14 9.05925 17.7533 8.1569C 17.3665 7.25456 16.8438 6.47396 16.1849 5.8151C 15.526 5.15625 14.7454 4.63346 13.8431 4.24674C 12.9408 3.86003 11.9931 3.66667 11 3.66667C 10.0642 3.66667 9.16667 3.83615 8.30729 4.17513C 7.44792 4.51411 6.68403 4.9987 6.01562 5.62891L 7.97786 7.60547C 8.27387 7.89193 8.34071 8.22135 8.17839 8.59375C 8.01606 8.97569 7.73438 9.16667 7.33333 9.16667L 0.916667 9.16667C 0.668403 9.16667 0.453559 9.07595 0.272135 8.89453C 0.0907118 8.71311 0 8.49826 0 8.25L 0 1.83333C 0 1.43229 0.190972 1.15061 0.572917 0.988281C 0.945312 0.825955 1.27474 0.892795 1.5612 1.1888L 3.42318 3.03646C 4.44488 2.07205 5.6122 1.32487 6.92513 0.794922C 8.23806 0.264974 9.59635 0 11 0C 12.4896 0 13.9123 0.291233 15.2682 0.873698C 16.6241 1.45616 17.7938 2.23915 18.7773 3.22266C 19.7609 4.20616 20.5438 5.37587 21.1263 6.73177C 21.7088 8.08767 22 9.51042 22 11ZM 12.8333 6.875L 12.8333 13.2917C 12.8333 13.4253 12.7904 13.5352 12.7044 13.6211C 12.6185 13.707 12.5087 13.75 12.375 13.75L 7.79167 13.75C 7.65799 13.75 7.54818 13.707 7.46224 13.6211C 7.3763 13.5352 7.33333 13.4253 7.33333 13.2917L 7.33333 12.375C 7.33333 12.2413 7.3763 12.1315 7.46224 12.0456C 7.54818 11.9596 7.65799 11.9167 7.79167 11.9167L 11 11.9167L 11 6.875C 11 6.74132 11.043 6.63151 11.1289 6.54557C 11.2148 6.45964 11.3247 6.41667 11.4583 6.41667L 12.375 6.41667C 12.5087 6.41667 12.6185 6.45964 12.7044 6.54557C 12.7904 6.63151 12.8333 6.74132 12.8333 6.875Z"/>
</defs>
</svg>
