<svg width="42" height="38" viewBox="0 0 42 38" version="1.1" xmlns="http://www.w3.org/2000/svg" xmlns:xlink="http://www.w3.org/1999/xlink">
<title>if_enter-image_1540164</title>
<desc>Created using Figma</desc>
<g id="Canvas" transform="translate(-452 492)">
<g id="if_enter-image_1540164">
<g id="XMLID 3">
<use xlink:href="#path0_stroke" transform="translate(452 -473)" fill="#FFFFFF"/>
</g>
<g id="XMLID 18">
<use xlink:href="#path1_stroke" transform="translate(456.21 -491.36)" fill="#FFFFFF"/>
</g>
<g id="XMLID 8">
<use xlink:href="#path2_stroke" transform="translate(473.589 -473)" fill="#FFFFFF"/>
</g>
<g id="XMLID 21">
<use xlink:href="#path3_stroke" transform="translate(473.589 -477.02)" fill="#FFFFFF"/>
</g>
</g>
</g>
<defs>
<path id="path0_stroke" d="M 0 0.5L 27.2863 0.5L 27.2863 -0.5L 0 -0.5L 0 0.5Z"/>
<path id="path1_stroke" d="M 36.2194 18.3597C 36.2194 28.2234 28.2234 36.2194 18.3597 36.2194L 18.3597 37.2194C 28.7756 37.2194 37.2194 28.7756 37.2194 18.3597L 36.2194 18.3597ZM 18.3597 36.2194C 8.49607 36.2194 0.5 28.2234 0.5 18.3597L -0.5 18.3597C -0.5 28.7756 7.94378 37.2194 18.3597 37.2194L 18.3597 36.2194ZM 0.5 18.3597C 0.5 8.49607 8.49607 0.5 18.3597 0.5L 18.3597 -0.5C 7.94378 -0.5 -0.5 7.94378 -0.5 18.3597L 0.5 18.3597ZM 18.3597 0.5C 28.2234 0.5 36.2194 8.49607 36.2194 18.3597L 37.2194 18.3597C 37.2194 7.94378 28.7756 -0.5 18.3597 -0.5L 18.3597 0.5Z"/>
<path id="path2_stroke" d="M 0.299244 4.42071L 5.68054 0.400565L 5.08205 -0.400565L -0.299246 3.61958L 0.299244 4.42071Z"/>
<path id="path3_stroke" d="M 5.68054 3.61958L 0.299244 -0.400565L -0.299246 0.400565L 5.08205 4.42071L 5.68054 3.61958Z"/>
</defs>
</svg>
