<svg width="290" height="78" viewBox="0 0 290 78" fill="none" xmlns="http://www.w3.org/2000/svg">
<path d="M18.5279 15.0303C18.1088 14.315 17.5456 13.7586 16.8317 13.3643C16.3399 13.0795 15.6304 12.821 14.6998 12.5866C15.5644 12.2898 16.2596 11.9228 16.791 11.4693C17.3179 11.0235 17.726 10.5065 18.0065 9.91834C18.2837 9.33123 18.4267 8.71236 18.4267 8.05735C18.4267 7.16136 18.1616 6.33547 17.6314 5.58297C17.0979 4.83485 16.3399 4.25541 15.3554 3.85561C14.7823 3.6223 14.0717 3.46457 13.2532 3.36818V0.454568L10.4734 0V3.24989H8.68369V0.345033L5.90389 0V3.24989H0V5.99153H0.781025C1.30354 5.99153 1.65555 6.03973 1.84476 6.12954C2.02847 6.22703 2.15937 6.35299 2.23637 6.51182C2.31338 6.67393 2.34858 7.04744 2.34858 7.63455V18.6668C2.34858 19.2386 2.31118 19.6132 2.23637 19.7808C2.15937 19.944 2.02957 20.0711 1.84476 20.1642C1.65665 20.2507 1.30354 20.2956 0.781025 20.2956H0V23.0384H5.90389V25.7658L8.68149 26.2883V23.0384H10.4085C10.4305 23.0384 10.4503 23.0362 10.4745 23.0362V25.8216L13.2521 26.2883V22.8741C14.1476 22.7601 14.9044 22.5772 15.5061 22.3417C16.6677 21.8773 17.5665 21.2015 18.2012 20.3186C18.8392 19.4336 19.1538 18.4697 19.1538 17.4203C19.1527 16.5419 18.9426 15.7456 18.5279 15.0303ZM7.26354 6.44391H9.44161C10.7133 6.44391 11.5933 6.52277 12.0894 6.67941C12.5844 6.83604 12.9606 7.10002 13.2202 7.46258C13.4809 7.83719 13.614 8.2808 13.614 8.7978C13.614 9.30275 13.4754 9.74199 13.1993 10.1275C12.9232 10.5109 12.5129 10.7968 11.9673 10.9819C11.4217 11.1747 10.579 11.2667 9.44051 11.2667H7.26244V6.44391H7.26354ZM13.4149 18.6679C13.0266 19.1598 12.5569 19.4807 12.0025 19.6373C11.4503 19.7951 10.7496 19.875 9.90692 19.875H8.45708C7.97306 19.875 7.67715 19.8498 7.56825 19.7972C7.45714 19.7425 7.38014 19.6516 7.33284 19.5212C7.29214 19.415 7.27124 19.0634 7.26354 18.4533V14.1737H9.82992C10.9608 14.1737 11.8001 14.2789 12.3479 14.4859C12.8957 14.6929 13.3093 15.0018 13.5821 15.4082C13.8605 15.8146 13.9947 16.3119 13.9947 16.899C13.998 17.5836 13.8033 18.1739 13.4149 18.6679Z" transform="translate(0 27)" fill="#FFB629"/>
<path d="M16.8383 12.2725C16.1664 11.9039 15.4354 11.7332 14.7155 11.7388L14.7216 11.7354C13.7339 11.7467 12.9237 10.9782 12.9121 10.0192C12.9007 9.07286 13.6703 8.29525 14.6387 8.26293V8.26248L14.6369 8.2616C15.3695 8.25806 16.1107 8.07165 16.7859 7.68183C18.805 6.51599 19.4688 3.98136 18.2685 2.02048C17.0679 0.0595038 14.458 -0.585091 12.4389 0.580741C10.4198 1.74649 9.75611 4.28121 10.9565 6.24209C11.4565 7.05919 11.1801 8.11522 10.3388 8.60103C9.5095 9.07985 8.44161 8.82543 7.93219 8.03578L7.93175 8.03596V8.03817C7.56466 7.42262 7.02983 6.89085 6.34612 6.51573C4.30108 5.39355 1.70625 6.09385 0.550821 8.08024C-0.604609 10.0662 0.116816 12.5861 2.16194 13.7082C4.20716 14.8304 6.80163 14.13 7.95715 12.1437C7.96414 12.1317 7.97034 12.1193 7.97716 12.1073V12.1102L7.9776 12.1104C8.46843 11.3086 9.53154 11.0308 10.3718 11.4918C11.224 11.9595 11.5244 13.0093 11.043 13.8368C9.88738 15.8232 10.6089 18.3429 12.6539 19.4649C14.6991 20.5872 17.2938 19.8867 18.4492 17.9004C19.6045 15.9143 18.8833 13.3946 16.8383 12.2725Z" transform="translate(12 58)" fill="#FFB629"/>
<path d="M13.4092 13.6988V0L0 5.86114L13.4092 13.6988Z" transform="translate(29.3101 32.858)" fill="#FFB629"/>
<path d="M12.9771 16.0847V0L0 21.7567L12.9771 16.0847Z" transform="translate(29.74 15.831)" fill="#FFB629"/>
<path d="M0 0V16.0913L13.1595 21.8435L0 0Z" transform="translate(43.58 15.825)" fill="#FFB629"/>
<path d="M0 0V13.6991L13.4186 5.86505L0 0Z" transform="translate(43.58 32.858)" fill="#FFB629"/>
<path d="M13.319 18.7995V7.78127L0 0L13.319 18.7995Z" transform="translate(29.4 41.531)" fill="#FFB629"/>
<path d="M0 18.7995L13.319 0L0 7.78127V18.7995Z" transform="translate(43.58 41.531)" fill="#FFB629"/>
<path d="M6.54546 16.8549L7.72261 11.2866L13.6718 7.23447L14.3691 3.9251L8.41879 7.99381L10.1088 0H5.53855L3.08383 11.6417L0.581114 13.3531L0 16.547L2.39263 14.9172L1.16204 20.7539H15.802L16.6154 16.8549H6.54546Z" transform="translate(14)" fill="#FFB629"/>
<path d="M24.2522 33.1425C24.2522 31.5803 23.6944 30.3629 22.5787 29.4905C21.4832 28.6182 19.5459 27.7152 16.7666 26.7818C13.9874 25.8484 11.7154 24.9457 9.95044 24.0734C4.2094 21.253 1.33888 17.3777 1.33888 12.4475C1.33888 9.99249 2.04891 7.83168 3.46897 5.96506C4.90928 4.07817 6.93794 2.61734 9.55487 1.58258C12.1718 0.527534 15.1133 0 18.3794 0C21.5644 0 24.4145 0.568125 26.9301 1.70433C29.466 2.8405 31.4337 4.46367 32.8333 6.57376C34.2332 8.66353 34.933 11.0577 34.933 13.7562H24.2828C24.2828 11.9504 23.7249 10.5504 22.6091 9.55626C21.5137 8.56209 20.0226 8.065 18.136 8.065C16.2291 8.065 14.7177 8.49109 13.602 9.34323C12.5065 10.1751 11.9588 11.2403 11.9588 12.5388C11.9588 13.675 12.5674 14.7098 13.7846 15.6432C15.0017 16.556 17.1419 17.5096 20.2052 18.5038C23.2684 19.4777 25.784 20.5328 27.7517 21.669C32.5391 24.4284 34.933 28.2325 34.933 33.0817C34.933 36.957 33.4724 40.0004 30.5511 42.2118C27.6299 44.4234 23.6234 45.5293 18.5316 45.5293C14.9409 45.5293 11.6849 44.8901 8.76369 43.6119C5.86274 42.3133 3.67182 40.5481 2.19092 38.3163C0.730308 36.0641 0 33.4775 0 30.5558H10.7112C10.7112 32.9295 11.3198 34.6846 12.5369 35.8208C13.7744 36.9367 15.7726 37.4946 18.5316 37.4946C20.2965 37.4946 21.6861 37.1193 22.7004 36.3685C23.735 35.5977 24.2522 34.5223 24.2522 33.1425ZM74.7347 28.3948L79.8166 0.608691H90.406L81.0033 44.9205H69.927L63.9931 19.6602L58.1811 44.9205H47.1352L37.7021 0.608691H48.3221L53.4037 28.3948L59.4898 0.608691H68.5575L74.7347 28.3948ZM105.956 44.9205H95.2443V20.0865L105.956 34.3701V44.9205ZM141.284 27.2688H124.061V44.9205H113.38V0.608691H143.019V8.85629H124.061V19.0518H141.284V27.2688ZM182.851 8.85629H169.553V56.4449L158.872 44.9205V8.85629H145.818V0.608691H182.851V8.85629ZM204.091 19.8431L212.246 0.608691H223.779L209.507 29.0036V44.9205H198.674V29.0036L184.433 0.608691H195.905L204.091 19.8431Z" transform="translate(66 14.675)" fill="black"/>
<mask id="mask0" mask-type="alpha" maskUnits="userSpaceOnUse" x="66" y="14" width="224" height="58">
<path d="M24.2522 33.1425C24.2522 31.5803 23.6944 30.3629 22.5787 29.4905C21.4832 28.6182 19.5459 27.7152 16.7666 26.7818C13.9874 25.8484 11.7154 24.9457 9.95044 24.0734C4.2094 21.253 1.33888 17.3777 1.33888 12.4475C1.33888 9.99249 2.04891 7.83168 3.46897 5.96506C4.90928 4.07817 6.93794 2.61734 9.55487 1.58258C12.1718 0.527534 15.1133 0 18.3794 0C21.5644 0 24.4145 0.568125 26.9301 1.70433C29.466 2.8405 31.4337 4.46367 32.8333 6.57376C34.2332 8.66353 34.933 11.0577 34.933 13.7562H24.2828C24.2828 11.9504 23.7249 10.5504 22.6091 9.55626C21.5137 8.56209 20.0226 8.065 18.136 8.065C16.2291 8.065 14.7177 8.49109 13.602 9.34323C12.5065 10.1751 11.9588 11.2403 11.9588 12.5388C11.9588 13.675 12.5674 14.7098 13.7846 15.6432C15.0017 16.556 17.1419 17.5096 20.2052 18.5038C23.2684 19.4777 25.784 20.5328 27.7517 21.669C32.5391 24.4284 34.933 28.2325 34.933 33.0817C34.933 36.957 33.4724 40.0004 30.5511 42.2118C27.6299 44.4234 23.6234 45.5293 18.5316 45.5293C14.9409 45.5293 11.6849 44.8901 8.76369 43.6119C5.86274 42.3133 3.67182 40.5481 2.19092 38.3163C0.730308 36.0641 0 33.4775 0 30.5558H10.7112C10.7112 32.9295 11.3198 34.6846 12.5369 35.8208C13.7744 36.9367 15.7726 37.4946 18.5316 37.4946C20.2965 37.4946 21.6861 37.1193 22.7004 36.3685C23.735 35.5977 24.2522 34.5223 24.2522 33.1425ZM74.7347 28.3948L79.8166 0.608691H90.406L81.0033 44.9205H69.927L63.9931 19.6602L58.1811 44.9205H47.1352L37.7021 0.608691H48.3221L53.4037 28.3948L59.4898 0.608691H68.5575L74.7347 28.3948ZM105.956 44.9205H95.2443V20.0865L105.956 34.3701V44.9205ZM141.284 27.2688H124.061V44.9205H113.38V0.608691H143.019V8.85629H124.061V19.0518H141.284V27.2688ZM182.851 8.85629H169.553V56.4449L158.872 44.9205V8.85629H145.818V0.608691H182.851V8.85629ZM204.091 19.8431L212.246 0.608691H223.779L209.507 29.0036V44.9205H198.674V29.0036L184.433 0.608691H195.905L204.091 19.8431Z" transform="translate(66 14.675)" fill="black"/>
</mask>
<g mask="url(#mask0)">
<path d="M27.5787 34.4905L24.464 38.4018L24.4814 38.4158L24.499 38.4295L27.5787 34.4905ZM14.9504 29.0734L17.1659 24.591L17.1551 24.5857L14.9504 29.0734ZM8.46897 10.9651L4.49452 7.93128L4.48963 7.93772L8.46897 10.9651ZM14.5549 6.58258L16.3934 11.2323L16.4089 11.2261L16.4244 11.2199L14.5549 6.58258ZM31.9301 6.70433L29.872 11.2611L29.8789 11.2642L29.8857 11.2673L31.9301 6.70433ZM37.8333 11.5738L33.6666 14.3375L33.6729 14.347L33.6792 14.3564L37.8333 11.5738ZM39.933 18.7562V23.7562H44.933V18.7562H39.933ZM29.2828 18.7562H24.2828V23.7562H29.2828V18.7562ZM27.6091 14.5563L24.2489 18.2588L24.2658 18.2742L24.2828 18.2893L27.6091 14.5563ZM18.602 14.3432L21.6258 18.3253L21.6368 18.3169L18.602 14.3432ZM18.7846 20.6432L15.742 24.6109L15.7632 24.6271L15.7846 24.6432L18.7846 20.6432ZM25.2052 23.5038L23.6617 28.2596L23.676 28.2642L23.6903 28.2688L25.2052 23.5038ZM32.7517 26.669L30.2515 30.9991L30.2549 31.001L32.7517 26.669ZM35.5511 47.2118L32.5333 43.2252L32.5331 43.2254L35.5511 47.2118ZM13.7637 48.6119L11.7209 53.1755L11.7401 53.1841L11.7593 53.1925L13.7637 48.6119ZM7.19092 43.3163L2.99592 46.0369L3.01016 46.0589L3.02463 46.0807L7.19092 43.3163ZM5 35.5558V30.5558H0V35.5558H5ZM15.7112 35.5558H20.7112V30.5558H15.7112V35.5558ZM17.5369 40.8208L14.125 44.4758L14.1565 44.5051L14.1885 44.534L17.5369 40.8208ZM27.7004 41.3685L30.6751 45.3873L30.6814 45.3827L30.6876 45.378L27.7004 41.3685ZM79.7347 33.3948L74.8539 34.4799L84.6531 34.2944L79.7347 33.3948ZM84.8166 5.60869V0.60869H80.6481L79.8982 4.70915L84.8166 5.60869ZM95.406 5.60869L100.297 6.64656L101.578 0.60869H95.406V5.60869ZM86.0033 49.9205V54.9205H90.0536L90.8944 50.9584L86.0033 49.9205ZM74.927 49.9205L70.0595 51.0639L70.9655 54.9205H74.927V49.9205ZM68.9931 24.6602L73.8607 23.5168L64.1205 23.5391L68.9931 24.6602ZM63.1811 49.9205V54.9205H67.1613L68.0537 51.0417L63.1811 49.9205ZM52.1352 49.9205L47.2448 50.9616L48.0875 54.9205H52.1352V49.9205ZM42.7021 5.60869V0.60869H36.5256L37.8116 6.64976L42.7021 5.60869ZM53.3221 5.60869L58.2405 4.70919L57.4906 0.60869H53.3221V5.60869ZM58.4037 33.3948L53.4853 34.2943L63.288 34.4646L58.4037 33.3948ZM64.4898 5.60869V0.60869H60.4664L59.6056 4.5389L64.4898 5.60869ZM73.5575 5.60869L78.4384 4.52362L77.568 0.60869H73.5575V5.60869ZM110.956 49.9205V54.9205H115.956V49.9205H110.956ZM100.244 49.9205H95.2443V54.9205H100.244V49.9205ZM100.244 25.0865L104.244 22.0867L95.2443 10.0848V25.0865H100.244ZM110.956 39.3701H115.956V37.7036L114.956 36.3703L110.956 39.3701ZM146.284 32.2688V37.2688H151.284V32.2688H146.284ZM129.061 32.2688V27.2688H124.061V32.2688H129.061ZM129.061 49.9205V54.9205H134.061V49.9205H129.061ZM118.38 49.9205H113.38V54.9205H118.38V49.9205ZM118.38 5.60869V0.60869H113.38V5.60869H118.38ZM148.019 5.60869H153.019V0.60869H148.019V5.60869ZM148.019 13.8563V18.8563H153.019V13.8563H148.019ZM129.061 13.8563V8.85629H124.061V13.8563H129.061ZM129.061 24.0518H124.061V29.0518H129.061V24.0518ZM146.284 24.0518H151.284V19.0518H146.284V24.0518ZM187.851 13.8563V18.8563H192.851V13.8563H187.851ZM174.553 13.8563V8.85629H169.553V13.8563H174.553ZM174.553 61.4449L170.886 64.8437L179.553 74.1954V61.4449H174.553ZM163.872 49.9205H158.872V51.8812L160.205 53.3193L163.872 49.9205ZM163.872 13.8563H168.872V8.85629H163.872V13.8563ZM150.818 13.8563H145.818V18.8563H150.818V13.8563ZM150.818 5.60869V0.60869H145.818V5.60869H150.818ZM187.851 5.60869H192.851V0.60869H187.851V5.60869ZM209.091 24.8431L204.49 26.801L209.099 37.6318L213.694 26.7948L209.091 24.8431ZM217.246 5.60869V0.60869H213.935L212.642 3.65696L217.246 5.60869ZM228.779 5.60869L233.246 7.85407L236.888 0.60869H228.779V5.60869ZM214.507 34.0036L210.04 31.7582L209.507 32.8177V34.0036H214.507ZM214.507 49.9205V54.9205H219.507V49.9205H214.507ZM203.674 49.9205H198.674V54.9205H203.674V49.9205ZM203.674 34.0036H208.674V32.82L208.144 31.762L203.674 34.0036ZM189.433 5.60869V0.60869H181.332L184.964 7.85025L189.433 5.60869ZM200.905 5.60869L205.506 3.65074L204.211 0.60869H200.905V5.60869ZM34.2522 38.1425C34.2522 35.2238 33.1226 32.4782 30.6583 30.5515L24.499 38.4295C24.4906 38.4229 24.4544 38.3928 24.4081 38.3349C24.361 38.2761 24.3195 38.2087 24.2883 38.1407C24.2219 37.9957 24.2522 37.9613 24.2522 38.1425H34.2522ZM30.6934 30.5792C28.8717 29.1285 26.221 28.0033 23.3585 27.042L20.1748 36.5217C22.8707 37.4271 24.0947 38.1078 24.464 38.4018L30.6934 30.5792ZM23.3585 27.042C20.7071 26.1535 18.7479 25.3775 17.1659 24.591L12.735 33.5557C14.6829 34.514 17.2678 35.5434 20.1748 36.5217L23.3585 27.042ZM17.1551 24.5857C12.522 22.3096 11.3389 19.8808 11.3389 17.4475H1.33888C1.33888 24.8747 5.89677 30.1964 12.7458 33.5611L17.1551 24.5857ZM11.3389 17.4475C11.276 15.7829 11.4748 15.1579 12.4483 13.9924L4.48963 7.93772C2.62302 10.5054 1.40175 14.2021 1.33888 17.4475H11.3389ZM12.4434 13.9988C13.3952 12.6627 14.3365 12.0045 16.3934 11.2323L12.7163 1.93287C9.53943 3.23018 6.42338 5.49368 4.49453 7.93129L12.4434 13.9988ZM16.4244 11.2199C18.5552 10.3323 20.5564 9.98033 23.3794 10V0C19.6703 0.01967 15.7884 0.72273 12.6853 1.94526L16.4244 11.2199ZM23.3794 10C26.0733 9.97582 27.8868 10.329 29.872 11.2611L33.9882 2.14755C30.9421 0.80721 27.0555 0.02418 23.3794 0V10ZM29.8857 11.2673C31.8293 12.0887 32.7191 12.8105 33.6666 14.3375L42.0001 8.81001C40.1484 6.11682 37.1028 3.59226 33.9745 2.14137L29.8857 11.2673ZM33.6792 14.3564C34.7037 15.781 34.9835 16.7662 34.933 18.7562H44.933C44.8825 15.3491 43.7627 11.5461 41.9875 8.79108L33.6792 14.3564ZM39.933 13.7562H29.2828V23.7562H39.933V13.7562ZM34.2828 18.7562C34.2828 15.8474 33.3354 12.9617 30.9354 10.8232L24.2828 18.2893C24.2784 18.2854 24.2619 18.2693 24.2434 18.2428C24.225 18.2164 24.2182 18.1994 24.2196 18.2029C24.2224 18.2098 24.2828 18.3645 24.2828 18.7562H34.2828ZM30.9693 10.8537C28.7219 8.81403 25.9113 8.065 23.136 8.065V18.065C23.6462 18.065 23.9426 18.1327 24.0879 18.1812C24.2165 18.224 24.2471 18.2572 24.2489 18.2588L30.9693 10.8537ZM23.136 8.065C20.5207 8.065 17.8197 8.64922 15.5672 10.3696L21.6368 18.3169C21.7841 18.1731 21.5958 18.2703 21.929 18.197C22.3184 18.0724 22.4924 18.0554 23.136 18.065V8.065ZM15.5781 10.3612C13.3236 12.0733 11.9588 14.5722 11.9588 17.5388H21.9588C21.9588 17.6165 21.936 17.8194 21.8162 18.0525C21.7011 18.2763 21.5848 18.3564 21.6258 18.3252L15.5781 10.3612ZM11.9588 17.5388C11.9588 20.7342 13.7552 23.0874 15.742 24.6109L21.8271 16.6754C21.5934 16.4962 21.6263 16.4643 21.7251 16.6323C21.8461 16.838 21.9588 17.1645 21.9588 17.5388H11.9588ZM15.7846 24.6432C17.7064 26.0845 20.5254 27.2417 23.6617 28.2596L26.7486 18.748C23.7585 17.7776 22.2971 17.0275 21.7845 16.6431L15.7846 24.6432ZM23.6903 28.2688C26.5422 29.1702 28.5624 30.0122 30.2515 30.999L35.2519 22.339C33.0055 21.0535 29.9946 19.7851 26.7201 18.7388L23.6903 28.2688ZM30.2549 31.001C33.753 33.0172 34.933 35.3008 34.933 38.0817H44.933C44.933 31.1643 41.3252 25.8395 35.2485 22.3371L30.2549 31.001ZM34.933 38.0817C34.933 40.4964 34.1244 42.0208 32.5333 43.2252L38.569 51.1984C42.8204 47.98 44.933 43.4176 44.933 38.0817H34.933ZM32.5331 43.2254C30.7622 44.5661 27.9498 45.5293 23.5316 45.5293V55.5293C29.2971 55.5293 34.4976 54.2807 38.5692 51.1982L32.5331 43.2254ZM23.5316 45.5293C20.4247 45.5527 18.1776 45.1181 15.7681 44.0312L11.7593 53.1925C15.1923 54.6621 19.4571 55.5058 23.5316 55.5293V45.5293ZM15.8065 44.0482C13.4742 43.0495 12.3668 42.1796 11.3572 40.5518L3.02463 46.0807C4.97681 48.9167 8.25129 51.5772 11.7209 53.1755L15.8065 44.0482ZM11.3859 40.5956C10.285 39.0013 9.95275 37.7917 10 35.5558H0C0.04725 39.1632 1.17566 43.1269 2.99592 46.0369L11.3859 40.5956ZM5 40.5558H15.7112V30.5558H5V40.5558ZM10.7112 35.5558C10.7112 38.7143 11.5264 42.0499 14.125 44.4758L20.9488 37.1658C21.1132 37.3192 20.7112 37.1447 20.7112 35.5558H10.7112ZM14.1885 44.534C16.7839 46.8745 20.2937 47.4946 23.5316 47.4946V37.4946C22.4668 37.4946 21.7529 37.3845 21.3083 37.2603C20.875 37.1394 20.8071 37.037 20.8854 37.1076L14.1885 44.534ZM23.5316 47.4946C25.9512 47.4946 28.5166 46.9851 30.6751 45.3873L24.7257 37.3497C24.8556 37.2535 24.6418 37.4946 23.5316 37.4946V47.4946ZM30.6876 45.378C33.0882 43.5895 34.2522 40.9734 34.2522 38.1425H24.2522C24.2522 38.1992 24.2445 38.0533 24.3584 37.8165C24.4777 37.5685 24.6366 37.416 24.7132 37.3589L30.6876 45.378ZM84.6531 34.2944L89.735 6.50824L79.8982 4.70915L74.8163 32.4953L84.6531 34.2944ZM84.8166 10.6087H95.406V0.60869H84.8166V10.6087ZM90.5149 4.57083L81.1122 48.8826L90.8944 50.9584L100.297 6.64656L90.5149 4.57083ZM86.0033 44.9205H74.927V54.9205H86.0033V44.9205ZM79.7945 48.7771L73.8607 23.5168L64.1256 25.8037L70.0595 51.0639L79.7945 48.7771ZM64.1205 23.5391L58.3084 48.7994L68.0537 51.0417L73.8658 25.7814L64.1205 23.5391ZM57.0256 48.8794L47.5925 4.56762L37.8116 6.64976L47.2448 50.9616L57.0256 48.8794ZM42.7021 10.6087H53.3221V0.60869H42.7021V10.6087ZM48.4037 6.50819L53.4853 34.2943L63.3222 32.4953L58.2405 4.70919L48.4037 6.50819ZM63.288 34.4646L69.374 6.67849L59.6056 4.5389L53.5195 32.325L63.288 34.4646ZM64.4898 10.6087H73.5575V0.60869H64.4898V10.6087ZM68.6767 6.69376L74.8539 34.4799L84.6156 32.3098L78.4384 4.52362L68.6767 6.69376ZM110.956 44.9205H100.244V54.9205H110.956V44.9205ZM105.244 49.9205V25.0865H95.2443V49.9205H105.244ZM96.2441 28.0862L106.955 42.3698L114.956 36.3703L104.244 22.0867L96.2441 28.0862ZM105.956 39.3701V49.9205H115.956V39.3701H105.956ZM146.284 27.2688H129.061V37.2688H146.284V27.2688ZM124.061 32.2688V49.9205H134.061V32.2688H124.061ZM129.061 44.9205H118.38V54.9205H129.061V44.9205ZM123.38 49.9205V5.60869H113.38V49.9205H123.38ZM118.38 10.6087H148.019V0.60869H118.38V10.6087ZM143.019 5.60869V13.8563H153.019V5.60869H143.019ZM148.019 8.85629H129.061V18.8563H148.019V8.85629ZM124.061 13.8563V24.0518H134.061V13.8563H124.061ZM129.061 29.0518H146.284V19.0518H129.061V29.0518ZM141.284 24.0518V32.2688H151.284V24.0518H141.284ZM187.851 8.85629H174.553V18.8563H187.851V8.85629ZM169.553 13.8563V61.4449H179.553V13.8563H169.553ZM178.22 58.0461L167.54 46.5217L160.205 53.3193L170.886 64.8437L178.22 58.0461ZM168.872 49.9205V13.8563H158.872V49.9205H168.872ZM163.872 8.85629H150.818V18.8563H163.872V8.85629ZM155.818 13.8563V5.60869H145.818V13.8563H155.818ZM150.818 10.6087H187.851V0.60869H150.818V10.6087ZM182.851 5.60869V13.8563H192.851V5.60869H182.851ZM213.694 26.7948L221.849 7.56042L212.642 3.65696L204.487 22.8913L213.694 26.7948ZM217.246 10.6087H228.779V0.60869H217.246V10.6087ZM224.311 3.36331L210.04 31.7582L218.975 36.249L233.246 7.85407L224.311 3.36331ZM209.507 34.0036V49.9205H219.507V34.0036H209.507ZM214.507 44.9205H203.674V54.9205H214.507V44.9205ZM208.674 49.9205V34.0036H198.674V49.9205H208.674ZM208.144 31.762L193.902 3.36713L184.964 7.85025L199.205 36.2451L208.144 31.762ZM189.433 10.6087H200.905V0.60869H189.433V10.6087ZM196.304 7.56664L204.49 26.801L213.691 22.8851L205.506 3.65074L196.304 7.56664ZM63.1811 44.9205H52.1352V54.9205H63.1811V44.9205Z" transform="translate(61 9.67499)" fill="black"/>
</g>
<path d="M0 27.4311H10.7112V14.2836L0 0V27.4311Z" transform="translate(171.96 42.715) rotate(-180)" fill="black"/>
<mask id="mask1" mask-type="alpha" maskUnits="userSpaceOnUse" x="161" y="15" width="11" height="28">
<path d="M0 27.4311H10.7112V14.2836L0 0V27.4311Z" transform="translate(171.96 42.715) rotate(-180)" fill="black"/>
</mask>
<g mask="url(#mask1)">
<path d="M15.7112 42.4328V47.4328H20.7112V42.4328H15.7112ZM5 42.4328H0V47.4328H5V42.4328ZM5 15.0017L9.0002 12.002L0 -4.01306e-07V15.0017H5ZM15.7112 29.2853H20.7112V27.6188L19.7114 26.2856L15.7112 29.2853ZM15.7112 37.4328H5V47.4328H15.7112V37.4328ZM10 42.4328V15.0017H0V42.4328H10ZM0.9998 18.0014L11.711 32.285L19.7114 26.2856L9.0002 12.002L0.9998 18.0014ZM10.7112 29.2853V42.4328H20.7112V29.2853H10.7112Z" transform="translate(176.96 57.7167) rotate(-180)" fill="black"/>
</g>
<path d="M0 0L5.1933 9.0896L10.3866 0H0Z" transform="translate(161.24 1)" fill="black"/>
<mask id="mask2" mask-type="alpha" maskUnits="userSpaceOnUse" x="161" y="1" width="11" height="10">
<path d="M0 0L5.1933 9.0896L10.3866 0H0Z" transform="translate(161.24 1)" fill="black"/>
</mask>
<g mask="url(#mask2)">
<path d="M13.8086 14.0896L9.4672 16.57L13.8086 24.1685L18.1499 16.57L13.8086 14.0896ZM8.61527 5V0H3.3905e-07L4.2739 7.48042L8.61527 5ZM19.0019 5L23.3433 7.48042L27.6172 0H19.0019V5ZM18.1499 11.6092L12.9566 2.51958L4.2739 7.48042L9.4672 16.57L18.1499 11.6092ZM8.61527 10H19.0019V0H8.61527V10ZM14.6605 2.51958L9.4672 11.6092L18.1499 16.57L23.3433 7.48042L14.6605 2.51958Z" transform="translate(152.625 -4)" fill="black"/>
</g>
</svg>
