<svg width="49" height="42" viewBox="0 0 49 42" version="1.1" xmlns="http://www.w3.org/2000/svg" xmlns:xlink="http://www.w3.org/1999/xlink">
<title>Icons</title>
<desc>Created using Figma</desc>
<g id="Canvas" transform="translate(-267 137)">
<g id="Icons">
<g id="Group">
<g id="Vector">
<use xlink:href="#path0_fill" transform="translate(298.115 -103.403)" fill="#6F7D95"/>
</g>
<g id="Vector">
<use xlink:href="#path1_fill" transform="translate(278.727 -114.828)" fill="#6F7D95"/>
</g>
<g id="Vector">
<use xlink:href="#path2_fill" transform="translate(278.727 -120.665)" fill="#6F7D95"/>
</g>
<g id="Vector">
<use xlink:href="#path3_fill" transform="translate(267 -137)" fill="#6F7D95"/>
</g>
<g id="Vector">
<use xlink:href="#path4_fill" transform="translate(278.727 -109.496)" fill="#6F7D95"/>
</g>
</g>
</g>
</g>
<defs>
<path id="path0_fill" d="M 0.878085 0.00238134C 0.867783 0.0015476 0.857462 0.00081596 0.84716 -7.67469e-07C 0.566456 0.781795 0.285549 1.5635 -9.94772e-07 2.35798C 0.456978 2.35798 0.897458 2.35798 1.36464 2.35798C 1.20064 1.56452 1.03931 0.783547 0.878085 0.00238134Z"/>
<path id="path1_fill" d="M 37.2731 0L 0 0L 0 4.48143L 37.2731 4.48143L 37.2731 0Z"/>
<path id="path2_fill" d="M 32.6285 8.18356e-07L 4.64461 8.18356e-07C 2.08397 8.18356e-07 -1.42464e-06 2.09948 -1.42464e-06 4.68L -1.42464e-06 4.98575L 37.2731 4.98575L 37.2731 4.68C 37.2731 2.09948 35.1892 8.18356e-07 32.6285 8.18356e-07Z"/>
<path id="path3_fill" d="M 16.3715 15.4844L 37.6592 15.4844L 35.3062 11.6602C 35.1833 11.4599 35.2443 11.1982 35.4422 11.0744C 35.641 10.9523 35.8999 11.0121 36.0236 11.2115L 38.6527 15.4844L 40.3729 15.4844L 38.7344 12.5334L 32.527 2.23535C 31.1844 0.0444778 28.3154 -0.658383 26.1308 0.676728L 2.23315 15.3099C 0.0469249 16.6592 -0.654882 19.5496 0.669557 21.7529L 10.8824 37.2244L 10.8824 21.0152C 10.8824 17.9661 13.3449 15.4844 16.3715 15.4844ZM 14.859 9.26659L 15.8767 8.5363C 16.0655 8.40088 16.3302 8.44575 16.4655 8.63599C 16.6007 8.82708 16.5562 9.09294 16.3665 9.2292L 15.3489 9.95949C 15.2746 10.0127 15.1889 10.0384 15.1039 10.0384C 14.972 10.0384 14.8425 9.97611 14.76 9.85979C 14.6248 9.6687 14.6693 9.40283 14.859 9.26659ZM 3.37861 17.2391C 2.72794 17.7484 2.36261 18.3682 2.2991 19.111C 2.15232 20.8307 3.70353 22.5589 3.71921 22.5755C 3.87672 22.7483 3.86518 23.0175 3.69363 23.177C 3.61282 23.2518 3.51055 23.2883 3.40829 23.2883C 3.29449 23.2883 3.18067 23.2418 3.09739 23.1504C 3.02235 23.069 1.27896 21.1265 1.45792 19.0379C 1.54122 18.0591 2.02695 17.2184 2.90029 16.5396L 12.695 10.5112C 12.893 10.3882 13.1527 10.4513 13.2756 10.6524C 13.3968 10.8535 13.3342 11.1152 13.1354 11.2373L 3.37861 17.2391Z"/>
<path id="path4_fill" d="M -1.42464e-06 9.81695C -1.42464e-06 12.3975 2.08397 14.4961 4.64461 14.4961L 32.6285 14.4961C 35.1892 14.4961 37.2731 12.3975 37.2731 9.81695L 37.2731 -1.46432e-06L -1.42464e-06 -1.46432e-06L -1.42464e-06 9.81695ZM 19.2939 4.85945C 19.441 4.50333 19.6925 4.33114 20.0777 4.33842C 20.5163 4.34693 20.9553 4.3405 21.4063 4.3405C 21.845 6.4595 22.2825 8.57134 22.7228 10.6975C 22.663 10.7023 22.6185 10.7087 22.5741 10.7089C 22.173 10.7096 21.7717 10.706 21.3706 10.7116C 21.2592 10.7132 21.2084 10.6863 21.1897 10.5643C 21.1523 10.3215 21.0906 10.0826 21.0434 9.84135C 21.0301 9.77271 20.9975 9.75214 20.9313 9.75234C 20.2895 9.75431 19.6475 9.75525 19.0057 9.75234C 18.9292 9.75193 18.9047 9.78889 18.8831 9.85049C 18.793 10.1066 18.703 10.3627 18.6053 10.6157C 18.5897 10.6557 18.535 10.7076 18.4979 10.7081C 17.9702 10.7133 17.4423 10.7108 16.9145 10.7095C 16.9027 10.7095 16.8908 10.7036 16.8693 10.6978C 17.0365 10.2961 17.2021 9.89794 17.3675 9.49977C 18.0101 7.95311 18.6543 6.40726 19.2939 4.85945ZM 12.8426 9.20651C 13.4012 9.4459 13.9801 9.55567 14.5827 9.44246C 14.7386 9.41318 14.8976 9.33902 15.0281 9.2466C 15.2892 9.06205 15.3106 8.72817 15.0783 8.50905C 14.9476 8.38587 14.7899 8.28899 14.6356 8.19489C 14.3079 7.99539 13.9563 7.83099 13.6467 7.60688C 12.603 6.85073 12.8808 5.65591 13.4597 5.04826C 13.8875 4.59932 14.427 4.3781 15.0215 4.2756C 15.7518 4.14974 16.4662 4.22804 17.1643 4.47271C 17.1874 4.4808 17.2093 4.49296 17.2392 4.50657C 17.1443 4.95303 17.0503 5.39575 16.9548 5.84428C 16.4979 5.64146 16.0291 5.53117 15.5359 5.5455C 15.3192 5.55172 15.1081 5.58766 14.9166 5.69982C 14.5957 5.88769 14.5529 6.2115 14.837 6.44932C 14.9975 6.58361 15.1891 6.68092 15.3692 6.79027C 15.6577 6.96558 15.9608 7.11918 16.2362 7.31339C 17.0161 7.86328 17.091 8.7103 16.7619 9.46645C 16.4966 10.0762 15.9913 10.4176 15.3836 10.6196C 14.7973 10.8142 14.1946 10.8476 13.5837 10.7833C 13.1798 10.7407 12.7819 10.673 12.4004 10.5277C 12.3614 10.5129 12.3234 10.4957 12.274 10.4752C 12.3737 10.0072 12.4703 9.55223 12.5702 9.08324C 12.6681 9.12768 12.7546 9.16891 12.8426 9.20651ZM 12.4935 4.34424C 12.4086 4.75103 12.3263 5.14952 12.2419 5.54757C 11.8895 7.20806 11.5374 8.86868 11.183 10.5287C 11.1359 10.7497 11.1864 10.7122 10.9525 10.7133C 10.5176 10.7154 10.0827 10.714 9.64766 10.714C 9.60674 10.714 9.56571 10.714 9.51168 10.714C 9.96434 8.58214 10.4134 6.46699 10.864 4.34424C 11.4141 4.34424 11.9491 4.34424 12.4935 4.34424ZM 2.46672 4.4698C 2.48002 4.43065 2.49353 4.39149 2.51064 4.34154C 2.55094 4.33946 2.5964 4.33521 2.64207 4.33521C 3.51604 4.3349 4.3903 4.33417 5.26425 4.33573C 5.67741 4.33636 5.96244 4.56713 6.04069 4.97734C 6.2545 6.09905 6.46241 7.2218 6.67292 8.34403C 6.69065 8.43906 6.70952 8.53407 6.73559 8.66846C 6.77013 8.58558 6.79126 8.53729 6.81053 8.48849C 7.34049 7.1381 7.87035 5.78781 8.4 4.43731C 8.42175 4.38154 8.43711 4.33305 8.51875 4.33388C 9.04243 4.33846 9.566 4.33689 10.0896 4.33793C 10.1051 4.33793 10.1207 4.34375 10.1493 4.34967C 10.0246 4.65354 9.90348 4.95087 9.78041 5.24737C 9.03994 7.02957 8.29816 8.81106 7.56058 10.5944C 7.52141 10.6888 7.47378 10.7189 7.3741 10.7178C 6.88856 10.7125 6.40294 10.7115 5.9174 10.7181C 5.80782 10.7197 5.76576 10.6855 5.73876 10.5797C 5.31899 8.92624 4.8914 7.27498 4.47483 5.62092C 4.40175 5.32993 4.25537 5.12846 3.98158 5.00508C 3.49408 4.78563 2.98876 4.62809 2.46674 4.52081C 2.46673 4.50386 2.46672 4.48683 2.46672 4.4698Z"/>
</defs>
</svg>
