<svg width="1548" height="918" viewBox="0 0 1548 918" version="1.1" xmlns="http://www.w3.org/2000/svg" xmlns:xlink="http://www.w3.org/1999/xlink">
<title>Page 1</title>
<desc>Created using Figma</desc>
<g id="Canvas" transform="translate(-15455 -3027)">
<g id="Group 4.1">
<g id="Group 2">
<g id="Rectangle 2.1">
<use xlink:href="#path0_fill" transform="translate(15571.1 3029.09)" fill="#E0E0E0"/>
</g>
<g id="Rectangle 2.2">
<use xlink:href="#path0_fill" transform="translate(15571.1 3240.72)" fill="#E0E0E0"/>
</g>
<g id="Rectangle 2.3">
<use xlink:href="#path0_fill" transform="translate(15571.1 3452.36)" fill="#E0E0E0"/>
</g>
<g id="Rectangle 2.4">
<use xlink:href="#path0_fill" transform="translate(15571.1 3663.99)" fill="#E0E0E0"/>
</g>
<g id="Rectangle 2.5">
<use xlink:href="#path0_fill" transform="translate(15571.1 3875.62)" fill="#E0E0E0"/>
</g>
</g>
<g id="Group 3">
<g id="400,00">
<use xlink:href="#path1_fill" transform="translate(15367 3020)" fill="#FFFFFF"/>
</g>
<g id="300,00">
<use xlink:href="#path2_fill" transform="translate(15391.8 3231.68)" fill="#FFFFFF"/>
</g>
<g id="200,00">
<use xlink:href="#path3_fill" transform="translate(15391.8 3440.18)" fill="#FFFFFF"/>
</g>
<g id="100,00">
<use xlink:href="#path4_fill" transform="translate(15391.8 3655.05)" fill="#FFFFFF"/>
</g>
<g id="0,00">
<use xlink:href="#path5_fill" transform="translate(15391.4 3861.35)" fill="#FFFFFF"/>
</g>
</g>
<g id="Vector">
<use xlink:href="#path6_stroke" transform="translate(15572 3241.5)" fill="#BDBDBD"/>
</g>
<g id="Ellipse">
<g id="Ellipse">
<use xlink:href="#path7_fill" transform="translate(16833 3211.83)" fill="#FFFFFF"/>
<mask id="mask0_outline_ins">
<use xlink:href="#path7_fill" fill="white" transform="translate(16833 3211.83)"/>
</mask>
<g mask="url(#mask0_outline_ins)">
<use xlink:href="#path8_stroke_2x" transform="translate(16833 3211.83)" fill="#5E5E5E" fill-opacity="0.2"/>
</g>
</g>
</g>
<g id="Ellipse">
<g id="Ellipse">
<use xlink:href="#path7_fill" transform="translate(16544.9 3222.83)" fill="#FFFFFF"/>
<mask id="mask1_outline_ins">
<use xlink:href="#path7_fill" fill="white" transform="translate(16544.9 3222.83)"/>
</mask>
<g mask="url(#mask1_outline_ins)">
<use xlink:href="#path8_stroke_2x" transform="translate(16544.9 3222.83)" fill="#5E5E5E" fill-opacity="0.2"/>
</g>
</g>
</g>
<g id="Ellipse">
<g id="Ellipse">
<use xlink:href="#path7_fill" transform="translate(16257 3253.83)" fill="#FFFFFF"/>
<mask id="mask2_outline_ins">
<use xlink:href="#path7_fill" fill="white" transform="translate(16257 3253.83)"/>
</mask>
<g mask="url(#mask2_outline_ins)">
<use xlink:href="#path8_stroke_2x" transform="translate(16257 3253.83)" fill="#5E5E5E" fill-opacity="0.2"/>
</g>
</g>
</g>
<g id="Ellipse">
<g id="Ellipse">
<use xlink:href="#path7_fill" transform="translate(15969.1 3735.83)" fill="#FFFFFF"/>
<mask id="mask3_outline_ins">
<use xlink:href="#path7_fill" fill="white" transform="translate(15969.1 3735.83)"/>
</mask>
<g mask="url(#mask3_outline_ins)">
<use xlink:href="#path8_stroke_2x" transform="translate(15969.1 3735.83)" fill="#5E5E5E" fill-opacity="0.2"/>
</g>
</g>
</g>
<g id="Ellipse">
<g id="Ellipse">
<use xlink:href="#path7_fill" transform="translate(15680.3 3818.83)" fill="#FFFFFF"/>
<mask id="mask4_outline_ins">
<use xlink:href="#path7_fill" fill="white" transform="translate(15680.3 3818.83)"/>
</mask>
<g mask="url(#mask4_outline_ins)">
<use xlink:href="#path8_stroke_2x" transform="translate(15680.3 3818.83)" fill="#5E5E5E" fill-opacity="0.2"/>
</g>
</g>
</g>
</g>
<g id="Group 4.2">
<g id="JAN">
<use xlink:href="#path9_fill" transform="translate(15571.1 3911.14)" fill="#FFFFFF"/>
</g>
<g id="APR">
<use xlink:href="#path10_fill" transform="translate(15859.3 3911.14)" fill="#FFFFFF"/>
</g>
<g id="JUL">
<use xlink:href="#path11_fill" transform="translate(16147.5 3911.14)" fill="#FFFFFF"/>
</g>
<g id="NOV">
<use xlink:href="#path12_fill" transform="translate(16723.4 3911.14)" fill="#FFFFFF"/>
</g>
<g id="OCT">
<use xlink:href="#path13_fill" transform="translate(16435.7 3911.14)" fill="#FFFFFF"/>
</g>
</g>
</g>
<defs>
<path id="path0_fill" d="M 0 0L 1431.86 0L 1431.86 5.64351L 0 5.64351L 0 0Z"/>
<path id="path1_fill" d="M 102.98 24.4043L 106.531 24.4043L 106.531 27.0586L 102.98 27.0586L 102.98 33L 99.7105 33L 99.7105 27.0586L 88.0562 27.0586L 88.0562 25.1426L 99.5172 7.40625L 102.98 7.40625L 102.98 24.4043ZM 91.7476 24.4043L 99.7105 24.4043L 99.7105 11.8535L 99.3238 12.5566L 91.7476 24.4043ZM 125.515 22.084C 125.515 25.8926 124.865 28.7227 123.564 30.5742C 122.263 32.4258 120.23 33.3516 117.464 33.3516C 114.734 33.3516 112.712 32.4492 111.4 30.6445C 110.087 28.8281 109.408 26.1211 109.361 22.5234L 109.361 18.1816C 109.361 14.4199 110.011 11.625 111.312 9.79688C 112.613 7.96875 114.652 7.05469 117.429 7.05469C 120.183 7.05469 122.211 7.93945 123.511 9.70898C 124.812 11.4668 125.48 14.1855 125.515 17.8652L 125.515 22.084ZM 122.263 17.6367C 122.263 14.8828 121.877 12.8789 121.103 11.625C 120.33 10.3594 119.105 9.72656 117.429 9.72656C 115.765 9.72656 114.552 10.3535 113.791 11.6074C 113.029 12.8613 112.636 14.7891 112.613 17.3906L 112.613 22.5938C 112.613 25.3594 113.011 27.4043 113.808 28.7285C 114.617 30.041 115.836 30.6973 117.464 30.6973C 119.07 30.6973 120.259 30.0762 121.033 28.834C 121.818 27.5918 122.228 25.6348 122.263 22.9629L 122.263 17.6367ZM 145.73 22.084C 145.73 25.8926 145.08 28.7227 143.779 30.5742C 142.478 32.4258 140.445 33.3516 137.679 33.3516C 134.949 33.3516 132.927 32.4492 131.615 30.6445C 130.302 28.8281 129.623 26.1211 129.576 22.5234L 129.576 18.1816C 129.576 14.4199 130.226 11.625 131.527 9.79688C 132.828 7.96875 134.867 7.05469 137.644 7.05469C 140.398 7.05469 142.425 7.93945 143.726 9.70898C 145.027 11.4668 145.695 14.1855 145.73 17.8652L 145.73 22.084ZM 142.478 17.6367C 142.478 14.8828 142.091 12.8789 141.318 11.625C 140.545 10.3594 139.32 9.72656 137.644 9.72656C 135.98 9.72656 134.767 10.3535 134.005 11.6074C 133.244 12.8613 132.851 14.7891 132.828 17.3906L 132.828 22.5938C 132.828 25.3594 133.226 27.4043 134.023 28.7285C 134.832 30.041 136.05 30.6973 137.679 30.6973C 139.285 30.6973 140.474 30.0762 141.248 28.834C 142.033 27.5918 142.443 25.6348 142.478 22.9629L 142.478 17.6367ZM 150.125 38.0977L 148.279 36.832C 149.38 35.2969 149.955 33.7148 150.002 32.0859L 150.002 29.1504L 153.183 29.1504L 153.183 31.6992C 153.183 32.8828 152.89 34.0664 152.304 35.25C 151.73 36.4336 151.003 37.3828 150.125 38.0977ZM 173.011 22.084C 173.011 25.8926 172.361 28.7227 171.06 30.5742C 169.759 32.4258 167.726 33.3516 164.961 33.3516C 162.23 33.3516 160.209 32.4492 158.896 30.6445C 157.584 28.8281 156.904 26.1211 156.857 22.5234L 156.857 18.1816C 156.857 14.4199 157.507 11.625 158.808 9.79688C 160.109 7.96875 162.148 7.05469 164.925 7.05469C 167.679 7.05469 169.707 7.93945 171.007 9.70898C 172.308 11.4668 172.976 14.1855 173.011 17.8652L 173.011 22.084ZM 169.759 17.6367C 169.759 14.8828 169.373 12.8789 168.599 11.625C 167.826 10.3594 166.601 9.72656 164.925 9.72656C 163.261 9.72656 162.048 10.3535 161.287 11.6074C 160.525 12.8613 160.132 14.7891 160.109 17.3906L 160.109 22.5938C 160.109 25.3594 160.507 27.4043 161.304 28.7285C 162.113 30.041 163.332 30.6973 164.961 30.6973C 166.566 30.6973 167.755 30.0762 168.529 28.834C 169.314 27.5918 169.724 25.6348 169.759 22.9629L 169.759 17.6367ZM 193.226 22.084C 193.226 25.8926 192.576 28.7227 191.275 30.5742C 189.974 32.4258 187.941 33.3516 185.175 33.3516C 182.445 33.3516 180.423 32.4492 179.111 30.6445C 177.798 28.8281 177.119 26.1211 177.072 22.5234L 177.072 18.1816C 177.072 14.4199 177.722 11.625 179.023 9.79688C 180.324 7.96875 182.363 7.05469 185.14 7.05469C 187.894 7.05469 189.921 7.93945 191.222 9.70898C 192.523 11.4668 193.191 14.1855 193.226 17.8652L 193.226 22.084ZM 189.974 17.6367C 189.974 14.8828 189.587 12.8789 188.814 11.625C 188.041 10.3594 186.816 9.72656 185.14 9.72656C 183.476 9.72656 182.263 10.3535 181.502 11.6074C 180.74 12.8613 180.347 14.7891 180.324 17.3906L 180.324 22.5938C 180.324 25.3594 180.722 27.4043 181.519 28.7285C 182.328 30.041 183.546 30.6973 185.175 30.6973C 186.781 30.6973 187.97 30.0762 188.744 28.834C 189.529 27.5918 189.939 25.6348 189.974 22.9629L 189.974 17.6367Z"/>
<path id="path2_fill" d="M 69.2182 18.6211L 71.6615 18.6211C 73.1967 18.5977 74.4037 18.1934 75.2826 17.4082C 76.1615 16.623 76.601 15.5625 76.601 14.2266C 76.601 11.2266 75.1068 9.72656 72.1186 9.72656C 70.7123 9.72656 69.5873 10.1309 68.7436 10.9395C 67.9115 11.7363 67.4955 12.7969 67.4955 14.1211L 64.2436 14.1211C 64.2436 12.0937 64.9818 10.4121 66.4584 9.07617C 67.9467 7.72852 69.8334 7.05469 72.1186 7.05469C 74.5326 7.05469 76.4252 7.69336 77.7963 8.9707C 79.1674 10.248 79.8529 12.0234 79.8529 14.2969C 79.8529 15.4102 79.4897 16.4883 78.7631 17.5312C 78.0482 18.5742 77.0697 19.3535 75.8275 19.8691C 77.2338 20.3145 78.3178 21.0527 79.0795 22.084C 79.8529 23.1152 80.2397 24.375 80.2397 25.8633C 80.2397 28.1602 79.4897 29.9824 77.9897 31.3301C 76.4897 32.6777 74.5385 33.3516 72.1361 33.3516C 69.7338 33.3516 67.7768 32.7012 66.265 31.4004C 64.765 30.0996 64.015 28.3828 64.015 26.25L 67.2846 26.25C 67.2846 27.5977 67.724 28.6758 68.6029 29.4844C 69.4818 30.293 70.6596 30.6973 72.1361 30.6973C 73.7065 30.6973 74.9076 30.2871 75.7397 29.4668C 76.5717 28.6465 76.9877 27.4688 76.9877 25.9336C 76.9877 24.4453 76.5307 23.3027 75.6166 22.5059C 74.7025 21.709 73.3842 21.2988 71.6615 21.2754L 69.2182 21.2754L 69.2182 18.6211ZM 100.753 22.084C 100.753 25.8926 100.103 28.7227 98.8022 30.5742C 97.5014 32.4258 95.4682 33.3516 92.7025 33.3516C 89.9721 33.3516 87.9506 32.4492 86.6381 30.6445C 85.3256 28.8281 84.6459 26.1211 84.599 22.5234L 84.599 18.1816C 84.599 14.4199 85.2494 11.625 86.5502 9.79688C 87.851 7.96875 89.89 7.05469 92.6674 7.05469C 95.4213 7.05469 97.4486 7.93945 98.7494 9.70898C 100.05 11.4668 100.718 14.1855 100.753 17.8652L 100.753 22.084ZM 97.5014 17.6367C 97.5014 14.8828 97.1147 12.8789 96.3412 11.625C 95.5678 10.3594 94.3432 9.72656 92.6674 9.72656C 91.0033 9.72656 89.7904 10.3535 89.0287 11.6074C 88.267 12.8613 87.8744 14.7891 87.851 17.3906L 87.851 22.5938C 87.851 25.3594 88.2494 27.4043 89.0463 28.7285C 89.8549 30.041 91.0736 30.6973 92.7025 30.6973C 94.308 30.6973 95.4975 30.0762 96.2709 28.834C 97.0561 27.5918 97.4662 25.6348 97.5014 22.9629L 97.5014 17.6367ZM 120.968 22.084C 120.968 25.8926 120.318 28.7227 119.017 30.5742C 117.716 32.4258 115.683 33.3516 112.917 33.3516C 110.187 33.3516 108.165 32.4492 106.853 30.6445C 105.54 28.8281 104.861 26.1211 104.814 22.5234L 104.814 18.1816C 104.814 14.4199 105.464 11.625 106.765 9.79688C 108.066 7.96875 110.105 7.05469 112.882 7.05469C 115.636 7.05469 117.663 7.93945 118.964 9.70898C 120.265 11.4668 120.933 14.1855 120.968 17.8652L 120.968 22.084ZM 117.716 17.6367C 117.716 14.8828 117.329 12.8789 116.556 11.625C 115.783 10.3594 114.558 9.72656 112.882 9.72656C 111.218 9.72656 110.005 10.3535 109.244 11.6074C 108.482 12.8613 108.089 14.7891 108.066 17.3906L 108.066 22.5938C 108.066 25.3594 108.464 27.4043 109.261 28.7285C 110.07 30.041 111.288 30.6973 112.917 30.6973C 114.523 30.6973 115.712 30.0762 116.486 28.834C 117.271 27.5918 117.681 25.6348 117.716 22.9629L 117.716 17.6367ZM 125.363 38.0977L 123.517 36.832C 124.619 35.2969 125.193 33.7148 125.24 32.0859L 125.24 29.1504L 128.421 29.1504L 128.421 31.6992C 128.421 32.8828 128.128 34.0664 127.542 35.25C 126.968 36.4336 126.242 37.3828 125.363 38.0977ZM 148.249 22.084C 148.249 25.8926 147.599 28.7227 146.298 30.5742C 144.997 32.4258 142.964 33.3516 140.199 33.3516C 137.468 33.3516 135.447 32.4492 134.134 30.6445C 132.822 28.8281 132.142 26.1211 132.095 22.5234L 132.095 18.1816C 132.095 14.4199 132.746 11.625 134.046 9.79688C 135.347 7.96875 137.386 7.05469 140.163 7.05469C 142.917 7.05469 144.945 7.93945 146.246 9.70898C 147.546 11.4668 148.214 14.1855 148.249 17.8652L 148.249 22.084ZM 144.997 17.6367C 144.997 14.8828 144.611 12.8789 143.837 11.625C 143.064 10.3594 141.839 9.72656 140.163 9.72656C 138.499 9.72656 137.287 10.3535 136.525 11.6074C 135.763 12.8613 135.371 14.7891 135.347 17.3906L 135.347 22.5938C 135.347 25.3594 135.746 27.4043 136.542 28.7285C 137.351 30.041 138.57 30.6973 140.199 30.6973C 141.804 30.6973 142.994 30.0762 143.767 28.834C 144.552 27.5918 144.962 25.6348 144.997 22.9629L 144.997 17.6367ZM 168.464 22.084C 168.464 25.8926 167.814 28.7227 166.513 30.5742C 165.212 32.4258 163.179 33.3516 160.413 33.3516C 157.683 33.3516 155.662 32.4492 154.349 30.6445C 153.037 28.8281 152.357 26.1211 152.31 22.5234L 152.31 18.1816C 152.31 14.4199 152.96 11.625 154.261 9.79688C 155.562 7.96875 157.601 7.05469 160.378 7.05469C 163.132 7.05469 165.16 7.93945 166.46 9.70898C 167.761 11.4668 168.429 14.1855 168.464 17.8652L 168.464 22.084ZM 165.212 17.6367C 165.212 14.8828 164.826 12.8789 164.052 11.625C 163.279 10.3594 162.054 9.72656 160.378 9.72656C 158.714 9.72656 157.501 10.3535 156.74 11.6074C 155.978 12.8613 155.585 14.7891 155.562 17.3906L 155.562 22.5938C 155.562 25.3594 155.96 27.4043 156.757 28.7285C 157.566 30.041 158.785 30.6973 160.413 30.6973C 162.019 30.6973 163.208 30.0762 163.982 28.834C 164.767 27.5918 165.177 25.6348 165.212 22.9629L 165.212 17.6367Z"/>
<path id="path3_fill" d="M 81.2592 33L 64.4897 33L 64.4897 30.6621L 73.349 20.8184C 74.6615 19.3301 75.5639 18.123 76.0561 17.1973C 76.56 16.2598 76.8119 15.293 76.8119 14.2969C 76.8119 12.9609 76.4076 11.8652 75.599 11.0098C 74.7904 10.1543 73.7123 9.72656 72.3647 9.72656C 70.7475 9.72656 69.4877 10.1895 68.5854 11.1152C 67.6947 12.0293 67.2494 13.3066 67.2494 14.9473L 63.9975 14.9473C 63.9975 12.5918 64.7533 10.6875 66.265 9.23438C 67.7885 7.78125 69.8217 7.05469 72.3647 7.05469C 74.7436 7.05469 76.6244 7.68164 78.0072 8.93555C 79.39 10.1777 80.0815 11.8359 80.0815 13.9102C 80.0815 16.4297 78.476 19.4297 75.265 22.9102L 68.4096 30.3457L 81.2592 30.3457L 81.2592 33ZM 100.753 22.084C 100.753 25.8926 100.103 28.7227 98.8022 30.5742C 97.5014 32.4258 95.4682 33.3516 92.7025 33.3516C 89.9721 33.3516 87.9506 32.4492 86.6381 30.6445C 85.3256 28.8281 84.6459 26.1211 84.599 22.5234L 84.599 18.1816C 84.599 14.4199 85.2494 11.625 86.5502 9.79688C 87.851 7.96875 89.89 7.05469 92.6674 7.05469C 95.4213 7.05469 97.4486 7.93945 98.7494 9.70898C 100.05 11.4668 100.718 14.1855 100.753 17.8652L 100.753 22.084ZM 97.5014 17.6367C 97.5014 14.8828 97.1147 12.8789 96.3412 11.625C 95.5678 10.3594 94.3432 9.72656 92.6674 9.72656C 91.0033 9.72656 89.7904 10.3535 89.0287 11.6074C 88.267 12.8613 87.8744 14.7891 87.851 17.3906L 87.851 22.5938C 87.851 25.3594 88.2494 27.4043 89.0463 28.7285C 89.8549 30.041 91.0736 30.6973 92.7025 30.6973C 94.308 30.6973 95.4975 30.0762 96.2709 28.834C 97.0561 27.5918 97.4662 25.6348 97.5014 22.9629L 97.5014 17.6367ZM 120.968 22.084C 120.968 25.8926 120.318 28.7227 119.017 30.5742C 117.716 32.4258 115.683 33.3516 112.917 33.3516C 110.187 33.3516 108.165 32.4492 106.853 30.6445C 105.54 28.8281 104.861 26.1211 104.814 22.5234L 104.814 18.1816C 104.814 14.4199 105.464 11.625 106.765 9.79688C 108.066 7.96875 110.105 7.05469 112.882 7.05469C 115.636 7.05469 117.663 7.93945 118.964 9.70898C 120.265 11.4668 120.933 14.1855 120.968 17.8652L 120.968 22.084ZM 117.716 17.6367C 117.716 14.8828 117.329 12.8789 116.556 11.625C 115.783 10.3594 114.558 9.72656 112.882 9.72656C 111.218 9.72656 110.005 10.3535 109.244 11.6074C 108.482 12.8613 108.089 14.7891 108.066 17.3906L 108.066 22.5938C 108.066 25.3594 108.464 27.4043 109.261 28.7285C 110.07 30.041 111.288 30.6973 112.917 30.6973C 114.523 30.6973 115.712 30.0762 116.486 28.834C 117.271 27.5918 117.681 25.6348 117.716 22.9629L 117.716 17.6367ZM 125.363 38.0977L 123.517 36.832C 124.619 35.2969 125.193 33.7148 125.24 32.0859L 125.24 29.1504L 128.421 29.1504L 128.421 31.6992C 128.421 32.8828 128.128 34.0664 127.542 35.25C 126.968 36.4336 126.242 37.3828 125.363 38.0977ZM 148.249 22.084C 148.249 25.8926 147.599 28.7227 146.298 30.5742C 144.997 32.4258 142.964 33.3516 140.199 33.3516C 137.468 33.3516 135.447 32.4492 134.134 30.6445C 132.822 28.8281 132.142 26.1211 132.095 22.5234L 132.095 18.1816C 132.095 14.4199 132.746 11.625 134.046 9.79688C 135.347 7.96875 137.386 7.05469 140.163 7.05469C 142.917 7.05469 144.945 7.93945 146.246 9.70898C 147.546 11.4668 148.214 14.1855 148.249 17.8652L 148.249 22.084ZM 144.997 17.6367C 144.997 14.8828 144.611 12.8789 143.837 11.625C 143.064 10.3594 141.839 9.72656 140.163 9.72656C 138.499 9.72656 137.287 10.3535 136.525 11.6074C 135.763 12.8613 135.371 14.7891 135.347 17.3906L 135.347 22.5938C 135.347 25.3594 135.746 27.4043 136.542 28.7285C 137.351 30.041 138.57 30.6973 140.199 30.6973C 141.804 30.6973 142.994 30.0762 143.767 28.834C 144.552 27.5918 144.962 25.6348 144.997 22.9629L 144.997 17.6367ZM 168.464 22.084C 168.464 25.8926 167.814 28.7227 166.513 30.5742C 165.212 32.4258 163.179 33.3516 160.413 33.3516C 157.683 33.3516 155.662 32.4492 154.349 30.6445C 153.037 28.8281 152.357 26.1211 152.31 22.5234L 152.31 18.1816C 152.31 14.4199 152.96 11.625 154.261 9.79688C 155.562 7.96875 157.601 7.05469 160.378 7.05469C 163.132 7.05469 165.16 7.93945 166.46 9.70898C 167.761 11.4668 168.429 14.1855 168.464 17.8652L 168.464 22.084ZM 165.212 17.6367C 165.212 14.8828 164.826 12.8789 164.052 11.625C 163.279 10.3594 162.054 9.72656 160.378 9.72656C 158.714 9.72656 157.501 10.3535 156.74 11.6074C 155.978 12.8613 155.585 14.7891 155.562 17.3906L 155.562 22.5938C 155.562 25.3594 155.96 27.4043 156.757 28.7285C 157.566 30.041 158.785 30.6973 160.413 30.6973C 162.019 30.6973 163.208 30.0762 163.982 28.834C 164.767 27.5918 165.177 25.6348 165.212 22.9629L 165.212 17.6367Z"/>
<path id="path4_fill" d="M 75.1772 33L 71.9076 33L 71.9076 11.3262L 65.351 13.7344L 65.351 10.7812L 74.6674 7.2832L 75.1772 7.2832L 75.1772 33ZM 100.753 22.084C 100.753 25.8926 100.103 28.7227 98.8022 30.5742C 97.5014 32.4258 95.4682 33.3516 92.7025 33.3516C 89.9721 33.3516 87.9506 32.4492 86.6381 30.6445C 85.3256 28.8281 84.6459 26.1211 84.599 22.5234L 84.599 18.1816C 84.599 14.4199 85.2494 11.625 86.5502 9.79688C 87.851 7.96875 89.89 7.05469 92.6674 7.05469C 95.4213 7.05469 97.4486 7.93945 98.7494 9.70898C 100.05 11.4668 100.718 14.1855 100.753 17.8652L 100.753 22.084ZM 97.5014 17.6367C 97.5014 14.8828 97.1147 12.8789 96.3412 11.625C 95.5678 10.3594 94.3432 9.72656 92.6674 9.72656C 91.0033 9.72656 89.7904 10.3535 89.0287 11.6074C 88.267 12.8613 87.8744 14.7891 87.851 17.3906L 87.851 22.5938C 87.851 25.3594 88.2494 27.4043 89.0463 28.7285C 89.8549 30.041 91.0736 30.6973 92.7025 30.6973C 94.308 30.6973 95.4975 30.0762 96.2709 28.834C 97.0561 27.5918 97.4662 25.6348 97.5014 22.9629L 97.5014 17.6367ZM 120.968 22.084C 120.968 25.8926 120.318 28.7227 119.017 30.5742C 117.716 32.4258 115.683 33.3516 112.917 33.3516C 110.187 33.3516 108.165 32.4492 106.853 30.6445C 105.54 28.8281 104.861 26.1211 104.814 22.5234L 104.814 18.1816C 104.814 14.4199 105.464 11.625 106.765 9.79688C 108.066 7.96875 110.105 7.05469 112.882 7.05469C 115.636 7.05469 117.663 7.93945 118.964 9.70898C 120.265 11.4668 120.933 14.1855 120.968 17.8652L 120.968 22.084ZM 117.716 17.6367C 117.716 14.8828 117.329 12.8789 116.556 11.625C 115.783 10.3594 114.558 9.72656 112.882 9.72656C 111.218 9.72656 110.005 10.3535 109.244 11.6074C 108.482 12.8613 108.089 14.7891 108.066 17.3906L 108.066 22.5938C 108.066 25.3594 108.464 27.4043 109.261 28.7285C 110.07 30.041 111.288 30.6973 112.917 30.6973C 114.523 30.6973 115.712 30.0762 116.486 28.834C 117.271 27.5918 117.681 25.6348 117.716 22.9629L 117.716 17.6367ZM 125.363 38.0977L 123.517 36.832C 124.619 35.2969 125.193 33.7148 125.24 32.0859L 125.24 29.1504L 128.421 29.1504L 128.421 31.6992C 128.421 32.8828 128.128 34.0664 127.542 35.25C 126.968 36.4336 126.242 37.3828 125.363 38.0977ZM 148.249 22.084C 148.249 25.8926 147.599 28.7227 146.298 30.5742C 144.997 32.4258 142.964 33.3516 140.199 33.3516C 137.468 33.3516 135.447 32.4492 134.134 30.6445C 132.822 28.8281 132.142 26.1211 132.095 22.5234L 132.095 18.1816C 132.095 14.4199 132.746 11.625 134.046 9.79688C 135.347 7.96875 137.386 7.05469 140.163 7.05469C 142.917 7.05469 144.945 7.93945 146.246 9.70898C 147.546 11.4668 148.214 14.1855 148.249 17.8652L 148.249 22.084ZM 144.997 17.6367C 144.997 14.8828 144.611 12.8789 143.837 11.625C 143.064 10.3594 141.839 9.72656 140.163 9.72656C 138.499 9.72656 137.287 10.3535 136.525 11.6074C 135.763 12.8613 135.371 14.7891 135.347 17.3906L 135.347 22.5938C 135.347 25.3594 135.746 27.4043 136.542 28.7285C 137.351 30.041 138.57 30.6973 140.199 30.6973C 141.804 30.6973 142.994 30.0762 143.767 28.834C 144.552 27.5918 144.962 25.6348 144.997 22.9629L 144.997 17.6367ZM 168.464 22.084C 168.464 25.8926 167.814 28.7227 166.513 30.5742C 165.212 32.4258 163.179 33.3516 160.413 33.3516C 157.683 33.3516 155.662 32.4492 154.349 30.6445C 153.037 28.8281 152.357 26.1211 152.31 22.5234L 152.31 18.1816C 152.31 14.4199 152.96 11.625 154.261 9.79688C 155.562 7.96875 157.601 7.05469 160.378 7.05469C 163.132 7.05469 165.16 7.93945 166.46 9.70898C 167.761 11.4668 168.429 14.1855 168.464 17.8652L 168.464 22.084ZM 165.212 17.6367C 165.212 14.8828 164.826 12.8789 164.052 11.625C 163.279 10.3594 162.054 9.72656 160.378 9.72656C 158.714 9.72656 157.501 10.3535 156.74 11.6074C 155.978 12.8613 155.585 14.7891 155.562 17.3906L 155.562 22.5938C 155.562 25.3594 155.96 27.4043 156.757 28.7285C 157.566 30.041 158.785 30.6973 160.413 30.6973C 162.019 30.6973 163.208 30.0762 163.982 28.834C 164.767 27.5918 165.177 25.6348 165.212 22.9629L 165.212 17.6367Z"/>
<path id="path5_fill" d="M 121.351 22.084C 121.351 25.8926 120.701 28.7227 119.4 30.5742C 118.099 32.4258 116.066 33.3516 113.3 33.3516C 110.57 33.3516 108.548 32.4492 107.236 30.6445C 105.923 28.8281 105.244 26.1211 105.197 22.5234L 105.197 18.1816C 105.197 14.4199 105.847 11.625 107.148 9.79688C 108.449 7.96875 110.488 7.05469 113.265 7.05469C 116.019 7.05469 118.047 7.93945 119.347 9.70898C 120.648 11.4668 121.316 14.1855 121.351 17.8652L 121.351 22.084ZM 118.099 17.6367C 118.099 14.8828 117.713 12.8789 116.939 11.625C 116.166 10.3594 114.941 9.72656 113.265 9.72656C 111.601 9.72656 110.388 10.3535 109.627 11.6074C 108.865 12.8613 108.472 14.7891 108.449 17.3906L 108.449 22.5938C 108.449 25.3594 108.847 27.4043 109.644 28.7285C 110.453 30.041 111.672 30.6973 113.3 30.6973C 114.906 30.6973 116.095 30.0762 116.869 28.834C 117.654 27.5918 118.064 25.6348 118.099 22.9629L 118.099 17.6367ZM 125.746 38.0977L 123.9 36.832C 125.002 35.2969 125.576 33.7148 125.623 32.0859L 125.623 29.1504L 128.804 29.1504L 128.804 31.6992C 128.804 32.8828 128.511 34.0664 127.925 35.25C 127.351 36.4336 126.625 37.3828 125.746 38.0977ZM 148.632 22.084C 148.632 25.8926 147.982 28.7227 146.681 30.5742C 145.381 32.4258 143.347 33.3516 140.582 33.3516C 137.851 33.3516 135.83 32.4492 134.517 30.6445C 133.205 28.8281 132.525 26.1211 132.478 22.5234L 132.478 18.1816C 132.478 14.4199 133.129 11.625 134.429 9.79688C 135.73 7.96875 137.769 7.05469 140.547 7.05469C 143.3 7.05469 145.328 7.93945 146.629 9.70898C 147.929 11.4668 148.597 14.1855 148.632 17.8652L 148.632 22.084ZM 145.381 17.6367C 145.381 14.8828 144.994 12.8789 144.22 11.625C 143.447 10.3594 142.222 9.72656 140.547 9.72656C 138.882 9.72656 137.67 10.3535 136.908 11.6074C 136.146 12.8613 135.754 14.7891 135.73 17.3906L 135.73 22.5938C 135.73 25.3594 136.129 27.4043 136.925 28.7285C 137.734 30.041 138.953 30.6973 140.582 30.6973C 142.187 30.6973 143.377 30.0762 144.15 28.834C 144.935 27.5918 145.345 25.6348 145.381 22.9629L 145.381 17.6367ZM 168.847 22.084C 168.847 25.8926 168.197 28.7227 166.896 30.5742C 165.595 32.4258 163.562 33.3516 160.797 33.3516C 158.066 33.3516 156.045 32.4492 154.732 30.6445C 153.42 28.8281 152.74 26.1211 152.693 22.5234L 152.693 18.1816C 152.693 14.4199 153.343 11.625 154.644 9.79688C 155.945 7.96875 157.984 7.05469 160.761 7.05469C 163.515 7.05469 165.543 7.93945 166.843 9.70898C 168.144 11.4668 168.812 14.1855 168.847 17.8652L 168.847 22.084ZM 165.595 17.6367C 165.595 14.8828 165.209 12.8789 164.435 11.625C 163.662 10.3594 162.437 9.72656 160.761 9.72656C 159.097 9.72656 157.884 10.3535 157.123 11.6074C 156.361 12.8613 155.968 14.7891 155.945 17.3906L 155.945 22.5938C 155.945 25.3594 156.343 27.4043 157.14 28.7285C 157.949 30.041 159.168 30.6973 160.797 30.6973C 162.402 30.6973 163.591 30.0762 164.365 28.834C 165.15 27.5918 165.56 25.6348 165.595 22.9629L 165.595 17.6367Z"/>
<path id="path6_stroke" d="M 1003.64 11.5407L 1003.36 9.05649L 1003.64 11.5407ZM 1004.36 11.4856L 1004.46 13.9836L 1004.36 11.4856ZM 713.455 48.2196L 715.596 49.5108L 715.596 49.5108L 713.455 48.2196ZM 720.897 43.4474L 720.616 40.9632L 720.897 43.4474ZM 424.265 522.597L 423.56 520.198L 423.56 520.198L 424.265 522.597ZM 430.011 518.166L 427.87 516.875L 430.011 518.166ZM 137.651 606.598L 137.938 609.082L 137.651 606.598ZM 139.32 606.259L 138.616 603.86L 138.616 603.86L 139.32 606.259ZM 0.286901 624.983L 137.938 609.082L 137.364 604.115L -0.286901 620.017L 0.286901 624.983ZM 140.025 608.658L 424.969 524.995L 423.56 520.198L 138.616 603.86L 140.025 608.658ZM 432.151 519.458L 715.596 49.5108L 711.314 46.9285L 427.87 516.875L 432.151 519.458ZM 721.177 45.9317L 1003.92 14.025L 1003.36 9.05649L 720.616 40.9632L 721.177 45.9317ZM 1004.46 13.9836L 1293.1 2.49802L 1292.9 -2.49802L 1004.26 8.98754L 1004.46 13.9836ZM 1003.92 14.025C 1004.11 14.0025 1004.27 13.991 1004.46 13.9836L 1004.26 8.98754C 1003.98 8.99938 1003.64 9.02467 1003.36 9.05649L 1003.92 14.025ZM 715.596 49.5108C 716.799 47.5155 718.862 46.1929 721.177 45.9317L 720.616 40.9632C 716.757 41.3987 713.32 43.603 711.314 46.9285L 715.596 49.5108ZM 424.969 524.995C 427.802 524.119 430.583 521.975 432.151 519.458L 427.87 516.875C 426.852 518.646 425.532 519.664 423.56 520.198L 424.969 524.995ZM 137.938 609.082C 138.608 609.002 139.376 608.846 140.025 608.658L 138.616 603.86C 138.173 603.993 137.823 604.064 137.364 604.115L 137.938 609.082Z"/>
<path id="path7_fill" d="M 62 31C 62 48.1208 48.1208 62 31 62C 13.8792 62 0 48.1208 0 31C 0 13.8792 13.8792 0 31 0C 48.1208 0 62 13.8792 62 31Z"/>
<path id="path8_stroke_2x" d="M 52 31C 52 42.598 42.598 52 31 52L 31 72C 53.6437 72 72 53.6437 72 31L 52 31ZM 31 52C 19.402 52 10 42.598 10 31L -10 31C -10 53.6437 8.35633 72 31 72L 31 52ZM 10 31C 10 19.402 19.402 10 31 10L 31 -10C 8.35633 -10 -10 8.35633 -10 31L 10 31ZM 31 10C 42.598 10 52 19.402 52 31L 72 31C 72 8.35633 53.6437 -10 31 -10L 31 10Z"/>
<path id="path9_fill" d="M 119.193 7.40625L 122.585 7.40625L 122.585 25.5293C 122.585 27.9785 121.847 29.8945 120.371 31.2773C 118.906 32.6602 116.949 33.3516 114.499 33.3516C 111.957 33.3516 109.976 32.7012 108.558 31.4004C 107.14 30.0996 106.431 28.2773 106.431 25.9336L 109.806 25.9336C 109.806 27.3984 110.205 28.541 111.001 29.3613C 111.81 30.1816 112.976 30.5918 114.499 30.5918C 115.894 30.5918 117.019 30.1523 117.874 29.2734C 118.742 28.3945 119.181 27.1641 119.193 25.582L 119.193 7.40625ZM 142.08 26.3203L 131.357 26.3203L 128.949 33L 125.468 33L 135.242 7.40625L 138.195 7.40625L 147.986 33L 144.523 33L 142.08 26.3203ZM 132.376 23.543L 141.078 23.543L 136.718 11.5723L 132.376 23.543ZM 171.101 33L 167.708 33L 154.824 13.2773L 154.824 33L 151.431 33L 151.431 7.40625L 154.824 7.40625L 167.744 27.2168L 167.744 7.40625L 171.101 7.40625L 171.101 33Z"/>
<path id="path10_fill" d="M 122.726 26.3203L 112.003 26.3203L 109.595 33L 106.115 33L 115.888 7.40625L 118.841 7.40625L 128.632 33L 125.169 33L 122.726 26.3203ZM 113.023 23.543L 121.724 23.543L 117.365 11.5723L 113.023 23.543ZM 135.453 22.9805L 135.453 33L 132.078 33L 132.078 7.40625L 141.517 7.40625C 144.318 7.40625 146.509 8.12109 148.091 9.55078C 149.685 10.9805 150.482 12.873 150.482 15.2285C 150.482 17.7129 149.703 19.6289 148.144 20.9766C 146.597 22.3125 144.376 22.9805 141.482 22.9805L 135.453 22.9805ZM 135.453 20.2207L 141.517 20.2207C 143.322 20.2207 144.705 19.7988 145.666 18.9551C 146.626 18.0996 147.107 16.8691 147.107 15.2637C 147.107 13.7402 146.626 12.5215 145.666 11.6074C 144.705 10.6934 143.386 10.2188 141.71 10.1836L 135.453 10.1836L 135.453 20.2207ZM 164.175 22.6465L 158.164 22.6465L 158.164 33L 154.771 33L 154.771 7.40625L 163.244 7.40625C 166.126 7.40625 168.341 8.0625 169.888 9.375C 171.447 10.6875 172.226 12.5977 172.226 15.1055C 172.226 16.6992 171.792 18.0879 170.925 19.2715C 170.07 20.4551 168.874 21.3398 167.339 21.9258L 173.351 32.7891L 173.351 33L 169.73 33L 164.175 22.6465ZM 158.164 19.8867L 163.349 19.8867C 165.025 19.8867 166.355 19.4531 167.339 18.5859C 168.335 17.7188 168.833 16.5586 168.833 15.1055C 168.833 13.5234 168.359 12.3105 167.41 11.4668C 166.472 10.623 165.113 10.1953 163.332 10.1836L 158.164 10.1836L 158.164 19.8867Z"/>
<path id="path11_fill" d="M 122.216 7.40625L 125.609 7.40625L 125.609 25.5293C 125.609 27.9785 124.871 29.8945 123.394 31.2773C 121.929 32.6602 119.972 33.3516 117.523 33.3516C 114.98 33.3516 112.999 32.7012 111.582 31.4004C 110.164 30.0996 109.455 28.2773 109.455 25.9336L 112.83 25.9336C 112.83 27.3984 113.228 28.541 114.025 29.3613C 114.833 30.1816 115.999 30.5918 117.523 30.5918C 118.917 30.5918 120.042 30.1523 120.898 29.2734C 121.765 28.3945 122.205 27.1641 122.216 25.582L 122.216 7.40625ZM 149.374 7.40625L 149.374 24.8086C 149.363 27.2227 148.601 29.1973 147.089 30.7324C 145.589 32.2676 143.55 33.1289 140.972 33.3164L 140.076 33.3516C 137.275 33.3516 135.042 32.5957 133.378 31.084C 131.714 29.5723 130.871 27.4922 130.847 24.8438L 130.847 7.40625L 134.187 7.40625L 134.187 24.7383C 134.187 26.5898 134.697 28.0313 135.716 29.0625C 136.736 30.082 138.189 30.5918 140.076 30.5918C 141.986 30.5918 143.445 30.082 144.453 29.0625C 145.472 28.043 145.982 26.6074 145.982 24.7559L 145.982 7.40625L 149.374 7.40625ZM 158.093 30.2402L 170.222 30.2402L 170.222 33L 154.701 33L 154.701 7.40625L 158.093 7.40625L 158.093 30.2402Z"/>
<path id="path12_fill" d="M 125.978 33L 122.585 33L 109.701 13.2773L 109.701 33L 106.308 33L 106.308 7.40625L 109.701 7.40625L 122.621 27.2168L 122.621 7.40625L 125.978 7.40625L 125.978 33ZM 151.66 21.0293C 151.66 23.5371 151.238 25.7285 150.394 27.6035C 149.55 29.4668 148.355 30.8906 146.808 31.875C 145.261 32.8594 143.457 33.3516 141.394 33.3516C 139.378 33.3516 137.591 32.8594 136.033 31.875C 134.474 30.8789 133.261 29.4668 132.394 27.6387C 131.539 25.7988 131.099 23.6719 131.076 21.2578L 131.076 19.4121C 131.076 16.9512 131.503 14.7773 132.359 12.8906C 133.214 11.0039 134.421 9.5625 135.98 8.56641C 137.55 7.55859 139.343 7.05469 141.359 7.05469C 143.41 7.05469 145.214 7.55274 146.773 8.54883C 148.343 9.5332 149.55 10.9687 150.394 12.8555C 151.238 14.7305 151.66 16.916 151.66 19.4121L 151.66 21.0293ZM 148.302 19.377C 148.302 16.3418 147.693 14.0156 146.474 12.3984C 145.255 10.7695 143.55 9.95508 141.359 9.95508C 139.226 9.95508 137.544 10.7695 136.314 12.3984C 135.095 14.0156 134.468 16.2656 134.433 19.1484L 134.433 21.0293C 134.433 23.9707 135.048 26.2852 136.279 27.9727C 137.521 29.6484 139.226 30.4863 141.394 30.4863C 143.574 30.4863 145.261 29.6953 146.457 28.1133C 147.652 26.5195 148.267 24.2402 148.302 21.2754L 148.302 19.377ZM 164.808 28.5176L 172.121 7.40625L 175.812 7.40625L 166.32 33L 163.332 33L 153.857 7.40625L 157.531 7.40625L 164.808 28.5176Z"/>
<path id="path13_fill" d="M 127.894 21.0293C 127.894 23.5371 127.472 25.7285 126.628 27.6035C 125.785 29.4668 124.589 30.8906 123.042 31.875C 121.496 32.8594 119.691 33.3516 117.628 33.3516C 115.613 33.3516 113.826 32.8594 112.267 31.875C 110.708 30.8789 109.496 29.4668 108.628 27.6387C 107.773 25.7988 107.333 23.6719 107.31 21.2578L 107.31 19.4121C 107.31 16.9512 107.738 14.7773 108.593 12.8906C 109.449 11.0039 110.656 9.5625 112.214 8.56641C 113.785 7.55859 115.578 7.05469 117.593 7.05469C 119.644 7.05469 121.449 7.55274 123.007 8.54883C 124.578 9.5332 125.785 10.9687 126.628 12.8555C 127.472 14.7305 127.894 16.916 127.894 19.4121L 127.894 21.0293ZM 124.537 19.377C 124.537 16.3418 123.927 14.0156 122.708 12.3984C 121.49 10.7695 119.785 9.95508 117.593 9.95508C 115.46 9.95508 113.779 10.7695 112.548 12.3984C 111.33 14.0156 110.703 16.2656 110.667 19.1484L 110.667 21.0293C 110.667 23.9707 111.283 26.2852 112.513 27.9727C 113.755 29.6484 115.46 30.4863 117.628 30.4863C 119.808 30.4863 121.496 29.6953 122.691 28.1133C 123.886 26.5195 124.501 24.2402 124.537 21.2754L 124.537 19.377ZM 151.783 24.8789C 151.466 27.5859 150.464 29.6777 148.777 31.1543C 147.101 32.6191 144.869 33.3516 142.08 33.3516C 139.056 33.3516 136.63 32.2676 134.802 30.0996C 132.986 27.9316 132.078 25.0312 132.078 21.3984L 132.078 18.9375C 132.078 16.5586 132.499 14.4668 133.343 12.6621C 134.199 10.8574 135.406 9.47461 136.964 8.51367C 138.523 7.54101 140.328 7.05469 142.378 7.05469C 145.097 7.05469 147.277 7.81641 148.917 9.33984C 150.558 10.8516 151.513 12.9492 151.783 15.6328L 148.39 15.6328C 148.097 13.5938 147.458 12.1172 146.474 11.2031C 145.501 10.2891 144.136 9.83203 142.378 9.83203C 140.222 9.83203 138.529 10.6289 137.298 12.2227C 136.08 13.8164 135.47 16.084 135.47 19.0254L 135.47 21.5039C 135.47 24.2812 136.05 26.4902 137.21 28.1309C 138.371 29.7715 139.994 30.5918 142.08 30.5918C 143.955 30.5918 145.39 30.1699 146.386 29.3262C 147.394 28.4707 148.062 26.9883 148.39 24.8789L 151.783 24.8789ZM 173.562 10.1836L 165.335 10.1836L 165.335 33L 161.978 33L 161.978 10.1836L 153.769 10.1836L 153.769 7.40625L 173.562 7.40625L 173.562 10.1836Z"/>
</defs>
</svg>
