<svg width="1528" height="918" viewBox="0 0 1528 918" version="1.1" xmlns="http://www.w3.org/2000/svg" xmlns:xlink="http://www.w3.org/1999/xlink">
<title>Page 1</title>
<desc>Created using Figma</desc>
<g id="Canvas" transform="translate(-19023 -3027)">
<g id="Group 4.1">
<g id="Group 2">
<g id="Rectangle 2.1">
<use xlink:href="#path0_fill" transform="translate(19119.1 3029.09)" fill="#E0E0E0"/>
</g>
<g id="Rectangle 2.2">
<use xlink:href="#path0_fill" transform="translate(19119.1 3240.72)" fill="#E0E0E0"/>
</g>
<g id="Rectangle 2.3">
<use xlink:href="#path0_fill" transform="translate(19119.1 3452.36)" fill="#E0E0E0"/>
</g>
<g id="Rectangle 2.4">
<use xlink:href="#path0_fill" transform="translate(19119.1 3663.99)" fill="#E0E0E0"/>
</g>
<g id="Rectangle 2.5">
<use xlink:href="#path0_fill" transform="translate(19119.1 3875.62)" fill="#E0E0E0"/>
</g>
</g>
<g id="Group 3">
<g id="80,00">
<use xlink:href="#path1_fill" transform="translate(18915 3020)" fill="#FFFFFF"/>
</g>
<g id="60,00">
<use xlink:href="#path2_fill" transform="translate(18939.8 3231.68)" fill="#FFFFFF"/>
</g>
<g id="40,00">
<use xlink:href="#path3_fill" transform="translate(18939.8 3440.18)" fill="#FFFFFF"/>
</g>
<g id="20,00">
<use xlink:href="#path4_fill" transform="translate(18939.8 3655.05)" fill="#FFFFFF"/>
</g>
<g id="0,00">
<use xlink:href="#path5_fill" transform="translate(18939.4 3861.35)" fill="#FFFFFF"/>
</g>
</g>
<g id="Vector">
<use xlink:href="#path6_stroke" transform="translate(19120 3130)" fill="#BDBDBD"/>
</g>
<g id="Ellipse">
<g id="Ellipse">
<use xlink:href="#path7_fill" transform="translate(20381 3224.83)" fill="#FFFFFF"/>
<mask id="mask0_outline_ins">
<use xlink:href="#path7_fill" fill="white" transform="translate(20381 3224.83)"/>
</mask>
<g mask="url(#mask0_outline_ins)">
<use xlink:href="#path8_stroke_2x" transform="translate(20381 3224.83)" fill="#5E5E5E" fill-opacity="0.2"/>
</g>
</g>
</g>
<g id="Ellipse">
<g id="Ellipse">
<use xlink:href="#path7_fill" transform="translate(20092.9 3102.83)" fill="#FFFFFF"/>
<mask id="mask1_outline_ins">
<use xlink:href="#path7_fill" fill="white" transform="translate(20092.9 3102.83)"/>
</mask>
<g mask="url(#mask1_outline_ins)">
<use xlink:href="#path8_stroke_2x" transform="translate(20092.9 3102.83)" fill="#5E5E5E" fill-opacity="0.2"/>
</g>
</g>
</g>
<g id="Ellipse">
<g id="Ellipse">
<use xlink:href="#path7_fill" transform="translate(19805 3307.83)" fill="#FFFFFF"/>
<mask id="mask2_outline_ins">
<use xlink:href="#path7_fill" fill="white" transform="translate(19805 3307.83)"/>
</mask>
<g mask="url(#mask2_outline_ins)">
<use xlink:href="#path8_stroke_2x" transform="translate(19805 3307.83)" fill="#5E5E5E" fill-opacity="0.2"/>
</g>
</g>
</g>
<g id="Ellipse">
<g id="Ellipse">
<use xlink:href="#path7_fill" transform="translate(19517.1 3698.83)" fill="#FFFFFF"/>
<mask id="mask3_outline_ins">
<use xlink:href="#path7_fill" fill="white" transform="translate(19517.1 3698.83)"/>
</mask>
<g mask="url(#mask3_outline_ins)">
<use xlink:href="#path8_stroke_2x" transform="translate(19517.1 3698.83)" fill="#5E5E5E" fill-opacity="0.2"/>
</g>
</g>
</g>
<g id="Ellipse">
<g id="Ellipse">
<use xlink:href="#path7_fill" transform="translate(19228.3 3842.83)" fill="#FFFFFF"/>
<mask id="mask4_outline_ins">
<use xlink:href="#path7_fill" fill="white" transform="translate(19228.3 3842.83)"/>
</mask>
<g mask="url(#mask4_outline_ins)">
<use xlink:href="#path8_stroke_2x" transform="translate(19228.3 3842.83)" fill="#5E5E5E" fill-opacity="0.2"/>
</g>
</g>
</g>
</g>
<g id="Group 4.2">
<g id="JAN">
<use xlink:href="#path9_fill" transform="translate(19119.1 3911.14)" fill="#FFFFFF"/>
</g>
<g id="APR">
<use xlink:href="#path10_fill" transform="translate(19407.3 3911.14)" fill="#FFFFFF"/>
</g>
<g id="JUL">
<use xlink:href="#path11_fill" transform="translate(19695.5 3911.14)" fill="#FFFFFF"/>
</g>
<g id="NOV">
<use xlink:href="#path12_fill" transform="translate(20271.4 3911.14)" fill="#FFFFFF"/>
</g>
<g id="OCT">
<use xlink:href="#path13_fill" transform="translate(19983.7 3911.14)" fill="#FFFFFF"/>
</g>
</g>
</g>
<defs>
<path id="path0_fill" d="M 0 0L 1431.86 0L 1431.86 5.64351L 0 5.64351L 0 0Z"/>
<path id="path1_fill" d="M 124.988 14.0859C 124.988 15.3633 124.648 16.5 123.968 17.4961C 123.3 18.4922 122.392 19.2715 121.244 19.834C 122.58 20.4082 123.634 21.2461 124.408 22.3477C 125.193 23.4492 125.586 24.6973 125.586 26.0918C 125.586 28.3066 124.836 30.0703 123.336 31.3828C 121.847 32.6953 119.884 33.3516 117.447 33.3516C 114.986 33.3516 113.011 32.6953 111.523 31.3828C 110.046 30.0586 109.308 28.2949 109.308 26.0918C 109.308 24.709 109.683 23.4609 110.433 22.3477C 111.195 21.2344 112.244 20.3906 113.58 19.8164C 112.443 19.2539 111.546 18.4746 110.89 17.4785C 110.234 16.4824 109.906 15.3516 109.906 14.0859C 109.906 11.9297 110.597 10.2188 111.98 8.95312C 113.363 7.6875 115.185 7.05469 117.447 7.05469C 119.697 7.05469 121.513 7.6875 122.896 8.95312C 124.291 10.2188 124.988 11.9297 124.988 14.0859ZM 122.334 26.0215C 122.334 24.5918 121.877 23.4258 120.962 22.5234C 120.06 21.6211 118.877 21.1699 117.412 21.1699C 115.947 21.1699 114.769 21.6152 113.878 22.5059C 113 23.3965 112.56 24.5684 112.56 26.0215C 112.56 27.4746 112.988 28.6172 113.843 29.4492C 114.711 30.2812 115.912 30.6973 117.447 30.6973C 118.97 30.6973 120.166 30.2812 121.033 29.4492C 121.9 28.6055 122.334 27.4629 122.334 26.0215ZM 117.447 9.72656C 116.17 9.72656 115.132 10.125 114.336 10.9219C 113.55 11.707 113.158 12.7793 113.158 14.1387C 113.158 15.4395 113.545 16.4941 114.318 17.3027C 115.103 18.0996 116.146 18.498 117.447 18.498C 118.748 18.498 119.785 18.0996 120.558 17.3027C 121.343 16.4941 121.736 15.4395 121.736 14.1387C 121.736 12.8379 121.332 11.7773 120.523 10.957C 119.714 10.1367 118.689 9.72656 117.447 9.72656ZM 145.73 22.084C 145.73 25.8926 145.08 28.7227 143.779 30.5742C 142.478 32.4258 140.445 33.3516 137.679 33.3516C 134.949 33.3516 132.927 32.4492 131.615 30.6445C 130.302 28.8281 129.623 26.1211 129.576 22.5234L 129.576 18.1816C 129.576 14.4199 130.226 11.625 131.527 9.79688C 132.828 7.96875 134.867 7.05469 137.644 7.05469C 140.398 7.05469 142.425 7.93945 143.726 9.70898C 145.027 11.4668 145.695 14.1855 145.73 17.8652L 145.73 22.084ZM 142.478 17.6367C 142.478 14.8828 142.091 12.8789 141.318 11.625C 140.545 10.3594 139.32 9.72656 137.644 9.72656C 135.98 9.72656 134.767 10.3535 134.005 11.6074C 133.244 12.8613 132.851 14.7891 132.828 17.3906L 132.828 22.5938C 132.828 25.3594 133.226 27.4043 134.023 28.7285C 134.832 30.041 136.05 30.6973 137.679 30.6973C 139.285 30.6973 140.474 30.0762 141.248 28.834C 142.033 27.5918 142.443 25.6348 142.478 22.9629L 142.478 17.6367ZM 150.125 38.0977L 148.279 36.832C 149.38 35.2969 149.955 33.7148 150.002 32.0859L 150.002 29.1504L 153.183 29.1504L 153.183 31.6992C 153.183 32.8828 152.89 34.0664 152.304 35.25C 151.73 36.4336 151.003 37.3828 150.125 38.0977ZM 173.011 22.084C 173.011 25.8926 172.361 28.7227 171.06 30.5742C 169.759 32.4258 167.726 33.3516 164.961 33.3516C 162.23 33.3516 160.209 32.4492 158.896 30.6445C 157.584 28.8281 156.904 26.1211 156.857 22.5234L 156.857 18.1816C 156.857 14.4199 157.507 11.625 158.808 9.79688C 160.109 7.96875 162.148 7.05469 164.925 7.05469C 167.679 7.05469 169.707 7.93945 171.007 9.70898C 172.308 11.4668 172.976 14.1855 173.011 17.8652L 173.011 22.084ZM 169.759 17.6367C 169.759 14.8828 169.373 12.8789 168.599 11.625C 167.826 10.3594 166.601 9.72656 164.925 9.72656C 163.261 9.72656 162.048 10.3535 161.287 11.6074C 160.525 12.8613 160.132 14.7891 160.109 17.3906L 160.109 22.5938C 160.109 25.3594 160.507 27.4043 161.304 28.7285C 162.113 30.041 163.332 30.6973 164.961 30.6973C 166.566 30.6973 167.755 30.0762 168.529 28.834C 169.314 27.5918 169.724 25.6348 169.759 22.9629L 169.759 17.6367ZM 193.226 22.084C 193.226 25.8926 192.576 28.7227 191.275 30.5742C 189.974 32.4258 187.941 33.3516 185.175 33.3516C 182.445 33.3516 180.423 32.4492 179.111 30.6445C 177.798 28.8281 177.119 26.1211 177.072 22.5234L 177.072 18.1816C 177.072 14.4199 177.722 11.625 179.023 9.79688C 180.324 7.96875 182.363 7.05469 185.14 7.05469C 187.894 7.05469 189.921 7.93945 191.222 9.70898C 192.523 11.4668 193.191 14.1855 193.226 17.8652L 193.226 22.084ZM 189.974 17.6367C 189.974 14.8828 189.587 12.8789 188.814 11.625C 188.041 10.3594 186.816 9.72656 185.14 9.72656C 183.476 9.72656 182.263 10.3535 181.502 11.6074C 180.74 12.8613 180.347 14.7891 180.324 17.3906L 180.324 22.5938C 180.324 25.3594 180.722 27.4043 181.519 28.7285C 182.328 30.041 183.546 30.6973 185.175 30.6973C 186.781 30.6973 187.97 30.0762 188.744 28.834C 189.529 27.5918 189.939 25.6348 189.974 22.9629L 189.974 17.6367Z"/>
<path id="path2_fill" d="M 97.4662 7.38867L 97.4662 10.1484L 96.8686 10.1484C 94.3373 10.1953 92.3217 10.9453 90.8217 12.3984C 89.3217 13.8516 88.4545 15.8965 88.2201 18.5332C 89.5678 16.9863 91.4076 16.2129 93.7397 16.2129C 95.9662 16.2129 97.7416 16.998 99.0658 18.5684C 100.402 20.1387 101.07 22.166 101.07 24.6504C 101.07 27.2871 100.349 29.3965 98.9076 30.9785C 97.4779 32.5605 95.5561 33.3516 93.142 33.3516C 90.6928 33.3516 88.7065 32.4141 87.183 30.5391C 85.6596 28.6523 84.8979 26.2266 84.8979 23.2617L 84.8979 22.0137C 84.8979 17.3027 85.8998 13.7051 87.9037 11.2207C 89.9193 8.72461 92.9135 7.44727 96.8861 7.38867L 97.4662 7.38867ZM 93.1947 18.9199C 92.0815 18.9199 91.0561 19.2539 90.1186 19.9219C 89.1811 20.5898 88.5307 21.4277 88.1674 22.4355L 88.1674 23.6309C 88.1674 25.7402 88.642 27.4395 89.5912 28.7285C 90.5404 30.0176 91.724 30.6621 93.142 30.6621C 94.6068 30.6621 95.7553 30.123 96.5873 29.0449C 97.4311 27.9668 97.8529 26.5547 97.8529 24.8086C 97.8529 23.0508 97.4252 21.6328 96.5697 20.5547C 95.726 19.4648 94.601 18.9199 93.1947 18.9199ZM 120.968 22.084C 120.968 25.8926 120.318 28.7227 119.017 30.5742C 117.716 32.4258 115.683 33.3516 112.917 33.3516C 110.187 33.3516 108.165 32.4492 106.853 30.6445C 105.54 28.8281 104.861 26.1211 104.814 22.5234L 104.814 18.1816C 104.814 14.4199 105.464 11.625 106.765 9.79688C 108.066 7.96875 110.105 7.05469 112.882 7.05469C 115.636 7.05469 117.663 7.93945 118.964 9.70898C 120.265 11.4668 120.933 14.1855 120.968 17.8652L 120.968 22.084ZM 117.716 17.6367C 117.716 14.8828 117.329 12.8789 116.556 11.625C 115.783 10.3594 114.558 9.72656 112.882 9.72656C 111.218 9.72656 110.005 10.3535 109.244 11.6074C 108.482 12.8613 108.089 14.7891 108.066 17.3906L 108.066 22.5938C 108.066 25.3594 108.464 27.4043 109.261 28.7285C 110.07 30.041 111.288 30.6973 112.917 30.6973C 114.523 30.6973 115.712 30.0762 116.486 28.834C 117.271 27.5918 117.681 25.6348 117.716 22.9629L 117.716 17.6367ZM 125.363 38.0977L 123.517 36.832C 124.619 35.2969 125.193 33.7148 125.24 32.0859L 125.24 29.1504L 128.421 29.1504L 128.421 31.6992C 128.421 32.8828 128.128 34.0664 127.542 35.25C 126.968 36.4336 126.242 37.3828 125.363 38.0977ZM 148.249 22.084C 148.249 25.8926 147.599 28.7227 146.298 30.5742C 144.997 32.4258 142.964 33.3516 140.199 33.3516C 137.468 33.3516 135.447 32.4492 134.134 30.6445C 132.822 28.8281 132.142 26.1211 132.095 22.5234L 132.095 18.1816C 132.095 14.4199 132.746 11.625 134.046 9.79688C 135.347 7.96875 137.386 7.05469 140.163 7.05469C 142.917 7.05469 144.945 7.93945 146.246 9.70898C 147.546 11.4668 148.214 14.1855 148.249 17.8652L 148.249 22.084ZM 144.997 17.6367C 144.997 14.8828 144.611 12.8789 143.837 11.625C 143.064 10.3594 141.839 9.72656 140.163 9.72656C 138.499 9.72656 137.287 10.3535 136.525 11.6074C 135.763 12.8613 135.371 14.7891 135.347 17.3906L 135.347 22.5938C 135.347 25.3594 135.746 27.4043 136.542 28.7285C 137.351 30.041 138.57 30.6973 140.199 30.6973C 141.804 30.6973 142.994 30.0762 143.767 28.834C 144.552 27.5918 144.962 25.6348 144.997 22.9629L 144.997 17.6367ZM 168.464 22.084C 168.464 25.8926 167.814 28.7227 166.513 30.5742C 165.212 32.4258 163.179 33.3516 160.413 33.3516C 157.683 33.3516 155.662 32.4492 154.349 30.6445C 153.037 28.8281 152.357 26.1211 152.31 22.5234L 152.31 18.1816C 152.31 14.4199 152.96 11.625 154.261 9.79688C 155.562 7.96875 157.601 7.05469 160.378 7.05469C 163.132 7.05469 165.16 7.93945 166.46 9.70898C 167.761 11.4668 168.429 14.1855 168.464 17.8652L 168.464 22.084ZM 165.212 17.6367C 165.212 14.8828 164.826 12.8789 164.052 11.625C 163.279 10.3594 162.054 9.72656 160.378 9.72656C 158.714 9.72656 157.501 10.3535 156.74 11.6074C 155.978 12.8613 155.585 14.7891 155.562 17.3906L 155.562 22.5938C 155.562 25.3594 155.96 27.4043 156.757 28.7285C 157.566 30.041 158.785 30.6973 160.413 30.6973C 162.019 30.6973 163.208 30.0762 163.982 28.834C 164.767 27.5918 165.177 25.6348 165.212 22.9629L 165.212 17.6367Z"/>
<path id="path3_fill" d="M 98.433 24.4043L 101.984 24.4043L 101.984 27.0586L 98.433 27.0586L 98.433 33L 95.1635 33L 95.1635 27.0586L 83.5092 27.0586L 83.5092 25.1426L 94.9701 7.40625L 98.433 7.40625L 98.433 24.4043ZM 87.2006 24.4043L 95.1635 24.4043L 95.1635 11.8535L 94.7768 12.5566L 87.2006 24.4043ZM 120.968 22.084C 120.968 25.8926 120.318 28.7227 119.017 30.5742C 117.716 32.4258 115.683 33.3516 112.917 33.3516C 110.187 33.3516 108.165 32.4492 106.853 30.6445C 105.54 28.8281 104.861 26.1211 104.814 22.5234L 104.814 18.1816C 104.814 14.4199 105.464 11.625 106.765 9.79688C 108.066 7.96875 110.105 7.05469 112.882 7.05469C 115.636 7.05469 117.663 7.93945 118.964 9.70898C 120.265 11.4668 120.933 14.1855 120.968 17.8652L 120.968 22.084ZM 117.716 17.6367C 117.716 14.8828 117.329 12.8789 116.556 11.625C 115.783 10.3594 114.558 9.72656 112.882 9.72656C 111.218 9.72656 110.005 10.3535 109.244 11.6074C 108.482 12.8613 108.089 14.7891 108.066 17.3906L 108.066 22.5938C 108.066 25.3594 108.464 27.4043 109.261 28.7285C 110.07 30.041 111.288 30.6973 112.917 30.6973C 114.523 30.6973 115.712 30.0762 116.486 28.834C 117.271 27.5918 117.681 25.6348 117.716 22.9629L 117.716 17.6367ZM 125.363 38.0977L 123.517 36.832C 124.619 35.2969 125.193 33.7148 125.24 32.0859L 125.24 29.1504L 128.421 29.1504L 128.421 31.6992C 128.421 32.8828 128.128 34.0664 127.542 35.25C 126.968 36.4336 126.242 37.3828 125.363 38.0977ZM 148.249 22.084C 148.249 25.8926 147.599 28.7227 146.298 30.5742C 144.997 32.4258 142.964 33.3516 140.199 33.3516C 137.468 33.3516 135.447 32.4492 134.134 30.6445C 132.822 28.8281 132.142 26.1211 132.095 22.5234L 132.095 18.1816C 132.095 14.4199 132.746 11.625 134.046 9.79688C 135.347 7.96875 137.386 7.05469 140.163 7.05469C 142.917 7.05469 144.945 7.93945 146.246 9.70898C 147.546 11.4668 148.214 14.1855 148.249 17.8652L 148.249 22.084ZM 144.997 17.6367C 144.997 14.8828 144.611 12.8789 143.837 11.625C 143.064 10.3594 141.839 9.72656 140.163 9.72656C 138.499 9.72656 137.287 10.3535 136.525 11.6074C 135.763 12.8613 135.371 14.7891 135.347 17.3906L 135.347 22.5938C 135.347 25.3594 135.746 27.4043 136.542 28.7285C 137.351 30.041 138.57 30.6973 140.199 30.6973C 141.804 30.6973 142.994 30.0762 143.767 28.834C 144.552 27.5918 144.962 25.6348 144.997 22.9629L 144.997 17.6367ZM 168.464 22.084C 168.464 25.8926 167.814 28.7227 166.513 30.5742C 165.212 32.4258 163.179 33.3516 160.413 33.3516C 157.683 33.3516 155.662 32.4492 154.349 30.6445C 153.037 28.8281 152.357 26.1211 152.31 22.5234L 152.31 18.1816C 152.31 14.4199 152.96 11.625 154.261 9.79688C 155.562 7.96875 157.601 7.05469 160.378 7.05469C 163.132 7.05469 165.16 7.93945 166.46 9.70898C 167.761 11.4668 168.429 14.1855 168.464 17.8652L 168.464 22.084ZM 165.212 17.6367C 165.212 14.8828 164.826 12.8789 164.052 11.625C 163.279 10.3594 162.054 9.72656 160.378 9.72656C 158.714 9.72656 157.501 10.3535 156.74 11.6074C 155.978 12.8613 155.585 14.7891 155.562 17.3906L 155.562 22.5938C 155.562 25.3594 155.96 27.4043 156.757 28.7285C 157.566 30.041 158.785 30.6973 160.413 30.6973C 162.019 30.6973 163.208 30.0762 163.982 28.834C 164.767 27.5918 165.177 25.6348 165.212 22.9629L 165.212 17.6367Z"/>
<path id="path4_fill" d="M 101.474 33L 84.7045 33L 84.7045 30.6621L 93.5639 20.8184C 94.8764 19.3301 95.7787 18.123 96.2709 17.1973C 96.7748 16.2598 97.0268 15.293 97.0268 14.2969C 97.0268 12.9609 96.6225 11.8652 95.8139 11.0098C 95.0053 10.1543 93.9272 9.72656 92.5795 9.72656C 90.9623 9.72656 89.7025 10.1895 88.8002 11.1152C 87.9096 12.0293 87.4643 13.3066 87.4643 14.9473L 84.2123 14.9473C 84.2123 12.5918 84.9682 10.6875 86.4799 9.23438C 88.0033 7.78125 90.0365 7.05469 92.5795 7.05469C 94.9584 7.05469 96.8393 7.68164 98.2221 8.93555C 99.6049 10.1777 100.296 11.8359 100.296 13.9102C 100.296 16.4297 98.6908 19.4297 95.4799 22.9102L 88.6244 30.3457L 101.474 30.3457L 101.474 33ZM 120.968 22.084C 120.968 25.8926 120.318 28.7227 119.017 30.5742C 117.716 32.4258 115.683 33.3516 112.917 33.3516C 110.187 33.3516 108.165 32.4492 106.853 30.6445C 105.54 28.8281 104.861 26.1211 104.814 22.5234L 104.814 18.1816C 104.814 14.4199 105.464 11.625 106.765 9.79688C 108.066 7.96875 110.105 7.05469 112.882 7.05469C 115.636 7.05469 117.663 7.93945 118.964 9.70898C 120.265 11.4668 120.933 14.1855 120.968 17.8652L 120.968 22.084ZM 117.716 17.6367C 117.716 14.8828 117.329 12.8789 116.556 11.625C 115.783 10.3594 114.558 9.72656 112.882 9.72656C 111.218 9.72656 110.005 10.3535 109.244 11.6074C 108.482 12.8613 108.089 14.7891 108.066 17.3906L 108.066 22.5938C 108.066 25.3594 108.464 27.4043 109.261 28.7285C 110.07 30.041 111.288 30.6973 112.917 30.6973C 114.523 30.6973 115.712 30.0762 116.486 28.834C 117.271 27.5918 117.681 25.6348 117.716 22.9629L 117.716 17.6367ZM 125.363 38.0977L 123.517 36.832C 124.619 35.2969 125.193 33.7148 125.24 32.0859L 125.24 29.1504L 128.421 29.1504L 128.421 31.6992C 128.421 32.8828 128.128 34.0664 127.542 35.25C 126.968 36.4336 126.242 37.3828 125.363 38.0977ZM 148.249 22.084C 148.249 25.8926 147.599 28.7227 146.298 30.5742C 144.997 32.4258 142.964 33.3516 140.199 33.3516C 137.468 33.3516 135.447 32.4492 134.134 30.6445C 132.822 28.8281 132.142 26.1211 132.095 22.5234L 132.095 18.1816C 132.095 14.4199 132.746 11.625 134.046 9.79688C 135.347 7.96875 137.386 7.05469 140.163 7.05469C 142.917 7.05469 144.945 7.93945 146.246 9.70898C 147.546 11.4668 148.214 14.1855 148.249 17.8652L 148.249 22.084ZM 144.997 17.6367C 144.997 14.8828 144.611 12.8789 143.837 11.625C 143.064 10.3594 141.839 9.72656 140.163 9.72656C 138.499 9.72656 137.287 10.3535 136.525 11.6074C 135.763 12.8613 135.371 14.7891 135.347 17.3906L 135.347 22.5938C 135.347 25.3594 135.746 27.4043 136.542 28.7285C 137.351 30.041 138.57 30.6973 140.199 30.6973C 141.804 30.6973 142.994 30.0762 143.767 28.834C 144.552 27.5918 144.962 25.6348 144.997 22.9629L 144.997 17.6367ZM 168.464 22.084C 168.464 25.8926 167.814 28.7227 166.513 30.5742C 165.212 32.4258 163.179 33.3516 160.413 33.3516C 157.683 33.3516 155.662 32.4492 154.349 30.6445C 153.037 28.8281 152.357 26.1211 152.31 22.5234L 152.31 18.1816C 152.31 14.4199 152.96 11.625 154.261 9.79688C 155.562 7.96875 157.601 7.05469 160.378 7.05469C 163.132 7.05469 165.16 7.93945 166.46 9.70898C 167.761 11.4668 168.429 14.1855 168.464 17.8652L 168.464 22.084ZM 165.212 17.6367C 165.212 14.8828 164.826 12.8789 164.052 11.625C 163.279 10.3594 162.054 9.72656 160.378 9.72656C 158.714 9.72656 157.501 10.3535 156.74 11.6074C 155.978 12.8613 155.585 14.7891 155.562 17.3906L 155.562 22.5938C 155.562 25.3594 155.96 27.4043 156.757 28.7285C 157.566 30.041 158.785 30.6973 160.413 30.6973C 162.019 30.6973 163.208 30.0762 163.982 28.834C 164.767 27.5918 165.177 25.6348 165.212 22.9629L 165.212 17.6367Z"/>
<path id="path5_fill" d="M 121.351 22.084C 121.351 25.8926 120.701 28.7227 119.4 30.5742C 118.099 32.4258 116.066 33.3516 113.3 33.3516C 110.57 33.3516 108.548 32.4492 107.236 30.6445C 105.923 28.8281 105.244 26.1211 105.197 22.5234L 105.197 18.1816C 105.197 14.4199 105.847 11.625 107.148 9.79688C 108.449 7.96875 110.488 7.05469 113.265 7.05469C 116.019 7.05469 118.047 7.93945 119.347 9.70898C 120.648 11.4668 121.316 14.1855 121.351 17.8652L 121.351 22.084ZM 118.099 17.6367C 118.099 14.8828 117.713 12.8789 116.939 11.625C 116.166 10.3594 114.941 9.72656 113.265 9.72656C 111.601 9.72656 110.388 10.3535 109.627 11.6074C 108.865 12.8613 108.472 14.7891 108.449 17.3906L 108.449 22.5938C 108.449 25.3594 108.847 27.4043 109.644 28.7285C 110.453 30.041 111.672 30.6973 113.3 30.6973C 114.906 30.6973 116.095 30.0762 116.869 28.834C 117.654 27.5918 118.064 25.6348 118.099 22.9629L 118.099 17.6367ZM 125.746 38.0977L 123.9 36.832C 125.002 35.2969 125.576 33.7148 125.623 32.0859L 125.623 29.1504L 128.804 29.1504L 128.804 31.6992C 128.804 32.8828 128.511 34.0664 127.925 35.25C 127.351 36.4336 126.625 37.3828 125.746 38.0977ZM 148.632 22.084C 148.632 25.8926 147.982 28.7227 146.681 30.5742C 145.381 32.4258 143.347 33.3516 140.582 33.3516C 137.851 33.3516 135.83 32.4492 134.517 30.6445C 133.205 28.8281 132.525 26.1211 132.478 22.5234L 132.478 18.1816C 132.478 14.4199 133.129 11.625 134.429 9.79688C 135.73 7.96875 137.769 7.05469 140.547 7.05469C 143.3 7.05469 145.328 7.93945 146.629 9.70898C 147.929 11.4668 148.597 14.1855 148.632 17.8652L 148.632 22.084ZM 145.381 17.6367C 145.381 14.8828 144.994 12.8789 144.22 11.625C 143.447 10.3594 142.222 9.72656 140.547 9.72656C 138.882 9.72656 137.67 10.3535 136.908 11.6074C 136.146 12.8613 135.754 14.7891 135.73 17.3906L 135.73 22.5938C 135.73 25.3594 136.129 27.4043 136.925 28.7285C 137.734 30.041 138.953 30.6973 140.582 30.6973C 142.187 30.6973 143.377 30.0762 144.15 28.834C 144.935 27.5918 145.345 25.6348 145.381 22.9629L 145.381 17.6367ZM 168.847 22.084C 168.847 25.8926 168.197 28.7227 166.896 30.5742C 165.595 32.4258 163.562 33.3516 160.797 33.3516C 158.066 33.3516 156.045 32.4492 154.732 30.6445C 153.42 28.8281 152.74 26.1211 152.693 22.5234L 152.693 18.1816C 152.693 14.4199 153.343 11.625 154.644 9.79688C 155.945 7.96875 157.984 7.05469 160.761 7.05469C 163.515 7.05469 165.543 7.93945 166.843 9.70898C 168.144 11.4668 168.812 14.1855 168.847 17.8652L 168.847 22.084ZM 165.595 17.6367C 165.595 14.8828 165.209 12.8789 164.435 11.625C 163.662 10.3594 162.437 9.72656 160.761 9.72656C 159.097 9.72656 157.884 10.3535 157.123 11.6074C 156.361 12.8613 155.968 14.7891 155.945 17.3906L 155.945 22.5938C 155.945 25.3594 156.343 27.4043 157.14 28.7285C 157.949 30.041 159.168 30.6973 160.797 30.6973C 162.402 30.6973 163.591 30.0762 164.365 28.834C 165.15 27.5918 165.56 25.6348 165.595 22.9629L 165.595 17.6367Z"/>
<path id="path6_stroke" d="M 1000.91 3.27325L 1002.36 5.30924L 1000.91 3.27325ZM 1010.68 2.23818L 1011.67 -0.0565784L 1010.68 2.23818ZM 714.046 208.305L 716.064 209.78L 714.046 208.305ZM 716.317 206.062L 714.866 204.026L 716.317 206.062ZM 426.31 600.086L 427.42 602.325L 426.31 600.086ZM 429.942 597.027L 431.961 598.502L 429.942 597.027ZM 136.338 742.337L 136.491 739.842L 136.338 742.337ZM 141.39 741.316L 140.279 739.076L 141.39 741.316ZM -0.152593 736.495L 136.185 744.833L 136.491 739.842L 0.152593 731.505L -0.152593 736.495ZM 142.5 743.555L 427.42 602.325L 425.2 597.846L 140.279 739.076L 142.5 743.555ZM 431.961 598.502L 716.064 209.78L 712.028 206.83L 427.924 595.551L 431.961 598.502ZM 717.767 208.098L 1002.36 5.30924L 999.456 1.23726L 714.866 204.026L 717.767 208.098ZM 1009.69 4.53294L 1292.51 126.795L 1294.49 122.205L 1011.67 -0.0565784L 1009.69 4.53294ZM 1002.36 5.30924C 1004.5 3.78546 1007.28 3.49101 1009.69 4.53294L 1011.67 -0.0565784C 1007.65 -1.79313 1003.02 -1.30239 999.456 1.23726L 1002.36 5.30924ZM 716.064 209.78C 716.572 209.073 717.054 208.597 717.767 208.098L 714.866 204.026C 713.835 204.77 712.784 205.809 712.028 206.83L 716.064 209.78ZM 427.42 602.325C 429.119 601.463 430.822 600.029 431.961 598.502L 427.924 595.551C 427.167 596.617 426.379 597.281 425.2 597.846L 427.42 602.325ZM 136.185 744.833C 138.255 744.938 140.634 744.457 142.5 743.555L 140.279 739.076C 139.014 739.726 137.909 739.95 136.491 739.842L 136.185 744.833Z"/>
<path id="path7_fill" d="M 62 31C 62 48.1208 48.1208 62 31 62C 13.8792 62 0 48.1208 0 31C 0 13.8792 13.8792 0 31 0C 48.1208 0 62 13.8792 62 31Z"/>
<path id="path8_stroke_2x" d="M 52 31C 52 42.598 42.598 52 31 52L 31 72C 53.6437 72 72 53.6437 72 31L 52 31ZM 31 52C 19.402 52 10 42.598 10 31L -10 31C -10 53.6437 8.35633 72 31 72L 31 52ZM 10 31C 10 19.402 19.402 10 31 10L 31 -10C 8.35633 -10 -10 8.35633 -10 31L 10 31ZM 31 10C 42.598 10 52 19.402 52 31L 72 31C 72 8.35633 53.6437 -10 31 -10L 31 10Z"/>
<path id="path9_fill" d="M 119.193 7.40625L 122.585 7.40625L 122.585 25.5293C 122.585 27.9785 121.847 29.8945 120.371 31.2773C 118.906 32.6602 116.949 33.3516 114.499 33.3516C 111.957 33.3516 109.976 32.7012 108.558 31.4004C 107.14 30.0996 106.431 28.2773 106.431 25.9336L 109.806 25.9336C 109.806 27.3984 110.205 28.541 111.001 29.3613C 111.81 30.1816 112.976 30.5918 114.499 30.5918C 115.894 30.5918 117.019 30.1523 117.874 29.2734C 118.742 28.3945 119.181 27.1641 119.193 25.582L 119.193 7.40625ZM 142.08 26.3203L 131.357 26.3203L 128.949 33L 125.468 33L 135.242 7.40625L 138.195 7.40625L 147.986 33L 144.523 33L 142.08 26.3203ZM 132.376 23.543L 141.078 23.543L 136.718 11.5723L 132.376 23.543ZM 171.101 33L 167.708 33L 154.824 13.2773L 154.824 33L 151.431 33L 151.431 7.40625L 154.824 7.40625L 167.744 27.2168L 167.744 7.40625L 171.101 7.40625L 171.101 33Z"/>
<path id="path10_fill" d="M 122.726 26.3203L 112.003 26.3203L 109.595 33L 106.115 33L 115.888 7.40625L 118.841 7.40625L 128.632 33L 125.169 33L 122.726 26.3203ZM 113.023 23.543L 121.724 23.543L 117.365 11.5723L 113.023 23.543ZM 135.453 22.9805L 135.453 33L 132.078 33L 132.078 7.40625L 141.517 7.40625C 144.318 7.40625 146.509 8.12109 148.091 9.55078C 149.685 10.9805 150.482 12.873 150.482 15.2285C 150.482 17.7129 149.703 19.6289 148.144 20.9766C 146.597 22.3125 144.376 22.9805 141.482 22.9805L 135.453 22.9805ZM 135.453 20.2207L 141.517 20.2207C 143.322 20.2207 144.705 19.7988 145.666 18.9551C 146.626 18.0996 147.107 16.8691 147.107 15.2637C 147.107 13.7402 146.626 12.5215 145.666 11.6074C 144.705 10.6934 143.386 10.2188 141.71 10.1836L 135.453 10.1836L 135.453 20.2207ZM 164.175 22.6465L 158.164 22.6465L 158.164 33L 154.771 33L 154.771 7.40625L 163.244 7.40625C 166.126 7.40625 168.341 8.0625 169.888 9.375C 171.447 10.6875 172.226 12.5977 172.226 15.1055C 172.226 16.6992 171.792 18.0879 170.925 19.2715C 170.07 20.4551 168.874 21.3398 167.339 21.9258L 173.351 32.7891L 173.351 33L 169.73 33L 164.175 22.6465ZM 158.164 19.8867L 163.349 19.8867C 165.025 19.8867 166.355 19.4531 167.339 18.5859C 168.335 17.7188 168.833 16.5586 168.833 15.1055C 168.833 13.5234 168.359 12.3105 167.41 11.4668C 166.472 10.623 165.113 10.1953 163.332 10.1836L 158.164 10.1836L 158.164 19.8867Z"/>
<path id="path11_fill" d="M 122.216 7.40625L 125.609 7.40625L 125.609 25.5293C 125.609 27.9785 124.871 29.8945 123.394 31.2773C 121.929 32.6602 119.972 33.3516 117.523 33.3516C 114.98 33.3516 112.999 32.7012 111.582 31.4004C 110.164 30.0996 109.455 28.2773 109.455 25.9336L 112.83 25.9336C 112.83 27.3984 113.228 28.541 114.025 29.3613C 114.833 30.1816 115.999 30.5918 117.523 30.5918C 118.917 30.5918 120.042 30.1523 120.898 29.2734C 121.765 28.3945 122.205 27.1641 122.216 25.582L 122.216 7.40625ZM 149.374 7.40625L 149.374 24.8086C 149.363 27.2227 148.601 29.1973 147.089 30.7324C 145.589 32.2676 143.55 33.1289 140.972 33.3164L 140.076 33.3516C 137.275 33.3516 135.042 32.5957 133.378 31.084C 131.714 29.5723 130.871 27.4922 130.847 24.8438L 130.847 7.40625L 134.187 7.40625L 134.187 24.7383C 134.187 26.5898 134.697 28.0313 135.716 29.0625C 136.736 30.082 138.189 30.5918 140.076 30.5918C 141.986 30.5918 143.445 30.082 144.453 29.0625C 145.472 28.043 145.982 26.6074 145.982 24.7559L 145.982 7.40625L 149.374 7.40625ZM 158.093 30.2402L 170.222 30.2402L 170.222 33L 154.701 33L 154.701 7.40625L 158.093 7.40625L 158.093 30.2402Z"/>
<path id="path12_fill" d="M 125.978 33L 122.585 33L 109.701 13.2773L 109.701 33L 106.308 33L 106.308 7.40625L 109.701 7.40625L 122.621 27.2168L 122.621 7.40625L 125.978 7.40625L 125.978 33ZM 151.66 21.0293C 151.66 23.5371 151.238 25.7285 150.394 27.6035C 149.55 29.4668 148.355 30.8906 146.808 31.875C 145.261 32.8594 143.457 33.3516 141.394 33.3516C 139.378 33.3516 137.591 32.8594 136.033 31.875C 134.474 30.8789 133.261 29.4668 132.394 27.6387C 131.539 25.7988 131.099 23.6719 131.076 21.2578L 131.076 19.4121C 131.076 16.9512 131.503 14.7773 132.359 12.8906C 133.214 11.0039 134.421 9.5625 135.98 8.56641C 137.55 7.55859 139.343 7.05469 141.359 7.05469C 143.41 7.05469 145.214 7.55274 146.773 8.54883C 148.343 9.5332 149.55 10.9687 150.394 12.8555C 151.238 14.7305 151.66 16.916 151.66 19.4121L 151.66 21.0293ZM 148.302 19.377C 148.302 16.3418 147.693 14.0156 146.474 12.3984C 145.255 10.7695 143.55 9.95508 141.359 9.95508C 139.226 9.95508 137.544 10.7695 136.314 12.3984C 135.095 14.0156 134.468 16.2656 134.433 19.1484L 134.433 21.0293C 134.433 23.9707 135.048 26.2852 136.279 27.9727C 137.521 29.6484 139.226 30.4863 141.394 30.4863C 143.574 30.4863 145.261 29.6953 146.457 28.1133C 147.652 26.5195 148.267 24.2402 148.302 21.2754L 148.302 19.377ZM 164.808 28.5176L 172.121 7.40625L 175.812 7.40625L 166.32 33L 163.332 33L 153.857 7.40625L 157.531 7.40625L 164.808 28.5176Z"/>
<path id="path13_fill" d="M 127.894 21.0293C 127.894 23.5371 127.472 25.7285 126.628 27.6035C 125.785 29.4668 124.589 30.8906 123.042 31.875C 121.496 32.8594 119.691 33.3516 117.628 33.3516C 115.613 33.3516 113.826 32.8594 112.267 31.875C 110.708 30.8789 109.496 29.4668 108.628 27.6387C 107.773 25.7988 107.333 23.6719 107.31 21.2578L 107.31 19.4121C 107.31 16.9512 107.738 14.7773 108.593 12.8906C 109.449 11.0039 110.656 9.5625 112.214 8.56641C 113.785 7.55859 115.578 7.05469 117.593 7.05469C 119.644 7.05469 121.449 7.55274 123.007 8.54883C 124.578 9.5332 125.785 10.9687 126.628 12.8555C 127.472 14.7305 127.894 16.916 127.894 19.4121L 127.894 21.0293ZM 124.537 19.377C 124.537 16.3418 123.927 14.0156 122.708 12.3984C 121.49 10.7695 119.785 9.95508 117.593 9.95508C 115.46 9.95508 113.779 10.7695 112.548 12.3984C 111.33 14.0156 110.703 16.2656 110.667 19.1484L 110.667 21.0293C 110.667 23.9707 111.283 26.2852 112.513 27.9727C 113.755 29.6484 115.46 30.4863 117.628 30.4863C 119.808 30.4863 121.496 29.6953 122.691 28.1133C 123.886 26.5195 124.501 24.2402 124.537 21.2754L 124.537 19.377ZM 151.783 24.8789C 151.466 27.5859 150.464 29.6777 148.777 31.1543C 147.101 32.6191 144.869 33.3516 142.08 33.3516C 139.056 33.3516 136.63 32.2676 134.802 30.0996C 132.986 27.9316 132.078 25.0312 132.078 21.3984L 132.078 18.9375C 132.078 16.5586 132.499 14.4668 133.343 12.6621C 134.199 10.8574 135.406 9.47461 136.964 8.51367C 138.523 7.54101 140.328 7.05469 142.378 7.05469C 145.097 7.05469 147.277 7.81641 148.917 9.33984C 150.558 10.8516 151.513 12.9492 151.783 15.6328L 148.39 15.6328C 148.097 13.5938 147.458 12.1172 146.474 11.2031C 145.501 10.2891 144.136 9.83203 142.378 9.83203C 140.222 9.83203 138.529 10.6289 137.298 12.2227C 136.08 13.8164 135.47 16.084 135.47 19.0254L 135.47 21.5039C 135.47 24.2812 136.05 26.4902 137.21 28.1309C 138.371 29.7715 139.994 30.5918 142.08 30.5918C 143.955 30.5918 145.39 30.1699 146.386 29.3262C 147.394 28.4707 148.062 26.9883 148.39 24.8789L 151.783 24.8789ZM 173.562 10.1836L 165.335 10.1836L 165.335 33L 161.978 33L 161.978 10.1836L 153.769 10.1836L 153.769 7.40625L 173.562 7.40625L 173.562 10.1836Z"/>
</defs>
</svg>
