<svg width="109" height="148" viewBox="0 0 109 148" version="1.1" xmlns="http://www.w3.org/2000/svg" xmlns:xlink="http://www.w3.org/1999/xlink">
<title>if Untitled 2 50 536306</title>
<desc>Created using Figma</desc>
<g id="Canvas" transform="translate(-10389 -2467)">
<g id="if Untitled 2 50 536306">
<g id="Group">
<g id="Vector">
<g id="Vector">
<use xlink:href="#path0_fill" transform="translate(10389.8 2467)" fill="#FFFFFF"/>
</g>
</g>
</g>
</g>
</g>
<defs>
<path id="path0_fill" d="M 104.408 84.3901C 102.046 80.3739 98.8727 77.2499 94.8498 75.0361C 92.0784 73.437 88.0802 71.9856 82.8361 70.6696C 87.7083 69.0031 91.6259 66.9425 94.6204 64.3963C 97.5896 61.8933 99.8893 58.9905 101.47 55.6882C 103.032 52.3917 103.838 48.917 103.838 45.2393C 103.838 40.2086 102.344 35.5715 99.3562 31.3465C 96.3498 27.1461 92.0784 23.8927 86.5305 21.648C 83.301 20.338 79.2966 19.4524 74.6842 18.9112L 74.6842 2.55225L 59.0196 0L 59.0196 18.247L 48.9342 18.247L 48.9342 1.93724L 33.2695 0L 33.2695 18.247L 1.50588e-15 18.247L 1.50588e-15 33.6404L 4.40122 33.6404C 7.34569 33.6404 9.32933 33.9111 10.3956 34.4153C 11.4308 34.9627 12.1685 35.6699 12.6024 36.5617C 13.0363 37.4719 13.2347 39.569 13.2347 42.8654L 13.2347 104.808C 13.2347 108.018 13.0239 110.122 12.6024 111.063C 12.1685 111.979 11.437 112.693 10.3956 113.215C 9.33553 113.701 7.34569 113.953 4.40122 113.953L 1.50588e-15 113.953L 1.50588e-15 129.353L 33.2695 129.353L 33.2695 144.666L 48.9218 147.6L 48.9218 129.353L 58.6538 129.353C 58.7778 129.353 58.8894 129.341 59.0258 129.341L 59.0258 144.98L 74.678 147.6L 74.678 128.43C 79.7244 127.79 83.9891 126.763 87.3798 125.441C 93.9256 122.834 98.9905 119.039 102.567 114.082C 106.162 109.113 107.935 103.701 107.935 97.8092C 107.929 92.8772 106.745 88.4063 104.408 84.3901ZM 40.9314 36.1804L 53.2052 36.1804C 60.3714 36.1804 65.3304 36.6232 68.126 37.5027C 70.9154 38.3821 73.0354 39.8642 74.4983 41.8999C 75.9674 44.0032 76.7174 46.4939 76.7174 49.3967C 76.7174 52.2318 75.9364 54.698 74.3805 56.8625C 72.8246 59.0152 70.5125 60.6204 67.438 61.6597C 64.3634 62.7422 59.6146 63.2588 53.199 63.2588L 40.9252 63.2588L 40.9252 36.1804L 40.9314 36.1804ZM 75.5955 104.814C 73.4073 107.576 70.7605 109.378 67.6363 110.257C 64.5246 111.143 60.576 111.591 55.8273 111.591L 47.6572 111.591C 44.9297 111.591 43.2622 111.45 42.6485 111.155C 42.0224 110.848 41.5885 110.337 41.3219 109.605C 41.0926 109.009 40.9748 107.035 40.9314 103.609L 40.9314 79.5806L 55.3934 79.5806C 61.7661 79.5806 66.4958 80.1712 69.5827 81.3335C 72.6697 82.4957 75.0004 84.2301 76.5377 86.5119C 78.1065 88.7937 78.8627 91.5859 78.8627 94.8822C 78.8813 98.726 77.7842 102.04 75.5955 104.814Z"/>
</defs>
</svg>
