<svg width="105" height="169" viewBox="0 0 105 169" version="1.1" xmlns="http://www.w3.org/2000/svg" xmlns:xlink="http://www.w3.org/1999/xlink">
<title>eth</title>
<desc>Created using Figma</desc>
<g id="Canvas" transform="translate(-13944 -2456)">
<g id="eth">
<g id="Group">
<g id="Vector">
<use xlink:href="#path0_fill" transform="translate(13944 2520.68)" fill="#FFFFFF"/>
</g>
<g id="Vector">
<use xlink:href="#path1_fill" transform="translate(13945.6 2456.03)" fill="#FFFFFF"/>
</g>
<g id="Vector">
<use xlink:href="#path2_fill" transform="translate(13998.1 2456)" fill="#FFFFFF"/>
</g>
<g id="Vector">
<use xlink:href="#path3_fill" transform="translate(13998.1 2520.68)" fill="#FFFFFF"/>
</g>
<g id="Vector">
<use xlink:href="#path4_fill" transform="translate(13944.3 2553.61)" fill="#FFFFFF"/>
</g>
<g id="Vector">
<use xlink:href="#path5_fill" transform="translate(13998.1 2553.61)" fill="#FFFFFF"/>
</g>
</g>
</g>
</g>
<defs>
<path id="path0_fill" d="M 50.8434 52.018L 50.8434 -1.94967e-06L 7.0327e-07 22.2564L 50.8434 52.018Z"/>
<path id="path1_fill" d="M 49.205 61.078L 49.205 -1.28408e-09L -3.62978e-07 82.6161L 49.205 61.078Z"/>
<path id="path2_fill" d="M -1.49728e-06 -2.65671e-09L -1.49728e-06 61.1033L 49.8963 82.9459L -1.49728e-06 -2.65671e-09Z"/>
<path id="path3_fill" d="M -1.49728e-06 -1.94967e-06L -1.49728e-06 52.0195L 50.8791 22.2712L -1.49728e-06 -1.94967e-06Z"/>
<path id="path4_fill" d="M 50.5014 71.3869L 50.5014 29.5477L 2.26861e-08 -1.81365e-06L 50.5014 71.3869Z"/>
<path id="path5_fill" d="M -1.49728e-06 71.3869L 50.5014 -1.81365e-06L -1.49728e-06 29.5477L -1.49728e-06 71.3869Z"/>
</defs>
</svg>
