<svg width="1569" height="918" viewBox="0 0 1569 918" version="1.1" xmlns="http://www.w3.org/2000/svg" xmlns:xlink="http://www.w3.org/1999/xlink">
<title>Group 4.1</title>
<desc>Created using Figma</desc>
<g id="Canvas" transform="translate(-11886 -3027)">
<g id="Group 4.1">
<g id="Group 2">
<g id="Rectangle 2.1">
<use xlink:href="#path0_fill" transform="translate(12023.1 3029.09)" fill="#E0E0E0"/>
</g>
<g id="Rectangle 2.2">
<use xlink:href="#path0_fill" transform="translate(12023.1 3240.72)" fill="#E0E0E0"/>
</g>
<g id="Rectangle 2.3">
<use xlink:href="#path0_fill" transform="translate(12023.1 3452.36)" fill="#E0E0E0"/>
</g>
<g id="Rectangle 2.4">
<use xlink:href="#path0_fill" transform="translate(12023.1 3663.99)" fill="#E0E0E0"/>
</g>
<g id="Rectangle 2.5">
<use xlink:href="#path0_fill" transform="translate(12023.1 3875.62)" fill="#E0E0E0"/>
</g>
</g>
<g id="Group 3">
<g id="8000,00">
<use xlink:href="#path1_fill" transform="translate(11819 3020)" fill="#FFFFFF"/>
</g>
<g id="6000,00">
<use xlink:href="#path2_fill" transform="translate(11843.8 3231.68)" fill="#FFFFFF"/>
</g>
<g id="4000,00">
<use xlink:href="#path3_fill" transform="translate(11843.8 3440.18)" fill="#FFFFFF"/>
</g>
<g id="2000,00">
<use xlink:href="#path4_fill" transform="translate(11843.8 3655.05)" fill="#FFFFFF"/>
</g>
<g id="0,00">
<use xlink:href="#path5_fill" transform="translate(11843.4 3861.35)" fill="#FFFFFF"/>
</g>
</g>
<g id="Group 4">
<g id="JAN">
<use xlink:href="#path6_fill" transform="translate(12023.1 3911.14)" fill="#FFFFFF"/>
</g>
<g id="APR">
<use xlink:href="#path7_fill" transform="translate(12311.3 3911.14)" fill="#FFFFFF"/>
</g>
<g id="JUL">
<use xlink:href="#path8_fill" transform="translate(12599.5 3911.14)" fill="#FFFFFF"/>
</g>
<g id="NOV">
<use xlink:href="#path9_fill" transform="translate(13175.4 3911.14)" fill="#FFFFFF"/>
</g>
<g id="OCT">
<use xlink:href="#path10_fill" transform="translate(12887.7 3911.14)" fill="#FFFFFF"/>
</g>
</g>
<g id="Vector">
<use xlink:href="#path11_stroke" transform="translate(12025.1 3086.9)" fill="#FFFFFF"/>
</g>
<g id="Ellipse">
<g id="Ellipse">
<use xlink:href="#path12_fill" transform="translate(13285 3057)" fill="#FFFFFF"/>
<mask id="mask0_outline_ins">
<use xlink:href="#path12_fill" fill="white" transform="translate(13285 3057)"/>
</mask>
<g mask="url(#mask0_outline_ins)">
<use xlink:href="#path13_stroke_2x" transform="translate(13285 3057)" fill="#5E5E5E" fill-opacity="0.2"/>
</g>
</g>
</g>
<g id="Ellipse">
<g id="Ellipse">
<use xlink:href="#path12_fill" transform="translate(12996.9 3150.53)" fill="#FFFFFF"/>
<mask id="mask1_outline_ins">
<use xlink:href="#path12_fill" fill="white" transform="translate(12996.9 3150.53)"/>
</mask>
<g mask="url(#mask1_outline_ins)">
<use xlink:href="#path13_stroke_2x" transform="translate(12996.9 3150.53)" fill="#5E5E5E" fill-opacity="0.2"/>
</g>
</g>
</g>
<g id="Ellipse">
<g id="Ellipse">
<use xlink:href="#path12_fill" transform="translate(12709 3562.33)" fill="#FFFFFF"/>
<mask id="mask2_outline_ins">
<use xlink:href="#path12_fill" fill="white" transform="translate(12709 3562.33)"/>
</mask>
<g mask="url(#mask2_outline_ins)">
<use xlink:href="#path13_stroke_2x" transform="translate(12709 3562.33)" fill="#5E5E5E" fill-opacity="0.2"/>
</g>
</g>
</g>
<g id="Ellipse">
<g id="Ellipse">
<use xlink:href="#path12_fill" transform="translate(12421.1 3728.6)" fill="#FFFFFF"/>
<mask id="mask3_outline_ins">
<use xlink:href="#path12_fill" fill="white" transform="translate(12421.1 3728.6)"/>
</mask>
<g mask="url(#mask3_outline_ins)">
<use xlink:href="#path13_stroke_2x" transform="translate(12421.1 3728.6)" fill="#5E5E5E" fill-opacity="0.2"/>
</g>
</g>
</g>
<g id="Ellipse">
<g id="Ellipse">
<use xlink:href="#path12_fill" transform="translate(12132.3 3776.67)" fill="#FFFFFF"/>
<mask id="mask4_outline_ins">
<use xlink:href="#path12_fill" fill="white" transform="translate(12132.3 3776.67)"/>
</mask>
<g mask="url(#mask4_outline_ins)">
<use xlink:href="#path13_stroke_2x" transform="translate(12132.3 3776.67)" fill="#5E5E5E" fill-opacity="0.2"/>
</g>
</g>
</g>
</g>
</g>
<defs>
<path id="path0_fill" d="M 0 0L 1431.86 0L 1431.86 5.64351L 0 5.64351L 0 0Z"/>
<path id="path1_fill" d="M 84.5582 14.0859C 84.5582 15.3633 84.2183 16.5 83.5387 17.4961C 82.8707 18.4922 81.9625 19.2715 80.814 19.834C 82.15 20.4082 83.2047 21.2461 83.9781 22.3477C 84.7633 23.4492 85.1558 24.6973 85.1558 26.0918C 85.1558 28.3066 84.4058 30.0703 82.9058 31.3828C 81.4176 32.6953 79.4547 33.3516 77.0172 33.3516C 74.5562 33.3516 72.5816 32.6953 71.0933 31.3828C 69.6168 30.0586 68.8785 28.2949 68.8785 26.0918C 68.8785 24.709 69.2535 23.4609 70.0035 22.3477C 70.7652 21.2344 71.814 20.3906 73.15 19.8164C 72.0133 19.2539 71.1168 18.4746 70.4605 17.4785C 69.8043 16.4824 69.4762 15.3516 69.4762 14.0859C 69.4762 11.9297 70.1676 10.2188 71.5504 8.95312C 72.9332 7.6875 74.7554 7.05469 77.0172 7.05469C 79.2672 7.05469 81.0836 7.6875 82.4664 8.95312C 83.8609 10.2188 84.5582 11.9297 84.5582 14.0859ZM 81.9039 26.0215C 81.9039 24.5918 81.4469 23.4258 80.5328 22.5234C 79.6304 21.6211 78.4469 21.1699 76.982 21.1699C 75.5172 21.1699 74.3394 21.6152 73.4488 22.5059C 72.5699 23.3965 72.1304 24.5684 72.1304 26.0215C 72.1304 27.4746 72.5582 28.6172 73.4137 29.4492C 74.2808 30.2812 75.482 30.6973 77.0172 30.6973C 78.5406 30.6973 79.7359 30.2812 80.6031 29.4492C 81.4703 28.6055 81.9039 27.4629 81.9039 26.0215ZM 77.0172 9.72656C 75.7398 9.72656 74.7027 10.125 73.9058 10.9219C 73.1207 11.707 72.7281 12.7793 72.7281 14.1387C 72.7281 15.4395 73.1148 16.4941 73.8883 17.3027C 74.6734 18.0996 75.7164 18.498 77.0172 18.498C 78.3179 18.498 79.3551 18.0996 80.1285 17.3027C 80.9137 16.4941 81.3062 15.4395 81.3062 14.1387C 81.3062 12.8379 80.9019 11.7773 80.0933 10.957C 79.2847 10.1367 78.2594 9.72656 77.0172 9.72656ZM 105.3 22.084C 105.3 25.8926 104.65 28.7227 103.349 30.5742C 102.048 32.4258 100.015 33.3516 97.2496 33.3516C 94.5191 33.3516 92.4976 32.4492 91.1851 30.6445C 89.8726 28.8281 89.1929 26.1211 89.1461 22.5234L 89.1461 18.1816C 89.1461 14.4199 89.7965 11.625 91.0972 9.79688C 92.398 7.96875 94.4371 7.05469 97.2144 7.05469C 99.9683 7.05469 101.996 7.93945 103.296 9.70898C 104.597 11.4668 105.265 14.1855 105.3 17.8652L 105.3 22.084ZM 102.048 17.6367C 102.048 14.8828 101.662 12.8789 100.888 11.625C 100.115 10.3594 98.8902 9.72656 97.2144 9.72656C 95.5504 9.72656 94.3375 10.3535 93.5758 11.6074C 92.814 12.8613 92.4215 14.7891 92.398 17.3906L 92.398 22.5938C 92.398 25.3594 92.7965 27.4043 93.5933 28.7285C 94.4019 30.041 95.6207 30.6973 97.2496 30.6973C 98.8551 30.6973 100.045 30.0762 100.818 28.834C 101.603 27.5918 102.013 25.6348 102.048 22.9629L 102.048 17.6367ZM 125.515 22.084C 125.515 25.8926 124.865 28.7227 123.564 30.5742C 122.263 32.4258 120.23 33.3516 117.464 33.3516C 114.734 33.3516 112.712 32.4492 111.4 30.6445C 110.087 28.8281 109.408 26.1211 109.361 22.5234L 109.361 18.1816C 109.361 14.4199 110.011 11.625 111.312 9.79688C 112.613 7.96875 114.652 7.05469 117.429 7.05469C 120.183 7.05469 122.211 7.93945 123.511 9.70898C 124.812 11.4668 125.48 14.1855 125.515 17.8652L 125.515 22.084ZM 122.263 17.6367C 122.263 14.8828 121.877 12.8789 121.103 11.625C 120.33 10.3594 119.105 9.72656 117.429 9.72656C 115.765 9.72656 114.552 10.3535 113.791 11.6074C 113.029 12.8613 112.636 14.7891 112.613 17.3906L 112.613 22.5938C 112.613 25.3594 113.011 27.4043 113.808 28.7285C 114.617 30.041 115.836 30.6973 117.464 30.6973C 119.07 30.6973 120.259 30.0762 121.033 28.834C 121.818 27.5918 122.228 25.6348 122.263 22.9629L 122.263 17.6367ZM 145.73 22.084C 145.73 25.8926 145.08 28.7227 143.779 30.5742C 142.478 32.4258 140.445 33.3516 137.679 33.3516C 134.949 33.3516 132.927 32.4492 131.615 30.6445C 130.302 28.8281 129.623 26.1211 129.576 22.5234L 129.576 18.1816C 129.576 14.4199 130.226 11.625 131.527 9.79688C 132.828 7.96875 134.867 7.05469 137.644 7.05469C 140.398 7.05469 142.425 7.93945 143.726 9.70898C 145.027 11.4668 145.695 14.1855 145.73 17.8652L 145.73 22.084ZM 142.478 17.6367C 142.478 14.8828 142.091 12.8789 141.318 11.625C 140.545 10.3594 139.32 9.72656 137.644 9.72656C 135.98 9.72656 134.767 10.3535 134.005 11.6074C 133.244 12.8613 132.851 14.7891 132.828 17.3906L 132.828 22.5938C 132.828 25.3594 133.226 27.4043 134.023 28.7285C 134.832 30.041 136.05 30.6973 137.679 30.6973C 139.285 30.6973 140.474 30.0762 141.248 28.834C 142.033 27.5918 142.443 25.6348 142.478 22.9629L 142.478 17.6367ZM 150.125 38.0977L 148.279 36.832C 149.38 35.2969 149.955 33.7148 150.002 32.0859L 150.002 29.1504L 153.183 29.1504L 153.183 31.6992C 153.183 32.8828 152.89 34.0664 152.304 35.25C 151.73 36.4336 151.003 37.3828 150.125 38.0977ZM 173.011 22.084C 173.011 25.8926 172.361 28.7227 171.06 30.5742C 169.759 32.4258 167.726 33.3516 164.961 33.3516C 162.23 33.3516 160.209 32.4492 158.896 30.6445C 157.584 28.8281 156.904 26.1211 156.857 22.5234L 156.857 18.1816C 156.857 14.4199 157.507 11.625 158.808 9.79688C 160.109 7.96875 162.148 7.05469 164.925 7.05469C 167.679 7.05469 169.707 7.93945 171.007 9.70898C 172.308 11.4668 172.976 14.1855 173.011 17.8652L 173.011 22.084ZM 169.759 17.6367C 169.759 14.8828 169.373 12.8789 168.599 11.625C 167.826 10.3594 166.601 9.72656 164.925 9.72656C 163.261 9.72656 162.048 10.3535 161.287 11.6074C 160.525 12.8613 160.132 14.7891 160.109 17.3906L 160.109 22.5938C 160.109 25.3594 160.507 27.4043 161.304 28.7285C 162.113 30.041 163.332 30.6973 164.961 30.6973C 166.566 30.6973 167.755 30.0762 168.529 28.834C 169.314 27.5918 169.724 25.6348 169.759 22.9629L 169.759 17.6367ZM 193.226 22.084C 193.226 25.8926 192.576 28.7227 191.275 30.5742C 189.974 32.4258 187.941 33.3516 185.175 33.3516C 182.445 33.3516 180.423 32.4492 179.111 30.6445C 177.798 28.8281 177.119 26.1211 177.072 22.5234L 177.072 18.1816C 177.072 14.4199 177.722 11.625 179.023 9.79688C 180.324 7.96875 182.363 7.05469 185.14 7.05469C 187.894 7.05469 189.921 7.93945 191.222 9.70898C 192.523 11.4668 193.191 14.1855 193.226 17.8652L 193.226 22.084ZM 189.974 17.6367C 189.974 14.8828 189.587 12.8789 188.814 11.625C 188.041 10.3594 186.816 9.72656 185.14 9.72656C 183.476 9.72656 182.263 10.3535 181.502 11.6074C 180.74 12.8613 180.347 14.7891 180.324 17.3906L 180.324 22.5938C 180.324 25.3594 180.722 27.4043 181.519 28.7285C 182.328 30.041 183.546 30.6973 185.175 30.6973C 186.781 30.6973 187.97 30.0762 188.744 28.834C 189.529 27.5918 189.939 25.6348 189.974 22.9629L 189.974 17.6367Z"/>
<path id="path2_fill" d="M 57.0365 7.38867L 57.0365 10.1484L 56.4389 10.1484C 53.9076 10.1953 51.892 10.9453 50.392 12.3984C 48.892 13.8516 48.0248 15.8965 47.7904 18.5332C 49.1381 16.9863 50.9779 16.2129 53.31 16.2129C 55.5365 16.2129 57.3119 16.998 58.6361 18.5684C 59.9721 20.1387 60.64 22.166 60.64 24.6504C 60.64 27.2871 59.9193 29.3965 58.4779 30.9785C 57.0482 32.5605 55.1264 33.3516 52.7123 33.3516C 50.2631 33.3516 48.2768 32.4141 46.7533 30.5391C 45.2299 28.6523 44.4682 26.2266 44.4682 23.2617L 44.4682 22.0137C 44.4682 17.3027 45.4701 13.7051 47.474 11.2207C 49.4897 8.72461 52.4838 7.44727 56.4565 7.38867L 57.0365 7.38867ZM 52.765 18.9199C 51.6518 18.9199 50.6264 19.2539 49.6889 19.9219C 48.7514 20.5898 48.101 21.4277 47.7377 22.4355L 47.7377 23.6309C 47.7377 25.7402 48.2123 27.4395 49.1615 28.7285C 50.1107 30.0176 51.2943 30.6621 52.7123 30.6621C 54.1772 30.6621 55.3256 30.123 56.1576 29.0449C 57.0014 27.9668 57.4232 26.5547 57.4232 24.8086C 57.4232 23.0508 56.9955 21.6328 56.14 20.5547C 55.2963 19.4648 54.1713 18.9199 52.765 18.9199ZM 80.5385 22.084C 80.5385 25.8926 79.8881 28.7227 78.5873 30.5742C 77.2865 32.4258 75.2533 33.3516 72.4877 33.3516C 69.7572 33.3516 67.7357 32.4492 66.4232 30.6445C 65.1107 28.8281 64.4311 26.1211 64.3842 22.5234L 64.3842 18.1816C 64.3842 14.4199 65.0346 11.625 66.3354 9.79688C 67.6361 7.96875 69.6752 7.05469 72.4525 7.05469C 75.2065 7.05469 77.2338 7.93945 78.5346 9.70898C 79.8354 11.4668 80.5033 14.1855 80.5385 17.8652L 80.5385 22.084ZM 77.2865 17.6367C 77.2865 14.8828 76.8998 12.8789 76.1264 11.625C 75.3529 10.3594 74.1283 9.72656 72.4525 9.72656C 70.7885 9.72656 69.5756 10.3535 68.8139 11.6074C 68.0522 12.8613 67.6596 14.7891 67.6361 17.3906L 67.6361 22.5938C 67.6361 25.3594 68.0346 27.4043 68.8315 28.7285C 69.64 30.041 70.8588 30.6973 72.4877 30.6973C 74.0932 30.6973 75.2826 30.0762 76.0561 28.834C 76.8412 27.5918 77.2514 25.6348 77.2865 22.9629L 77.2865 17.6367ZM 100.753 22.084C 100.753 25.8926 100.103 28.7227 98.8022 30.5742C 97.5014 32.4258 95.4682 33.3516 92.7025 33.3516C 89.9721 33.3516 87.9506 32.4492 86.6381 30.6445C 85.3256 28.8281 84.6459 26.1211 84.599 22.5234L 84.599 18.1816C 84.599 14.4199 85.2494 11.625 86.5502 9.79688C 87.851 7.96875 89.89 7.05469 92.6674 7.05469C 95.4213 7.05469 97.4486 7.93945 98.7494 9.70898C 100.05 11.4668 100.718 14.1855 100.753 17.8652L 100.753 22.084ZM 97.5014 17.6367C 97.5014 14.8828 97.1147 12.8789 96.3412 11.625C 95.5678 10.3594 94.3432 9.72656 92.6674 9.72656C 91.0033 9.72656 89.7904 10.3535 89.0287 11.6074C 88.267 12.8613 87.8744 14.7891 87.851 17.3906L 87.851 22.5938C 87.851 25.3594 88.2494 27.4043 89.0463 28.7285C 89.8549 30.041 91.0736 30.6973 92.7025 30.6973C 94.308 30.6973 95.4975 30.0762 96.2709 28.834C 97.0561 27.5918 97.4662 25.6348 97.5014 22.9629L 97.5014 17.6367ZM 120.968 22.084C 120.968 25.8926 120.318 28.7227 119.017 30.5742C 117.716 32.4258 115.683 33.3516 112.917 33.3516C 110.187 33.3516 108.165 32.4492 106.853 30.6445C 105.54 28.8281 104.861 26.1211 104.814 22.5234L 104.814 18.1816C 104.814 14.4199 105.464 11.625 106.765 9.79688C 108.066 7.96875 110.105 7.05469 112.882 7.05469C 115.636 7.05469 117.663 7.93945 118.964 9.70898C 120.265 11.4668 120.933 14.1855 120.968 17.8652L 120.968 22.084ZM 117.716 17.6367C 117.716 14.8828 117.329 12.8789 116.556 11.625C 115.783 10.3594 114.558 9.72656 112.882 9.72656C 111.218 9.72656 110.005 10.3535 109.244 11.6074C 108.482 12.8613 108.089 14.7891 108.066 17.3906L 108.066 22.5938C 108.066 25.3594 108.464 27.4043 109.261 28.7285C 110.07 30.041 111.288 30.6973 112.917 30.6973C 114.523 30.6973 115.712 30.0762 116.486 28.834C 117.271 27.5918 117.681 25.6348 117.716 22.9629L 117.716 17.6367ZM 125.363 38.0977L 123.517 36.832C 124.619 35.2969 125.193 33.7148 125.24 32.0859L 125.24 29.1504L 128.421 29.1504L 128.421 31.6992C 128.421 32.8828 128.128 34.0664 127.542 35.25C 126.968 36.4336 126.242 37.3828 125.363 38.0977ZM 148.249 22.084C 148.249 25.8926 147.599 28.7227 146.298 30.5742C 144.997 32.4258 142.964 33.3516 140.199 33.3516C 137.468 33.3516 135.447 32.4492 134.134 30.6445C 132.822 28.8281 132.142 26.1211 132.095 22.5234L 132.095 18.1816C 132.095 14.4199 132.746 11.625 134.046 9.79688C 135.347 7.96875 137.386 7.05469 140.163 7.05469C 142.917 7.05469 144.945 7.93945 146.246 9.70898C 147.546 11.4668 148.214 14.1855 148.249 17.8652L 148.249 22.084ZM 144.997 17.6367C 144.997 14.8828 144.611 12.8789 143.837 11.625C 143.064 10.3594 141.839 9.72656 140.163 9.72656C 138.499 9.72656 137.287 10.3535 136.525 11.6074C 135.763 12.8613 135.371 14.7891 135.347 17.3906L 135.347 22.5938C 135.347 25.3594 135.746 27.4043 136.542 28.7285C 137.351 30.041 138.57 30.6973 140.199 30.6973C 141.804 30.6973 142.994 30.0762 143.767 28.834C 144.552 27.5918 144.962 25.6348 144.997 22.9629L 144.997 17.6367ZM 168.464 22.084C 168.464 25.8926 167.814 28.7227 166.513 30.5742C 165.212 32.4258 163.179 33.3516 160.413 33.3516C 157.683 33.3516 155.662 32.4492 154.349 30.6445C 153.037 28.8281 152.357 26.1211 152.31 22.5234L 152.31 18.1816C 152.31 14.4199 152.96 11.625 154.261 9.79688C 155.562 7.96875 157.601 7.05469 160.378 7.05469C 163.132 7.05469 165.16 7.93945 166.46 9.70898C 167.761 11.4668 168.429 14.1855 168.464 17.8652L 168.464 22.084ZM 165.212 17.6367C 165.212 14.8828 164.826 12.8789 164.052 11.625C 163.279 10.3594 162.054 9.72656 160.378 9.72656C 158.714 9.72656 157.501 10.3535 156.74 11.6074C 155.978 12.8613 155.585 14.7891 155.562 17.3906L 155.562 22.5938C 155.562 25.3594 155.96 27.4043 156.757 28.7285C 157.566 30.041 158.785 30.6973 160.413 30.6973C 162.019 30.6973 163.208 30.0762 163.982 28.834C 164.767 27.5918 165.177 25.6348 165.212 22.9629L 165.212 17.6367Z"/>
<path id="path3_fill" d="M 58.0033 24.4043L 61.5541 24.4043L 61.5541 27.0586L 58.0033 27.0586L 58.0033 33L 54.7338 33L 54.7338 27.0586L 43.0795 27.0586L 43.0795 25.1426L 54.5404 7.40625L 58.0033 7.40625L 58.0033 24.4043ZM 46.7709 24.4043L 54.7338 24.4043L 54.7338 11.8535L 54.3471 12.5566L 46.7709 24.4043ZM 80.5385 22.084C 80.5385 25.8926 79.8881 28.7227 78.5873 30.5742C 77.2865 32.4258 75.2533 33.3516 72.4877 33.3516C 69.7572 33.3516 67.7357 32.4492 66.4232 30.6445C 65.1107 28.8281 64.4311 26.1211 64.3842 22.5234L 64.3842 18.1816C 64.3842 14.4199 65.0346 11.625 66.3354 9.79688C 67.6361 7.96875 69.6752 7.05469 72.4525 7.05469C 75.2065 7.05469 77.2338 7.93945 78.5346 9.70898C 79.8354 11.4668 80.5033 14.1855 80.5385 17.8652L 80.5385 22.084ZM 77.2865 17.6367C 77.2865 14.8828 76.8998 12.8789 76.1264 11.625C 75.3529 10.3594 74.1283 9.72656 72.4525 9.72656C 70.7885 9.72656 69.5756 10.3535 68.8139 11.6074C 68.0522 12.8613 67.6596 14.7891 67.6361 17.3906L 67.6361 22.5938C 67.6361 25.3594 68.0346 27.4043 68.8315 28.7285C 69.64 30.041 70.8588 30.6973 72.4877 30.6973C 74.0932 30.6973 75.2826 30.0762 76.0561 28.834C 76.8412 27.5918 77.2514 25.6348 77.2865 22.9629L 77.2865 17.6367ZM 100.753 22.084C 100.753 25.8926 100.103 28.7227 98.8022 30.5742C 97.5014 32.4258 95.4682 33.3516 92.7025 33.3516C 89.9721 33.3516 87.9506 32.4492 86.6381 30.6445C 85.3256 28.8281 84.6459 26.1211 84.599 22.5234L 84.599 18.1816C 84.599 14.4199 85.2494 11.625 86.5502 9.79688C 87.851 7.96875 89.89 7.05469 92.6674 7.05469C 95.4213 7.05469 97.4486 7.93945 98.7494 9.70898C 100.05 11.4668 100.718 14.1855 100.753 17.8652L 100.753 22.084ZM 97.5014 17.6367C 97.5014 14.8828 97.1147 12.8789 96.3412 11.625C 95.5678 10.3594 94.3432 9.72656 92.6674 9.72656C 91.0033 9.72656 89.7904 10.3535 89.0287 11.6074C 88.267 12.8613 87.8744 14.7891 87.851 17.3906L 87.851 22.5938C 87.851 25.3594 88.2494 27.4043 89.0463 28.7285C 89.8549 30.041 91.0736 30.6973 92.7025 30.6973C 94.308 30.6973 95.4975 30.0762 96.2709 28.834C 97.0561 27.5918 97.4662 25.6348 97.5014 22.9629L 97.5014 17.6367ZM 120.968 22.084C 120.968 25.8926 120.318 28.7227 119.017 30.5742C 117.716 32.4258 115.683 33.3516 112.917 33.3516C 110.187 33.3516 108.165 32.4492 106.853 30.6445C 105.54 28.8281 104.861 26.1211 104.814 22.5234L 104.814 18.1816C 104.814 14.4199 105.464 11.625 106.765 9.79688C 108.066 7.96875 110.105 7.05469 112.882 7.05469C 115.636 7.05469 117.663 7.93945 118.964 9.70898C 120.265 11.4668 120.933 14.1855 120.968 17.8652L 120.968 22.084ZM 117.716 17.6367C 117.716 14.8828 117.329 12.8789 116.556 11.625C 115.783 10.3594 114.558 9.72656 112.882 9.72656C 111.218 9.72656 110.005 10.3535 109.244 11.6074C 108.482 12.8613 108.089 14.7891 108.066 17.3906L 108.066 22.5938C 108.066 25.3594 108.464 27.4043 109.261 28.7285C 110.07 30.041 111.288 30.6973 112.917 30.6973C 114.523 30.6973 115.712 30.0762 116.486 28.834C 117.271 27.5918 117.681 25.6348 117.716 22.9629L 117.716 17.6367ZM 125.363 38.0977L 123.517 36.832C 124.619 35.2969 125.193 33.7148 125.24 32.0859L 125.24 29.1504L 128.421 29.1504L 128.421 31.6992C 128.421 32.8828 128.128 34.0664 127.542 35.25C 126.968 36.4336 126.242 37.3828 125.363 38.0977ZM 148.249 22.084C 148.249 25.8926 147.599 28.7227 146.298 30.5742C 144.997 32.4258 142.964 33.3516 140.199 33.3516C 137.468 33.3516 135.447 32.4492 134.134 30.6445C 132.822 28.8281 132.142 26.1211 132.095 22.5234L 132.095 18.1816C 132.095 14.4199 132.746 11.625 134.046 9.79688C 135.347 7.96875 137.386 7.05469 140.163 7.05469C 142.917 7.05469 144.945 7.93945 146.246 9.70898C 147.546 11.4668 148.214 14.1855 148.249 17.8652L 148.249 22.084ZM 144.997 17.6367C 144.997 14.8828 144.611 12.8789 143.837 11.625C 143.064 10.3594 141.839 9.72656 140.163 9.72656C 138.499 9.72656 137.287 10.3535 136.525 11.6074C 135.763 12.8613 135.371 14.7891 135.347 17.3906L 135.347 22.5938C 135.347 25.3594 135.746 27.4043 136.542 28.7285C 137.351 30.041 138.57 30.6973 140.199 30.6973C 141.804 30.6973 142.994 30.0762 143.767 28.834C 144.552 27.5918 144.962 25.6348 144.997 22.9629L 144.997 17.6367ZM 168.464 22.084C 168.464 25.8926 167.814 28.7227 166.513 30.5742C 165.212 32.4258 163.179 33.3516 160.413 33.3516C 157.683 33.3516 155.662 32.4492 154.349 30.6445C 153.037 28.8281 152.357 26.1211 152.31 22.5234L 152.31 18.1816C 152.31 14.4199 152.96 11.625 154.261 9.79688C 155.562 7.96875 157.601 7.05469 160.378 7.05469C 163.132 7.05469 165.16 7.93945 166.46 9.70898C 167.761 11.4668 168.429 14.1855 168.464 17.8652L 168.464 22.084ZM 165.212 17.6367C 165.212 14.8828 164.826 12.8789 164.052 11.625C 163.279 10.3594 162.054 9.72656 160.378 9.72656C 158.714 9.72656 157.501 10.3535 156.74 11.6074C 155.978 12.8613 155.585 14.7891 155.562 17.3906L 155.562 22.5938C 155.562 25.3594 155.96 27.4043 156.757 28.7285C 157.566 30.041 158.785 30.6973 160.413 30.6973C 162.019 30.6973 163.208 30.0762 163.982 28.834C 164.767 27.5918 165.177 25.6348 165.212 22.9629L 165.212 17.6367Z"/>
<path id="path4_fill" d="M 61.0443 33L 44.2748 33L 44.2748 30.6621L 53.1342 20.8184C 54.4467 19.3301 55.349 18.123 55.8412 17.1973C 56.3451 16.2598 56.5971 15.293 56.5971 14.2969C 56.5971 12.9609 56.1928 11.8652 55.3842 11.0098C 54.5756 10.1543 53.4975 9.72656 52.1498 9.72656C 50.5326 9.72656 49.2729 10.1895 48.3705 11.1152C 47.4799 12.0293 47.0346 13.3066 47.0346 14.9473L 43.7826 14.9473C 43.7826 12.5918 44.5385 10.6875 46.0502 9.23438C 47.5736 7.78125 49.6068 7.05469 52.1498 7.05469C 54.5287 7.05469 56.4096 7.68164 57.7924 8.93555C 59.1752 10.1777 59.8666 11.8359 59.8666 13.9102C 59.8666 16.4297 58.2611 19.4297 55.0502 22.9102L 48.1947 30.3457L 61.0443 30.3457L 61.0443 33ZM 80.5385 22.084C 80.5385 25.8926 79.8881 28.7227 78.5873 30.5742C 77.2865 32.4258 75.2533 33.3516 72.4877 33.3516C 69.7572 33.3516 67.7357 32.4492 66.4232 30.6445C 65.1107 28.8281 64.4311 26.1211 64.3842 22.5234L 64.3842 18.1816C 64.3842 14.4199 65.0346 11.625 66.3354 9.79688C 67.6361 7.96875 69.6752 7.05469 72.4525 7.05469C 75.2065 7.05469 77.2338 7.93945 78.5346 9.70898C 79.8354 11.4668 80.5033 14.1855 80.5385 17.8652L 80.5385 22.084ZM 77.2865 17.6367C 77.2865 14.8828 76.8998 12.8789 76.1264 11.625C 75.3529 10.3594 74.1283 9.72656 72.4525 9.72656C 70.7885 9.72656 69.5756 10.3535 68.8139 11.6074C 68.0522 12.8613 67.6596 14.7891 67.6361 17.3906L 67.6361 22.5938C 67.6361 25.3594 68.0346 27.4043 68.8315 28.7285C 69.64 30.041 70.8588 30.6973 72.4877 30.6973C 74.0932 30.6973 75.2826 30.0762 76.0561 28.834C 76.8412 27.5918 77.2514 25.6348 77.2865 22.9629L 77.2865 17.6367ZM 100.753 22.084C 100.753 25.8926 100.103 28.7227 98.8022 30.5742C 97.5014 32.4258 95.4682 33.3516 92.7025 33.3516C 89.9721 33.3516 87.9506 32.4492 86.6381 30.6445C 85.3256 28.8281 84.6459 26.1211 84.599 22.5234L 84.599 18.1816C 84.599 14.4199 85.2494 11.625 86.5502 9.79688C 87.851 7.96875 89.89 7.05469 92.6674 7.05469C 95.4213 7.05469 97.4486 7.93945 98.7494 9.70898C 100.05 11.4668 100.718 14.1855 100.753 17.8652L 100.753 22.084ZM 97.5014 17.6367C 97.5014 14.8828 97.1147 12.8789 96.3412 11.625C 95.5678 10.3594 94.3432 9.72656 92.6674 9.72656C 91.0033 9.72656 89.7904 10.3535 89.0287 11.6074C 88.267 12.8613 87.8744 14.7891 87.851 17.3906L 87.851 22.5938C 87.851 25.3594 88.2494 27.4043 89.0463 28.7285C 89.8549 30.041 91.0736 30.6973 92.7025 30.6973C 94.308 30.6973 95.4975 30.0762 96.2709 28.834C 97.0561 27.5918 97.4662 25.6348 97.5014 22.9629L 97.5014 17.6367ZM 120.968 22.084C 120.968 25.8926 120.318 28.7227 119.017 30.5742C 117.716 32.4258 115.683 33.3516 112.917 33.3516C 110.187 33.3516 108.165 32.4492 106.853 30.6445C 105.54 28.8281 104.861 26.1211 104.814 22.5234L 104.814 18.1816C 104.814 14.4199 105.464 11.625 106.765 9.79688C 108.066 7.96875 110.105 7.05469 112.882 7.05469C 115.636 7.05469 117.663 7.93945 118.964 9.70898C 120.265 11.4668 120.933 14.1855 120.968 17.8652L 120.968 22.084ZM 117.716 17.6367C 117.716 14.8828 117.329 12.8789 116.556 11.625C 115.783 10.3594 114.558 9.72656 112.882 9.72656C 111.218 9.72656 110.005 10.3535 109.244 11.6074C 108.482 12.8613 108.089 14.7891 108.066 17.3906L 108.066 22.5938C 108.066 25.3594 108.464 27.4043 109.261 28.7285C 110.07 30.041 111.288 30.6973 112.917 30.6973C 114.523 30.6973 115.712 30.0762 116.486 28.834C 117.271 27.5918 117.681 25.6348 117.716 22.9629L 117.716 17.6367ZM 125.363 38.0977L 123.517 36.832C 124.619 35.2969 125.193 33.7148 125.24 32.0859L 125.24 29.1504L 128.421 29.1504L 128.421 31.6992C 128.421 32.8828 128.128 34.0664 127.542 35.25C 126.968 36.4336 126.242 37.3828 125.363 38.0977ZM 148.249 22.084C 148.249 25.8926 147.599 28.7227 146.298 30.5742C 144.997 32.4258 142.964 33.3516 140.199 33.3516C 137.468 33.3516 135.447 32.4492 134.134 30.6445C 132.822 28.8281 132.142 26.1211 132.095 22.5234L 132.095 18.1816C 132.095 14.4199 132.746 11.625 134.046 9.79688C 135.347 7.96875 137.386 7.05469 140.163 7.05469C 142.917 7.05469 144.945 7.93945 146.246 9.70898C 147.546 11.4668 148.214 14.1855 148.249 17.8652L 148.249 22.084ZM 144.997 17.6367C 144.997 14.8828 144.611 12.8789 143.837 11.625C 143.064 10.3594 141.839 9.72656 140.163 9.72656C 138.499 9.72656 137.287 10.3535 136.525 11.6074C 135.763 12.8613 135.371 14.7891 135.347 17.3906L 135.347 22.5938C 135.347 25.3594 135.746 27.4043 136.542 28.7285C 137.351 30.041 138.57 30.6973 140.199 30.6973C 141.804 30.6973 142.994 30.0762 143.767 28.834C 144.552 27.5918 144.962 25.6348 144.997 22.9629L 144.997 17.6367ZM 168.464 22.084C 168.464 25.8926 167.814 28.7227 166.513 30.5742C 165.212 32.4258 163.179 33.3516 160.413 33.3516C 157.683 33.3516 155.662 32.4492 154.349 30.6445C 153.037 28.8281 152.357 26.1211 152.31 22.5234L 152.31 18.1816C 152.31 14.4199 152.96 11.625 154.261 9.79688C 155.562 7.96875 157.601 7.05469 160.378 7.05469C 163.132 7.05469 165.16 7.93945 166.46 9.70898C 167.761 11.4668 168.429 14.1855 168.464 17.8652L 168.464 22.084ZM 165.212 17.6367C 165.212 14.8828 164.826 12.8789 164.052 11.625C 163.279 10.3594 162.054 9.72656 160.378 9.72656C 158.714 9.72656 157.501 10.3535 156.74 11.6074C 155.978 12.8613 155.585 14.7891 155.562 17.3906L 155.562 22.5938C 155.562 25.3594 155.96 27.4043 156.757 28.7285C 157.566 30.041 158.785 30.6973 160.413 30.6973C 162.019 30.6973 163.208 30.0762 163.982 28.834C 164.767 27.5918 165.177 25.6348 165.212 22.9629L 165.212 17.6367Z"/>
<path id="path5_fill" d="M 121.351 22.084C 121.351 25.8926 120.701 28.7227 119.4 30.5742C 118.099 32.4258 116.066 33.3516 113.3 33.3516C 110.57 33.3516 108.548 32.4492 107.236 30.6445C 105.923 28.8281 105.244 26.1211 105.197 22.5234L 105.197 18.1816C 105.197 14.4199 105.847 11.625 107.148 9.79688C 108.449 7.96875 110.488 7.05469 113.265 7.05469C 116.019 7.05469 118.047 7.93945 119.347 9.70898C 120.648 11.4668 121.316 14.1855 121.351 17.8652L 121.351 22.084ZM 118.099 17.6367C 118.099 14.8828 117.713 12.8789 116.939 11.625C 116.166 10.3594 114.941 9.72656 113.265 9.72656C 111.601 9.72656 110.388 10.3535 109.627 11.6074C 108.865 12.8613 108.472 14.7891 108.449 17.3906L 108.449 22.5938C 108.449 25.3594 108.847 27.4043 109.644 28.7285C 110.453 30.041 111.672 30.6973 113.3 30.6973C 114.906 30.6973 116.095 30.0762 116.869 28.834C 117.654 27.5918 118.064 25.6348 118.099 22.9629L 118.099 17.6367ZM 125.746 38.0977L 123.9 36.832C 125.002 35.2969 125.576 33.7148 125.623 32.0859L 125.623 29.1504L 128.804 29.1504L 128.804 31.6992C 128.804 32.8828 128.511 34.0664 127.925 35.25C 127.351 36.4336 126.625 37.3828 125.746 38.0977ZM 148.632 22.084C 148.632 25.8926 147.982 28.7227 146.681 30.5742C 145.381 32.4258 143.347 33.3516 140.582 33.3516C 137.851 33.3516 135.83 32.4492 134.517 30.6445C 133.205 28.8281 132.525 26.1211 132.478 22.5234L 132.478 18.1816C 132.478 14.4199 133.129 11.625 134.429 9.79688C 135.73 7.96875 137.769 7.05469 140.547 7.05469C 143.3 7.05469 145.328 7.93945 146.629 9.70898C 147.929 11.4668 148.597 14.1855 148.632 17.8652L 148.632 22.084ZM 145.381 17.6367C 145.381 14.8828 144.994 12.8789 144.22 11.625C 143.447 10.3594 142.222 9.72656 140.547 9.72656C 138.882 9.72656 137.67 10.3535 136.908 11.6074C 136.146 12.8613 135.754 14.7891 135.73 17.3906L 135.73 22.5938C 135.73 25.3594 136.129 27.4043 136.925 28.7285C 137.734 30.041 138.953 30.6973 140.582 30.6973C 142.187 30.6973 143.377 30.0762 144.15 28.834C 144.935 27.5918 145.345 25.6348 145.381 22.9629L 145.381 17.6367ZM 168.847 22.084C 168.847 25.8926 168.197 28.7227 166.896 30.5742C 165.595 32.4258 163.562 33.3516 160.797 33.3516C 158.066 33.3516 156.045 32.4492 154.732 30.6445C 153.42 28.8281 152.74 26.1211 152.693 22.5234L 152.693 18.1816C 152.693 14.4199 153.343 11.625 154.644 9.79688C 155.945 7.96875 157.984 7.05469 160.761 7.05469C 163.515 7.05469 165.543 7.93945 166.843 9.70898C 168.144 11.4668 168.812 14.1855 168.847 17.8652L 168.847 22.084ZM 165.595 17.6367C 165.595 14.8828 165.209 12.8789 164.435 11.625C 163.662 10.3594 162.437 9.72656 160.761 9.72656C 159.097 9.72656 157.884 10.3535 157.123 11.6074C 156.361 12.8613 155.968 14.7891 155.945 17.3906L 155.945 22.5938C 155.945 25.3594 156.343 27.4043 157.14 28.7285C 157.949 30.041 159.168 30.6973 160.797 30.6973C 162.402 30.6973 163.591 30.0762 164.365 28.834C 165.15 27.5918 165.56 25.6348 165.595 22.9629L 165.595 17.6367Z"/>
<path id="path6_fill" d="M 119.193 7.40625L 122.585 7.40625L 122.585 25.5293C 122.585 27.9785 121.847 29.8945 120.371 31.2773C 118.906 32.6602 116.949 33.3516 114.499 33.3516C 111.957 33.3516 109.976 32.7012 108.558 31.4004C 107.14 30.0996 106.431 28.2773 106.431 25.9336L 109.806 25.9336C 109.806 27.3984 110.205 28.541 111.001 29.3613C 111.81 30.1816 112.976 30.5918 114.499 30.5918C 115.894 30.5918 117.019 30.1523 117.874 29.2734C 118.742 28.3945 119.181 27.1641 119.193 25.582L 119.193 7.40625ZM 142.08 26.3203L 131.357 26.3203L 128.949 33L 125.468 33L 135.242 7.40625L 138.195 7.40625L 147.986 33L 144.523 33L 142.08 26.3203ZM 132.376 23.543L 141.078 23.543L 136.718 11.5723L 132.376 23.543ZM 171.101 33L 167.708 33L 154.824 13.2773L 154.824 33L 151.431 33L 151.431 7.40625L 154.824 7.40625L 167.744 27.2168L 167.744 7.40625L 171.101 7.40625L 171.101 33Z"/>
<path id="path7_fill" d="M 122.726 26.3203L 112.003 26.3203L 109.595 33L 106.115 33L 115.888 7.40625L 118.841 7.40625L 128.632 33L 125.169 33L 122.726 26.3203ZM 113.023 23.543L 121.724 23.543L 117.365 11.5723L 113.023 23.543ZM 135.453 22.9805L 135.453 33L 132.078 33L 132.078 7.40625L 141.517 7.40625C 144.318 7.40625 146.509 8.12109 148.091 9.55078C 149.685 10.9805 150.482 12.873 150.482 15.2285C 150.482 17.7129 149.703 19.6289 148.144 20.9766C 146.597 22.3125 144.376 22.9805 141.482 22.9805L 135.453 22.9805ZM 135.453 20.2207L 141.517 20.2207C 143.322 20.2207 144.705 19.7988 145.666 18.9551C 146.626 18.0996 147.107 16.8691 147.107 15.2637C 147.107 13.7402 146.626 12.5215 145.666 11.6074C 144.705 10.6934 143.386 10.2188 141.71 10.1836L 135.453 10.1836L 135.453 20.2207ZM 164.175 22.6465L 158.164 22.6465L 158.164 33L 154.771 33L 154.771 7.40625L 163.244 7.40625C 166.126 7.40625 168.341 8.0625 169.888 9.375C 171.447 10.6875 172.226 12.5977 172.226 15.1055C 172.226 16.6992 171.792 18.0879 170.925 19.2715C 170.07 20.4551 168.874 21.3398 167.339 21.9258L 173.351 32.7891L 173.351 33L 169.73 33L 164.175 22.6465ZM 158.164 19.8867L 163.349 19.8867C 165.025 19.8867 166.355 19.4531 167.339 18.5859C 168.335 17.7188 168.833 16.5586 168.833 15.1055C 168.833 13.5234 168.359 12.3105 167.41 11.4668C 166.472 10.623 165.113 10.1953 163.332 10.1836L 158.164 10.1836L 158.164 19.8867Z"/>
<path id="path8_fill" d="M 122.216 7.40625L 125.609 7.40625L 125.609 25.5293C 125.609 27.9785 124.871 29.8945 123.394 31.2773C 121.929 32.6602 119.972 33.3516 117.523 33.3516C 114.98 33.3516 112.999 32.7012 111.582 31.4004C 110.164 30.0996 109.455 28.2773 109.455 25.9336L 112.83 25.9336C 112.83 27.3984 113.228 28.541 114.025 29.3613C 114.833 30.1816 115.999 30.5918 117.523 30.5918C 118.917 30.5918 120.042 30.1523 120.898 29.2734C 121.765 28.3945 122.205 27.1641 122.216 25.582L 122.216 7.40625ZM 149.374 7.40625L 149.374 24.8086C 149.363 27.2227 148.601 29.1973 147.089 30.7324C 145.589 32.2676 143.55 33.1289 140.972 33.3164L 140.076 33.3516C 137.275 33.3516 135.042 32.5957 133.378 31.084C 131.714 29.5723 130.871 27.4922 130.847 24.8438L 130.847 7.40625L 134.187 7.40625L 134.187 24.7383C 134.187 26.5898 134.697 28.0313 135.716 29.0625C 136.736 30.082 138.189 30.5918 140.076 30.5918C 141.986 30.5918 143.445 30.082 144.453 29.0625C 145.472 28.043 145.982 26.6074 145.982 24.7559L 145.982 7.40625L 149.374 7.40625ZM 158.093 30.2402L 170.222 30.2402L 170.222 33L 154.701 33L 154.701 7.40625L 158.093 7.40625L 158.093 30.2402Z"/>
<path id="path9_fill" d="M 125.978 33L 122.585 33L 109.701 13.2773L 109.701 33L 106.308 33L 106.308 7.40625L 109.701 7.40625L 122.621 27.2168L 122.621 7.40625L 125.978 7.40625L 125.978 33ZM 151.66 21.0293C 151.66 23.5371 151.238 25.7285 150.394 27.6035C 149.55 29.4668 148.355 30.8906 146.808 31.875C 145.261 32.8594 143.457 33.3516 141.394 33.3516C 139.378 33.3516 137.591 32.8594 136.033 31.875C 134.474 30.8789 133.261 29.4668 132.394 27.6387C 131.539 25.7988 131.099 23.6719 131.076 21.2578L 131.076 19.4121C 131.076 16.9512 131.503 14.7773 132.359 12.8906C 133.214 11.0039 134.421 9.5625 135.98 8.56641C 137.55 7.55859 139.343 7.05469 141.359 7.05469C 143.41 7.05469 145.214 7.55274 146.773 8.54883C 148.343 9.5332 149.55 10.9687 150.394 12.8555C 151.238 14.7305 151.66 16.916 151.66 19.4121L 151.66 21.0293ZM 148.302 19.377C 148.302 16.3418 147.693 14.0156 146.474 12.3984C 145.255 10.7695 143.55 9.95508 141.359 9.95508C 139.226 9.95508 137.544 10.7695 136.314 12.3984C 135.095 14.0156 134.468 16.2656 134.433 19.1484L 134.433 21.0293C 134.433 23.9707 135.048 26.2852 136.279 27.9727C 137.521 29.6484 139.226 30.4863 141.394 30.4863C 143.574 30.4863 145.261 29.6953 146.457 28.1133C 147.652 26.5195 148.267 24.2402 148.302 21.2754L 148.302 19.377ZM 164.808 28.5176L 172.121 7.40625L 175.812 7.40625L 166.32 33L 163.332 33L 153.857 7.40625L 157.531 7.40625L 164.808 28.5176Z"/>
<path id="path10_fill" d="M 127.894 21.0293C 127.894 23.5371 127.472 25.7285 126.628 27.6035C 125.785 29.4668 124.589 30.8906 123.042 31.875C 121.496 32.8594 119.691 33.3516 117.628 33.3516C 115.613 33.3516 113.826 32.8594 112.267 31.875C 110.708 30.8789 109.496 29.4668 108.628 27.6387C 107.773 25.7988 107.333 23.6719 107.31 21.2578L 107.31 19.4121C 107.31 16.9512 107.738 14.7773 108.593 12.8906C 109.449 11.0039 110.656 9.5625 112.214 8.56641C 113.785 7.55859 115.578 7.05469 117.593 7.05469C 119.644 7.05469 121.449 7.55274 123.007 8.54883C 124.578 9.5332 125.785 10.9687 126.628 12.8555C 127.472 14.7305 127.894 16.916 127.894 19.4121L 127.894 21.0293ZM 124.537 19.377C 124.537 16.3418 123.927 14.0156 122.708 12.3984C 121.49 10.7695 119.785 9.95508 117.593 9.95508C 115.46 9.95508 113.779 10.7695 112.548 12.3984C 111.33 14.0156 110.703 16.2656 110.667 19.1484L 110.667 21.0293C 110.667 23.9707 111.283 26.2852 112.513 27.9727C 113.755 29.6484 115.46 30.4863 117.628 30.4863C 119.808 30.4863 121.496 29.6953 122.691 28.1133C 123.886 26.5195 124.501 24.2402 124.537 21.2754L 124.537 19.377ZM 151.783 24.8789C 151.466 27.5859 150.464 29.6777 148.777 31.1543C 147.101 32.6191 144.869 33.3516 142.08 33.3516C 139.056 33.3516 136.63 32.2676 134.802 30.0996C 132.986 27.9316 132.078 25.0312 132.078 21.3984L 132.078 18.9375C 132.078 16.5586 132.499 14.4668 133.343 12.6621C 134.199 10.8574 135.406 9.47461 136.964 8.51367C 138.523 7.54101 140.328 7.05469 142.378 7.05469C 145.097 7.05469 147.277 7.81641 148.917 9.33984C 150.558 10.8516 151.513 12.9492 151.783 15.6328L 148.39 15.6328C 148.097 13.5938 147.458 12.1172 146.474 11.2031C 145.501 10.2891 144.136 9.83203 142.378 9.83203C 140.222 9.83203 138.529 10.6289 137.298 12.2227C 136.08 13.8164 135.47 16.084 135.47 19.0254L 135.47 21.5039C 135.47 24.2812 136.05 26.4902 137.21 28.1309C 138.371 29.7715 139.994 30.5918 142.08 30.5918C 143.955 30.5918 145.39 30.1699 146.386 29.3262C 147.394 28.4707 148.062 26.9883 148.39 24.8789L 151.783 24.8789ZM 173.562 10.1836L 165.335 10.1836L 165.335 33L 161.978 33L 161.978 10.1836L 153.769 10.1836L 153.769 7.40625L 173.562 7.40625L 173.562 10.1836Z"/>
<path id="path11_stroke" d="M 1000.96 97.5353L 998.918 96.0952L 1000.96 97.5353ZM 1006.01 93.796L 1006.79 96.1708L 1006.01 93.796ZM 712.684 505.119L 713.96 507.269L 712.684 505.119ZM 715.755 502.28L 717.798 503.72L 715.755 502.28ZM 425.925 674.502L 426.318 676.971L 425.925 674.502ZM 429.459 673.225L 428.183 671.076L 429.459 673.225ZM 137.604 720.365L 137.097 717.917L 137.604 720.365ZM 138.064 720.281L 138.456 722.75L 138.064 720.281ZM 0.507565 751.344L 138.112 722.813L 137.097 717.917L -0.507565 746.448L 0.507565 751.344ZM 138.456 722.75L 426.318 676.971L 425.533 672.033L 137.671 717.812L 138.456 722.75ZM 430.735 675.375L 713.96 507.269L 711.408 502.969L 428.183 671.076L 430.735 675.375ZM 717.798 503.72L 1003.01 98.9753L 998.918 96.0952L 713.711 500.84L 717.798 503.72ZM 1006.79 96.1708L 1291.99 2.37486L 1290.43 -2.37486L 1005.23 91.4211L 1006.79 96.1708ZM 1003.01 98.9753C 1003.99 97.5254 1005.12 96.6877 1006.79 96.1708L 1005.23 91.4211C 1002.82 92.247 1000.41 94.0317 998.918 96.0952L 1003.01 98.9753ZM 713.96 507.269C 715.391 506.403 716.824 505.079 717.798 503.72L 713.711 500.84C 713.062 501.785 712.401 502.396 711.408 502.969L 713.96 507.269ZM 426.318 676.971C 427.797 676.724 429.44 676.131 430.735 675.375L 428.183 671.076C 427.305 671.61 426.549 671.883 425.533 672.033L 426.318 676.971ZM 138.112 722.813C 138.236 722.787 138.331 722.77 138.456 722.75L 137.671 717.812C 137.488 717.841 137.278 717.88 137.097 717.917L 138.112 722.813Z"/>
<path id="path12_fill" d="M 62 31C 62 48.1208 48.1208 62 31 62C 13.8792 62 0 48.1208 0 31C 0 13.8792 13.8792 0 31 0C 48.1208 0 62 13.8792 62 31Z"/>
<path id="path13_stroke_2x" d="M 52 31C 52 42.598 42.598 52 31 52L 31 72C 53.6437 72 72 53.6437 72 31L 52 31ZM 31 52C 19.402 52 10 42.598 10 31L -10 31C -10 53.6437 8.35633 72 31 72L 31 52ZM 10 31C 10 19.402 19.402 10 31 10L 31 -10C 8.35633 -10 -10 8.35633 -10 31L 10 31ZM 31 10C 42.598 10 52 19.402 52 31L 72 31C 72 8.35633 53.6437 -10 31 -10L 31 10Z"/>
</defs>
</svg>
