<svg width="30" height="22" viewBox="0 0 30 22" version="1.1" xmlns="http://www.w3.org/2000/svg" xmlns:xlink="http://www.w3.org/1999/xlink">
<title>if_List_Text_Menu_Numbers_String_Burger_1329080</title>
<desc>Created using Figma</desc>
<g id="Canvas" transform="translate(157 108)">
<g id="if_List_Text_Menu_Numbers_String_Burger_1329080">
<g id="Vector">
<use xlink:href="#path0_fill" transform="translate(-157 -108)" fill="#FFFFFF"/>
</g>
<g id="Vector">
<use xlink:href="#path1_fill" transform="translate(-157 -99)" fill="#FFFFFF"/>
</g>
<g id="Vector">
<use xlink:href="#path1_fill" transform="translate(-157 -90)" fill="#FFFFFF"/>
</g>
</g>
</g>
<defs>
<path id="path0_fill" d="M 2 4L 28 4C 28.5304 4 29.0391 3.78929 29.4142 3.41421C 29.7893 3.03914 30 2.53043 30 2C 30 1.46957 29.7893 0.960859 29.4142 0.585786C 29.0391 0.210714 28.5304 2.66454e-15 28 8.88178e-16L 2 8.88178e-16C 1.46957 1.77636e-15 0.960859 0.210714 0.585786 0.585786C 0.210714 0.960859 1.11022e-15 1.46957 4.44089e-16 2C 8.88178e-16 2.53043 0.210714 3.03914 0.585786 3.41421C 0.960859 3.78929 1.46957 4 2 4L 2 4Z"/>
<path id="path1_fill" d="M 28 0L 2 0C 1.46957 0 0.960859 0.210714 0.585786 0.585787C 0.210714 0.96086 1.11022e-15 1.46957 4.44089e-16 2C 8.88178e-16 2.53043 0.210714 3.03914 0.585786 3.41421C 0.960859 3.78929 1.46957 4 2 4L 28 4C 28.5304 4 29.0391 3.78929 29.4142 3.41421C 29.7893 3.03914 30 2.53043 30 2C 30 1.46957 29.7893 0.96086 29.4142 0.585787C 29.0391 0.210714 28.5304 0 28 0Z"/>
</defs>
</svg>
