<svg width="49" height="39" viewBox="0 0 49 39" version="1.1" xmlns="http://www.w3.org/2000/svg" xmlns:xlink="http://www.w3.org/1999/xlink">
<title>Group</title>
<desc>Created using Figma</desc>
<g id="Canvas" transform="translate(-267 189)">
<g id="Group">
<g id="Vector">
<use xlink:href="#path0_fill" transform="translate(272.078 -163.406)" fill="#6F7D95"/>
</g>
<g id="Vector">
<use xlink:href="#path1_fill" transform="translate(267 -189)" fill="#6F7D95"/>
</g>
</g>
</g>
<defs>
<path id="path0_fill" d="M 39.0802 0C 39.0802 0 33.4625 13.4062 19.5401 13.4062C 5.61778 13.4062 0 0 0 0C 0 0 10.0143 2.4375 19.2959 2.4375C 28.5774 2.4375 39.0802 0 39.0802 0Z"/>
<path id="path1_fill" d="M 47.3339 10.9688C 37.0753 7.8 29.015 0 24.6185 0C 20.222 0 12.1617 7.8 1.90311 10.9688C 0.19335 11.4563 -0.539404 13.4063 0.437601 14.8688C 2.63586 17.7938 5.07838 18.0375 5.07838 21.45C 5.07838 21.45 14.8484 23.8875 24.6185 23.8875C 34.3886 23.8875 44.1586 21.45 44.1586 21.45C 44.1586 18.0375 46.6011 17.7938 48.5551 14.625C 49.5321 13.4062 48.7994 11.4563 47.3339 10.9688ZM 24.6185 19.5C 21.9317 19.5 19.7335 14.8688 19.7335 12.1875C 19.7335 12.1875 21.9317 9.75 24.6185 9.75C 27.3053 9.75 29.5035 12.1875 29.5035 12.1875C 29.5035 14.8688 27.3053 19.5 24.6185 19.5Z"/>
</defs>
</svg>
