<svg width="23" height="23" viewBox="0 0 23 23" version="1.1" xmlns="http://www.w3.org/2000/svg" xmlns:xlink="http://www.w3.org/1999/xlink">
<title>circle check</title>
<desc>Created using Figma</desc>
<g id="Canvas" transform="translate(-571 71)">
<g id="circle check">
<g id="Vector">
<use xlink:href="#path0_fill" transform="translate(571 -71)" fill="#7C8BA6"/>
</g>
<g id="Vector">
<use xlink:href="#path1_fill" transform="translate(578.318 -62.6366)" fill="#7C8BA6"/>
</g>
</g>
</g>
<defs>
<path id="path0_fill" d="M 11.5 0C 5.14886 0 0 5.1486 0 11.5C 0 17.8514 5.14886 23 11.5 23C 17.8511 23 23 17.8514 23 11.5C 23 5.1486 17.8511 0 11.5 0ZM 11.5 20.9091C 6.30357 20.9091 2.09091 16.6964 2.09091 11.5C 2.09091 6.30357 6.30357 2.09091 11.5 2.09091C 16.6964 2.09091 20.9091 6.30357 20.9091 11.5C 20.9091 16.6964 16.6964 20.9091 11.5 20.9091Z"/>
<path id="path1_fill" d="M 8.43799 0.305991C 8.02974 -0.101998 7.36771 -0.101998 6.95946 0.305991L 3.26326 4.00246L 1.78472 2.52392C 1.37647 2.11567 0.714699 2.11567 0.306188 2.52392C -0.102062 2.93217 -0.102062 3.59421 0.306188 4.00272L 2.5236 6.21987C 2.93185 6.62812 3.59414 6.62812 4.00239 6.21987L 8.43773 1.78453C 8.84624 1.37628 8.84677 0.714502 8.43799 0.305991Z"/>
</defs>
</svg>
