<svg width="75" height="80" viewBox="0 0 75 80" version="1.1" xmlns="http://www.w3.org/2000/svg" xmlns:xlink="http://www.w3.org/1999/xlink">
<title>Group</title>
<desc>Created using Figma</desc>
<g id="Canvas" transform="translate(-573 401)">
<g id="Group">
<g id="Vector">
<use xlink:href="#path0_fill" transform="matrix(-1 0 0 1 638.662 -401)" fill="#354052"/>
</g>
<g id="Vector">
<use xlink:href="#path1_fill" transform="matrix(-1 0 0 1 621.303 -383.688)" fill="#2D3747"/>
</g>
<g id="Component">
<g id="Vector">
<use xlink:href="#path2_fill" transform="matrix(-1 0 0 1 648 -353.422)" fill="#354052"/>
</g>
<g id="Vector">
<use xlink:href="#path3_fill" transform="matrix(-1 0 0 1 604.351 -353.422)" fill="#354052"/>
</g>
</g>
</g>
</g>
<defs>
<path id="path0_fill" d="M 28.2797 56.4219C 12.6906 56.4219 4.78132e-07 43.7656 4.78132e-07 28.2188C 4.78132e-07 12.6563 12.6906 0 28.2797 0C 43.8688 0 56.5594 12.6562 56.5594 28.2031C 56.5594 43.7656 43.8688 56.4219 28.2797 56.4219ZM 28.2797 13.1406C 19.9446 13.1406 13.1606 19.9062 13.1606 28.2188C 13.1606 36.5312 19.9446 43.2812 28.2797 43.2812C 36.6148 43.2812 43.3988 36.5156 43.3988 28.2188C 43.3988 19.8906 36.6148 13.1406 28.2797 13.1406Z"/>
<path id="path1_fill" d="M 10.9202 21.7812C 16.9513 21.7812 21.8404 16.9053 21.8404 10.8906C 21.8404 4.8759 16.9513 0 10.9202 0C 4.88914 0 0 4.8759 0 10.8906C 0 16.9053 4.88914 21.7812 10.9202 21.7812Z"/>
<path id="path2_fill" d="M 12.6123 0L 0 21.3594L 11.8132 22.8438L 18.8323 32.4219L 31.3505 11.2344C 23.3288 10.1406 17.1245 6.32812 12.6123 0Z"/>
<path id="path3_fill" d="M 18.7226 0L 31.3505 21.3594L 19.5373 22.8438L 12.5183 32.4219L -1.91253e-06 11.2344C 8.00606 10.1406 14.2104 6.32812 18.7226 0Z"/>
</defs>
</svg>
