<svg width="26" height="50" viewBox="0 0 26 50" version="1.1" xmlns="http://www.w3.org/2000/svg" xmlns:xlink="http://www.w3.org/1999/xlink">
<title>mouse</title>
<desc>Created using Figma</desc>
<g id="Canvas" transform="translate(149 -49)">
<g id="mouse">
<g id="Group">
<g id="Vector">
<use xlink:href="#path0_fill" transform="translate(-138.245 56.0062)" fill="#F2F2F2"/>
</g>
<g id="Group">
<g id="Vector">
<use xlink:href="#path1_fill" transform="translate(-134.582 49)" fill="#F2F2F2"/>
</g>
<g id="Vector">
<use xlink:href="#path2_fill" transform="translate(-149 69.5042)" fill="#F2F2F2"/>
</g>
<g id="Vector">
<use xlink:href="#path3_fill" transform="translate(-149 49)" fill="#F2F2F2"/>
</g>
</g>
</g>
<g id="Arrow">
<use xlink:href="#path4_stroke" transform="matrix(6.12323e-17 1 -1 6.12323e-17 -136 90)" fill="#F2F2F2"/>
</g>
</g>
</g>
<defs>
<path id="path0_fill" d="M 4.49091 6.13542C 4.49091 7.3815 3.48558 8.39167 2.24545 8.39167C 1.00533 8.39167 0 7.3815 0 6.13542L 0 2.25625C 0 1.01017 1.00533 0 2.24545 0C 3.48558 0 4.49091 1.01017 4.49091 2.25625L 4.49091 6.13542Z"/>
<path id="path1_fill" d="M 0 5.70277C 1.18741 6.19495 2.01358 7.28508 2.01358 8.55182L 2.01358 13.9314C 2.01358 15.1982 1.18749 16.2883 0 16.7805L 0 19.6729L 11.5818 19.6729L 11.5818 9.95964C 11.5818 4.45906 6.99613 0 1.33939 0L 0 0L 0 5.70277Z"/>
<path id="path2_fill" d="M 0 0L 0 7.53611C 0 13.0368 4.58569 17.4958 10.2424 17.4958L 15.7576 17.4958C 21.4143 17.4958 26 13.0368 26 7.53611L 26 0L 0 0Z"/>
<path id="path3_fill" d="M 11.5818 19.6729L 11.5818 16.7806C 10.3944 16.2884 9.56824 15.1983 9.56824 13.9315L 9.56824 8.5519C 9.56824 7.28515 10.3943 6.19503 11.5818 5.70285L 11.5818 0L 10.2424 0C 4.58569 0 0 4.45906 0 9.95964L 0 19.6729L 11.5818 19.6729Z"/>
<path id="path4_stroke" d="M 8.35355 0.353553C 8.54882 0.158291 8.54882 -0.158291 8.35355 -0.353553L 5.17157 -3.53553C 4.97631 -3.7308 4.65973 -3.7308 4.46447 -3.53553C 4.2692 -3.34027 4.2692 -3.02369 4.46447 -2.82843L 7.29289 0L 4.46447 2.82843C 4.2692 3.02369 4.2692 3.34027 4.46447 3.53553C 4.65973 3.7308 4.97631 3.7308 5.17157 3.53553L 8.35355 0.353553ZM 0 0.5L 8 0.5L 8 -0.5L 0 -0.5L 0 0.5Z"/>
</defs>
</svg>
