<svg width="40" height="48" viewBox="0 0 40 48" version="1.1" xmlns="http://www.w3.org/2000/svg" xmlns:xlink="http://www.w3.org/1999/xlink">
<title>Group</title>
<desc>Created using Figma</desc>
<g id="Canvas" transform="translate(-1329 405)">
<g id="Group">
<g id="Vector">
<use xlink:href="#path0_fill" transform="translate(1336.63 -401.024)" fill="#354052"/>
</g>
<g id="Vector">
<use xlink:href="#path1_fill" transform="translate(1329 -388.372)" fill="#354052"/>
</g>
<g id="Vector">
<use xlink:href="#path2_fill" transform="translate(1333.58 -405)" fill="#354052"/>
</g>
</g>
</g>
<defs>
<path id="path0_fill" d="M 28.2805 11.6344L 23.2072 15.6408L 21.5835 15.6408L 25.7205 12.3732L 27.6512 10.8472L 27.6538 10.8456C 27.6747 10.8292 27.6921 10.8086 27.7111 10.7896C 27.8923 10.6089 27.9609 10.3509 27.9024 10.1126C 27.8783 10.0137 27.8372 9.91916 27.7705 9.83636L 22.5014 3.20201L 20.9714 1.27576C 20.7243 0.964962 20.2718 0.912402 19.9599 1.1584L 18.024 2.68817L 1.62546 15.6408L 1.7627e-07 15.6408L 19.3335 0.37072C 20.0798 -0.218003 21.1719 -0.0917624 21.763 0.651521L 28.5626 9.21164C 29.1527 9.95588 29.0258 11.0452 28.2805 11.6344ZM 25.915 8.19739C 25.9162 8.19667 25.9162 8.19667 25.9167 8.19571L 22.1447 3.44753C 20.918 4.17666 19.3453 3.9945 18.3152 3.00809L 2.32123 15.6408L 10.0478 15.6408C 8.86688 13.5429 9.12536 11.0462 10.7819 9.73724C 12.6564 8.25667 15.6084 8.85932 17.3744 11.0827C 18.4887 12.485 18.863 14.196 18.5195 15.6408L 20.8867 15.6408L 25.4738 12.017C 24.7432 10.793 24.9251 9.22508 25.915 8.19739ZM 14.0068 12.9804C 13.221 13.2314 12.8535 13.2794 12.6672 13.0447C 12.5096 12.8462 12.5019 12.5292 12.964 12.1634C 13.4771 11.7588 13.9334 11.663 14.1806 11.5948L 13.7505 10.6303C 13.4253 10.7018 13.0256 10.8559 12.5315 11.2113L 12.2843 10.8993C 12.2211 10.8194 12.1267 10.763 12.0153 10.7512C 11.9065 10.7383 11.8018 10.7714 11.7205 10.8345L 11.6521 10.8892C 11.5715 10.9528 11.5159 11.0464 11.5024 11.1566C 11.4897 11.266 11.5226 11.3707 11.5867 11.4511L 11.8733 11.8118C 11.23 12.5628 11.1775 13.4013 11.6738 14.0256C 12.2206 14.7144 13.0222 14.6594 13.9878 14.3133C 14.6552 14.0741 15.0186 14.0647 15.2325 14.3337C 15.4583 14.6189 15.3047 14.994 14.8985 15.3146C 14.7319 15.4464 14.556 15.5532 14.3786 15.6405L 16.0614 15.6405C 16.7299 14.8627 16.7417 13.9898 16.2493 13.3697C 15.7422 12.7301 15.0917 12.6098 14.0068 12.9804Z"/>
<path id="path1_fill" d="M 36.132 1.99225L 33.7102 1.99225L 35.5426 0.544083C 35.5506 0.551283 35.5585 0.557043 35.5655 0.564243C 35.9431 0.941044 36.132 1.43473 36.132 1.92841L 36.132 1.99225ZM 40 15.3641L 40 19.9928C 40 20.1411 39.9432 20.2892 39.8301 20.4018C 39.716 20.515 39.5678 20.5717 39.4193 20.5717L 31.2968 20.5717C 30.5546 20.5717 29.8126 20.2892 29.2461 19.7245C 28.6795 19.1595 28.3965 18.4191 28.3965 17.679C 28.3965 16.9381 28.6795 16.1977 29.2461 15.6329C 29.8126 15.0682 30.5548 14.7857 31.2968 14.7857L 39.4193 14.7857C 39.5678 14.7857 39.716 14.8426 39.8301 14.9552C 39.943 15.068 40 15.2165 40 15.3641ZM 32.7593 17.6787C 32.7593 16.8733 32.1045 16.2202 31.2968 16.2202C 30.4893 16.2202 29.8345 16.8733 29.8345 17.6787C 29.8345 18.4839 30.4893 19.137 31.2968 19.137C 32.1045 19.137 32.7593 18.4842 32.7593 17.6787ZM 31.2965 21.5355L 38.9023 21.5355L 38.9023 28.479C 38.9023 29.2194 38.6188 29.9596 38.0528 30.5245C 37.4862 31.0895 36.744 31.3717 36.0011 31.3717L 2.90124 31.3717C 2.15878 31.3717 1.41632 31.0893 0.850516 30.5245C 0.283505 29.9596 1.72597e-07 29.2194 1.72597e-07 28.479L 1.72597e-07 2.89225C 1.72597e-07 2.15233 0.283264 1.41169 0.850516 0.847204C 1.41632 0.282002 2.15902 8.7891e-07 2.90124 8.7891e-07L 4.81478 8.7891e-07L 3.95824 1.99249L 2.96574 1.99249C 2.71833 1.99249 2.47068 2.08681 2.28224 2.27521C 2.09236 2.46361 1.9985 2.71081 1.9985 2.95705L 1.9985 3.02113C 1.9985 3.26833 2.0926 3.51481 2.28224 3.70321C 2.47068 3.89162 2.71833 3.9857 2.96574 3.9857L 36.0008 3.9857C 36.7438 3.9857 37.4862 4.26818 38.0525 4.8329C 38.6188 5.39786 38.9021 6.13803 38.9021 6.87843L 38.9021 13.8214L 31.2963 13.8214C 30.2634 13.8214 29.2923 14.2225 28.5616 14.9506C 27.8314 15.6797 27.4285 16.6481 27.4285 17.6787C 27.4285 18.709 27.8314 19.6772 28.5616 20.4058C 29.2925 21.1347 30.2638 21.5355 31.2965 21.5355ZM 36.6776 11.2176C 36.6776 11.0588 36.5479 10.9284 36.3881 10.9284C 36.2283 10.9284 36.0981 11.0588 36.0981 11.2176L 36.0981 12.5679C 36.0981 12.7268 36.2283 12.8571 36.3881 12.8571C 36.5479 12.8571 36.6776 12.7268 36.6776 12.5679L 36.6776 11.2176ZM 36.6776 8.32492C 36.6776 8.16603 36.5479 8.03571 36.3881 8.03571C 36.2283 8.03571 36.0981 8.16603 36.0981 8.32492L 36.0981 9.67516C 36.0981 9.83356 36.2283 9.96388 36.3881 9.96388C 36.5479 9.96388 36.6776 9.83356 36.6776 9.67516L 36.6776 8.32492ZM 35.5575 6.49275C 35.5575 6.65211 35.6877 6.78195 35.848 6.78195L 36.0011 6.78195C 36.0442 6.78195 36.0981 6.83619 36.0981 6.87819L 36.0981 7.03131C 36.0981 7.19115 36.2278 7.32075 36.3881 7.32075C 36.5484 7.32075 36.6776 7.19115 36.6776 7.03131L 36.6776 6.87819C 36.6776 6.51867 36.3618 6.20331 36.0008 6.20331L 35.8478 6.20331C 35.6877 6.20355 35.5575 6.33267 35.5575 6.49275ZM 32.9891 6.49275C 32.9891 6.65163 33.1196 6.78195 33.2794 6.78195L 34.6327 6.78195C 34.7925 6.78195 34.9236 6.65163 34.9236 6.49275C 34.9236 6.33339 34.7925 6.20331 34.6327 6.20331L 33.2794 6.20331C 33.1196 6.20355 32.9891 6.33339 32.9891 6.49275ZM 30.0881 6.49275C 30.0881 6.65163 30.2181 6.78195 30.3779 6.78195L 31.7317 6.78195C 31.8915 6.78195 32.0221 6.65163 32.0221 6.49275C 32.0221 6.33339 31.8915 6.20331 31.7317 6.20331L 30.3779 6.20331C 30.2181 6.20355 30.0881 6.33339 30.0881 6.49275ZM 27.1867 6.49275C 27.1867 6.65163 27.3178 6.78195 27.4776 6.78195L 28.8307 6.78195C 28.9905 6.78195 29.1209 6.65163 29.1209 6.49275C 29.1209 6.33339 28.9905 6.20331 28.8307 6.20331L 27.4776 6.20331C 27.3178 6.20355 27.1867 6.33339 27.1867 6.49275ZM 2.22424 7.03155C 2.22424 7.19139 2.35444 7.32099 2.51473 7.32099C 2.67501 7.32099 2.80449 7.19139 2.80449 7.03155L 2.80449 6.87843C 2.80449 6.83643 2.85888 6.78219 2.90148 6.78219L 3.05454 6.78219C 3.21507 6.78219 3.34454 6.65235 3.34454 6.49299C 3.34454 6.33291 3.21507 6.20355 3.05454 6.20355L 2.90148 6.20355C 2.54048 6.20355 2.22448 6.51891 2.22448 6.87843L 2.22448 7.03155L 2.22424 7.03155ZM 2.22424 9.67516C 2.22424 9.83356 2.35492 9.96388 2.51473 9.96388C 2.67453 9.96388 2.80449 9.83356 2.80449 9.67516L 2.80449 8.32492C 2.80449 8.16603 2.67453 8.03571 2.51473 8.03571C 2.35492 8.03571 2.22424 8.16603 2.22424 8.32492L 2.22424 9.67516ZM 2.22424 12.5679C 2.22424 12.7268 2.35492 12.8571 2.51473 12.8571C 2.67453 12.8571 2.80449 12.7268 2.80449 12.5679L 2.80449 11.2176C 2.80449 11.0588 2.67453 10.9284 2.51473 10.9284C 2.35492 10.9284 2.22424 11.0588 2.22424 11.2176L 2.22424 12.5679ZM 2.22424 15.4609C 2.22424 15.6197 2.35492 15.7501 2.51473 15.7501C 2.67453 15.7501 2.80449 15.6197 2.80449 15.4609L 2.80449 14.1106C 2.80449 13.9517 2.67453 13.8214 2.51473 13.8214C 2.35492 13.8214 2.22424 13.9517 2.22424 14.1106L 2.22424 15.4609ZM 2.22424 18.3538C 2.22424 18.5132 2.35492 18.643 2.51473 18.643C 2.67453 18.643 2.80449 18.5132 2.80449 18.3538L 2.80449 17.0036C 2.80449 16.8447 2.67453 16.7144 2.51473 16.7144C 2.35492 16.7144 2.22424 16.8447 2.22424 17.0036L 2.22424 18.3538ZM 2.22424 21.2468C 2.22424 21.4062 2.35492 21.5355 2.51473 21.5355C 2.67453 21.5355 2.80449 21.4062 2.80449 21.2468L 2.80449 19.8966C 2.80449 19.7377 2.67453 19.6074 2.51473 19.6074C 2.35492 19.6074 2.22424 19.7377 2.22424 19.8966L 2.22424 21.2468ZM 2.22424 24.1391C 2.22424 24.2989 2.35492 24.4287 2.51473 24.4287C 2.67453 24.4287 2.80449 24.2989 2.80449 24.1391L 2.80449 22.7893C 2.80449 22.6304 2.67453 22.5001 2.51473 22.5001C 2.35492 22.5001 2.22424 22.6304 2.22424 22.7893L 2.22424 24.1391ZM 2.22424 27.0325C 2.22424 27.1919 2.35492 27.3217 2.51473 27.3217C 2.67453 27.3217 2.80449 27.1919 2.80449 27.0325L 2.80449 25.6823C 2.80449 25.5234 2.67453 25.3931 2.51473 25.3931C 2.35492 25.3931 2.22424 25.5234 2.22424 25.6823L 2.22424 27.0325ZM 3.34478 28.8644C 3.34478 28.7048 3.21483 28.5752 3.05454 28.5752L 2.901 28.5752C 2.8584 28.5752 2.80401 28.521 2.80401 28.479L 2.80401 28.3259C 2.80401 28.166 2.67453 28.0367 2.51424 28.0367C 2.35396 28.0367 2.22376 28.166 2.22376 28.3259L 2.22376 28.479C 2.22376 28.8385 2.54 29.1541 2.90076 29.1541L 3.0543 29.1541C 3.21507 29.1539 3.34478 29.0248 3.34478 28.8644ZM 5.9139 28.8644C 5.9139 28.7056 5.78274 28.5752 5.62366 28.5752L 4.26991 28.5752C 4.1101 28.5752 3.97966 28.7056 3.97966 28.8644C 3.97966 29.0233 4.1101 29.1539 4.26991 29.1539L 5.62366 29.1539C 5.78274 29.1539 5.9139 29.0233 5.9139 28.8644ZM 5.9139 6.49275C 5.9139 6.33339 5.78274 6.20331 5.62366 6.20331L 4.26991 6.20331C 4.1101 6.20331 3.97966 6.33339 3.97966 6.49275C 3.97966 6.65163 4.1101 6.78195 4.26991 6.78195L 5.62366 6.78195C 5.78274 6.78195 5.9139 6.65163 5.9139 6.49275ZM 8.81442 28.8644C 8.81442 28.7056 8.68373 28.5752 8.52441 28.5752L 7.17138 28.5752C 7.0111 28.5752 6.88066 28.7056 6.88066 28.8644C 6.88066 29.0233 7.0111 29.1539 7.17138 29.1539L 8.52441 29.1539C 8.68373 29.1539 8.81442 29.0233 8.81442 28.8644ZM 8.81442 6.49275C 8.81442 6.33339 8.68373 6.20331 8.52441 6.20331L 7.17138 6.20331C 7.0111 6.20331 6.88066 6.33339 6.88066 6.49275C 6.88066 6.65163 7.0111 6.78195 7.17138 6.78195L 8.52441 6.78195C 8.68373 6.78195 8.81442 6.65163 8.81442 6.49275ZM 11.7159 28.8644C 11.7159 28.7056 11.5847 28.5752 11.4254 28.5752L 10.0714 28.5752C 9.91162 28.5752 9.78166 28.7056 9.78166 28.8644C 9.78166 29.0233 9.91162 29.1539 10.0714 29.1539L 11.4254 29.1539C 11.5847 29.1539 11.7159 29.0233 11.7159 28.8644ZM 11.7159 6.49275C 11.7159 6.33339 11.5847 6.20331 11.4254 6.20331L 10.0714 6.20331C 9.91162 6.20331 9.78166 6.33339 9.78166 6.49275C 9.78166 6.65163 9.91162 6.78195 10.0714 6.78195L 11.4254 6.78195C 11.5847 6.78195 11.7159 6.65163 11.7159 6.49275ZM 14.6162 28.8644C 14.6162 28.7056 14.486 28.5752 14.3262 28.5752L 12.9727 28.5752C 12.8129 28.5752 12.6824 28.7056 12.6824 28.8644C 12.6824 29.0233 12.8129 29.1539 12.9727 29.1539L 14.3262 29.1539C 14.486 29.1539 14.6162 29.0233 14.6162 28.8644ZM 14.6162 6.49275C 14.6162 6.33339 14.486 6.20331 14.3262 6.20331L 12.9727 6.20331C 12.8129 6.20331 12.6824 6.33339 12.6824 6.49275C 12.6824 6.65163 12.8129 6.78195 12.9727 6.78195L 14.3262 6.78195C 14.486 6.78195 14.6162 6.65163 14.6162 6.49275ZM 17.5172 28.8644C 17.5172 28.7056 17.3865 28.5752 17.2274 28.5752L 15.8736 28.5752C 15.7138 28.5752 15.5834 28.7056 15.5834 28.8644C 15.5834 29.0233 15.7138 29.1539 15.8736 29.1539L 17.2274 29.1539C 17.3865 29.1539 17.5172 29.0233 17.5172 28.8644ZM 17.5172 6.49275C 17.5172 6.33339 17.3865 6.20331 17.2274 6.20331L 15.8736 6.20331C 15.7138 6.20331 15.5834 6.33339 15.5834 6.49275C 15.5834 6.65163 15.7138 6.78195 15.8736 6.78195L 17.2274 6.78195C 17.3865 6.78195 17.5172 6.65163 17.5172 6.49275ZM 20.4182 28.8644C 20.4182 28.7056 20.2877 28.5752 20.1279 28.5752L 18.7744 28.5752C 18.6146 28.5752 18.4846 28.7056 18.4846 28.8644C 18.4846 29.0233 18.6146 29.1539 18.7744 29.1539L 20.1279 29.1539C 20.2877 29.1539 20.4182 29.0233 20.4182 28.8644ZM 20.4182 6.49275C 20.4182 6.33339 20.2877 6.20331 20.1279 6.20331L 18.7744 6.20331C 18.6146 6.20331 18.4846 6.33339 18.4846 6.49275C 18.4846 6.65163 18.6146 6.78195 18.7744 6.78195L 20.1279 6.78195C 20.2877 6.78195 20.4182 6.65163 20.4182 6.49275ZM 23.3192 28.8644C 23.3192 28.7056 23.1892 28.5752 23.0294 28.5752L 21.6752 28.5752C 21.5161 28.5752 21.3849 28.7056 21.3849 28.8644C 21.3849 29.0233 21.5161 29.1539 21.6752 29.1539L 23.0294 29.1539C 23.1892 29.1539 23.3192 29.0233 23.3192 28.8644ZM 23.3192 6.49275C 23.3192 6.33339 23.1892 6.20331 23.0294 6.20331L 21.6752 6.20331C 21.5161 6.20331 21.3849 6.33339 21.3849 6.49275C 21.3849 6.65163 21.5161 6.78195 21.6752 6.78195L 23.0294 6.78195C 23.1892 6.78195 23.3192 6.65163 23.3192 6.49275ZM 26.2204 28.8644C 26.2204 28.7056 26.0895 28.5752 25.9304 28.5752L 24.5766 28.5752C 24.4168 28.5752 24.2864 28.7056 24.2864 28.8644C 24.2864 29.0233 24.4168 29.1539 24.5766 29.1539L 25.9304 29.1539C 26.0895 29.1539 26.2204 29.0233 26.2204 28.8644ZM 26.2204 6.49275C 26.2204 6.33339 26.0895 6.20331 25.9304 6.20331L 24.5766 6.20331C 24.4168 6.20331 24.2864 6.33339 24.2864 6.49275C 24.2864 6.65163 24.4168 6.78195 24.5766 6.78195L 25.9304 6.78195C 26.0895 6.78195 26.2204 6.65163 26.2204 6.49275ZM 29.1209 28.8644C 29.1209 28.7056 28.9905 28.5752 28.8307 28.5752L 27.4776 28.5752C 27.3178 28.5752 27.1867 28.7056 27.1867 28.8644C 27.1867 29.0233 27.3178 29.1539 27.4776 29.1539L 28.8307 29.1539C 28.9905 29.1539 29.1209 29.0233 29.1209 28.8644ZM 36.0981 24.1391C 36.0981 24.2989 36.2283 24.4287 36.3881 24.4287C 36.5479 24.4287 36.6776 24.2989 36.6776 24.1391L 36.6776 22.7893C 36.6776 22.6304 36.5479 22.5001 36.3881 22.5001C 36.2283 22.5001 36.0981 22.6304 36.0981 22.7893L 36.0981 24.1391ZM 36.0981 27.0325C 36.0981 27.1919 36.2283 27.3217 36.3881 27.3217C 36.5479 27.3217 36.6776 27.1919 36.6776 27.0325L 36.6776 25.6823C 36.6776 25.5234 36.5479 25.3931 36.3881 25.3931C 36.2283 25.3931 36.0981 25.5234 36.0981 25.6823L 36.0981 27.0325ZM 35.5575 28.8644C 35.5575 29.0248 35.6877 29.1539 35.848 29.1539L 36.0011 29.1539C 36.3621 29.1539 36.6778 28.8385 36.6778 28.4788L 36.6778 28.3256C 36.6778 28.1658 36.5486 28.0364 36.3883 28.0364C 36.228 28.0364 36.0983 28.1658 36.0983 28.3256L 36.0983 28.4788C 36.0983 28.521 36.0442 28.575 36.0013 28.575L 35.8483 28.575C 35.6877 28.5752 35.5575 28.7048 35.5575 28.8644ZM 32.9891 28.8644C 32.9891 29.0233 33.1196 29.1539 33.2794 29.1539L 34.6327 29.1539C 34.7925 29.1539 34.9236 29.0233 34.9236 28.8644C 34.9236 28.7056 34.7925 28.5752 34.6327 28.5752L 33.2794 28.5752C 33.1196 28.5752 32.9891 28.7056 32.9891 28.8644ZM 31.7317 28.5752L 30.3779 28.5752C 30.2181 28.5752 30.0881 28.7056 30.0881 28.8644C 30.0881 29.0233 30.2181 29.1539 30.3779 29.1539L 31.7317 29.1539C 31.8915 29.1539 32.0221 29.0233 32.0221 28.8644C 32.0221 28.7056 31.8915 28.5752 31.7317 28.5752Z"/>
<path id="path2_fill" d="M 7.96871 12.7172L 8.80792 13.3623C 8.62309 13.539 8.2669 13.8399 8.0089 14.4397C 8.00313 14.4531 8 14.4642 7.99495 14.4771L 6.83638 15.3925C 6.81135 15.1628 6.82506 14.9132 6.88186 14.6471L 6.45733 14.4659C 6.36323 14.4255 6.28405 14.3495 6.24362 14.2472C 6.20222 14.1447 6.20727 14.0353 6.24698 13.9412L 6.28164 13.8606C 6.32255 13.7663 6.39884 13.6878 6.50209 13.6465C 6.60413 13.6052 6.71412 13.61 6.8087 13.6503L 7.17475 13.8075C 7.43852 13.2596 7.71698 12.9349 7.96871 12.7172ZM 20.3188 4.44126L 10.2541 0.138997C 9.37998 -0.235164 8.35835 0.172597 7.98291 1.0438L 1.98303e-07 19.6172L 1.09672 19.6172L 7.93743 3.70373L 8.91068 1.4398C 9.0676 1.07572 9.49141 0.906761 9.8565 1.06324L 12.1221 2.03117L 19.6675 5.2575L 20.5472 4.56246C 20.475 4.51734 20.3994 4.47534 20.3188 4.44126ZM 17.5071 4.80534C 17.5078 4.80414 17.5078 4.80342 17.5078 4.80294L 11.9243 2.41637C 11.1932 3.64037 9.72317 4.22646 8.34632 3.84773L 1.6091 19.5205L 5.11778 16.7495C 4.56496 15.6625 4.46003 14.4397 4.93222 13.3403C 5.87419 11.1483 8.75786 10.2776 11.3729 11.3953C 11.4851 11.4433 11.5944 11.4954 11.7022 11.5491L 17.6361 6.86215C 17.372 6.22494 17.3133 5.5035 17.5071 4.80534Z"/>
</defs>
</svg>
