<svg width="32" height="32" viewBox="0 0 32 32" version="1.1" xmlns="http://www.w3.org/2000/svg" xmlns:xlink="http://www.w3.org/1999/xlink">
<title>Group</title>
<desc>Created using Figma</desc>
<g id="Canvas" transform="translate(-1318 79)">
<g id="Group">
<g id="Vector">
<use xlink:href="#path0_fill" transform="translate(1318 -79)" fill="#2D9CDB"/>
</g>
<g id="Vector">
<use xlink:href="#path1_fill" transform="translate(1323.21 -73.7679)" fill="#354052"/>
</g>
</g>
</g>
<defs>
<path id="path0_fill" d="M 5.51211 3.6455L 8.37243 4.59075L 8.58116 4.72574C 9.04392 4.4557 9.52206 4.18569 10.0113 3.91564L 9.92186 3.6455L 10.488 0.675105L 13.11 0L 15.1061 2.29529L 15.1654 2.56543C 15.7264 2.43041 16.2738 2.43041 16.8347 2.56543L 16.8941 2.29529L 18.8897 0L 21.5123 0.675105L 22.0786 3.6455L 21.9896 3.91564C 22.4777 4.18569 22.9564 4.4557 23.4189 4.72574L 23.6279 4.59075L 26.4878 3.6455L 28.3944 5.53583L 27.4411 8.37124L 27.2335 8.64138C 27.5382 9.04645 27.8241 9.58653 28.0668 9.99159L 28.3351 9.99159L 31.2854 10.5317L 32 13.097L 29.7064 15.1223L 29.4677 15.1223C 29.5028 15.7974 29.5028 16.3376 29.4677 16.8776L 29.7064 16.8776L 32 18.903L 31.2854 21.6034L 28.3351 22.1435L 28.0668 22.0085C 27.8241 22.5486 27.5382 22.9536 27.2335 23.4937L 27.4411 23.6287L 28.3944 26.4641L 26.4878 28.4894L 23.6279 27.4093L 23.4189 27.2742C 22.9564 27.5442 22.4777 27.8144 21.9896 28.0845L 22.0786 28.3544L 21.5123 31.3248L 18.8897 31.9999L 16.8941 29.7046L 16.8347 29.5697L 15.1654 29.5697L 15.1061 29.7046L 13.11 31.9999L 10.4879 31.3248L 9.92186 28.3544L 10.0113 28.0845C 9.52206 27.8144 9.04392 27.5442 8.58102 27.2742L 8.37243 27.4093L 5.51211 28.4894L 3.60522 26.4641L 4.55866 23.6287L 4.76726 23.4937C 4.46158 22.9536 4.17545 22.5486 3.93302 22.0085L 3.66482 22.1435L 0.715101 21.6034L 0 18.903L 2.29427 16.8776L 2.53253 16.8776C 2.49774 16.3376 2.49774 15.7974 2.53253 15.1223L 2.29427 15.1223L 0 13.097L 0.715088 10.5317L 3.66481 9.99159L 3.933 9.99159C 4.17544 9.58653 4.4617 9.04645 4.76725 8.64138L 4.55865 8.37124L 3.60521 5.53583L 5.51211 3.6455ZM 9.32601 9.31649C 5.63993 12.9621 5.63993 19.038 9.32601 22.6836C 13.0119 26.3292 18.9881 26.3292 22.6746 22.6836C 26.3597 19.038 26.3597 12.9621 22.6746 9.31649C 18.9881 5.67092 13.0119 5.67092 9.32601 9.31649Z"/>
<path id="path1_fill" d="M 3.15929 3.13917C 7.37191 -1.04648 14.2024 -1.04648 18.4149 3.13917C 22.6272 7.32483 22.6272 14.211 18.4149 18.3966C 14.2025 22.5823 7.37218 22.5823 3.15929 18.3966C -1.05319 14.211 -1.05319 7.32483 3.15929 3.13917ZM 5.15571 3.27433L 8.07563 6.10974C 9.26868 5.43463 10.6319 5.16456 11.9493 5.56962L 13.8262 1.78896C 10.938 0.843816 7.68864 1.38403 5.15571 3.27433ZM 3.24883 5.16449C 1.35246 7.72989 0.867583 10.9704 1.8484 13.8059L 5.5133 11.9155C 5.22057 10.5653 5.46516 9.21522 6.16875 8.13505L 3.24883 5.16449ZM 8.88035 8.81016C 7.82686 9.89033 7.82686 11.6456 8.88035 12.7258C 9.93343 13.806 11.6405 13.806 12.6936 12.7258C 13.7467 11.6456 13.7467 9.89033 12.6936 8.81016C 11.6405 7.86501 9.93343 7.86501 8.88035 8.81016ZM 16.2102 3.13917L 14.3332 6.78484C 14.4168 6.78484 14.5193 6.91983 14.6002 6.91983C 15.5306 7.86498 16.0403 9.08017 16.1495 10.2954L 20.2027 10.9705C 20.2324 8.40506 19.3344 5.97472 17.4615 4.08442C 17.0731 3.67936 16.643 3.40922 16.2102 3.13917ZM 3.09983 16.2363C 3.40605 16.6414 3.72481 17.0465 4.11287 17.4515C 5.9855 19.3418 8.45156 20.287 10.9056 20.152L 10.3096 16.1013C 9.09609 16.1013 7.90223 15.5611 6.97319 14.616C 6.89202 14.4809 6.83943 14.481 6.7646 14.346L 3.09983 16.2363ZM 15.7328 12.9958C 15.4712 13.5359 15.0937 14.0759 14.6002 14.616C 14.108 15.1561 13.535 15.4262 12.9322 15.6962L 13.5579 19.8818C 14.9845 19.3417 16.3329 18.5317 17.4615 17.4515C 18.59 16.3714 19.3775 15.0211 19.8144 13.5359L 15.7328 12.9958Z"/>
</defs>
</svg>
