<svg width="10" height="21" viewBox="0 0 10 21" version="1.1" xmlns="http://www.w3.org/2000/svg" xmlns:xlink="http://www.w3.org/1999/xlink">
<title>x24  sign</title>
<desc>Created using Figma</desc>
<g id="Canvas" transform="translate(-1392 383)">
<g id="x24  sign">
<g id="Top">
<use xlink:href="#path0_fill" transform="translate(1395.63 -383)" fill="#354052"/>
</g>
<g id="Bottom">
<use xlink:href="#path0_fill" transform="translate(1395.63 -365.938)" fill="#354052"/>
</g>
<g id="Shadow">
<use xlink:href="#path1_fill" transform="translate(1395.63 -365.281)" fill="#354052"/>
</g>
<g id="S">
<use xlink:href="#path2_fill" transform="translate(1392 -380.375)" fill="#354052"/>
</g>
</g>
</g>
<defs>
<path id="path0_fill" d="M 2.5 0L 0 0L 0 3.9375L 2.5 3.9375L 2.5 0Z"/>
<path id="path1_fill" d="M -1.19209e-07 0L 2.5 2.625L 2.5 0L -1.19209e-07 0Z"/>
<path id="path2_fill" d="M 0.75 12.0094C 1.625 12.4687 3 12.9281 4.375 12.9281C 5.875 12.9281 6.6875 12.2719 6.6875 11.2219C 6.6875 10.3031 6 9.7125 4.25 9.12187C 1.8125 8.20312 0.25 6.825 0.25 4.59375C 0.25 1.96875 2.3125 1.16573e-15 5.75 1.16573e-15C 7.4375 1.16573e-15 8.625 0.328125 9.4375 0.7875L 8.6875 3.54375C 8.125 3.21562 7.0625 2.82188 5.6875 2.82188C 4.25 2.82188 3.5625 3.54375 3.5625 4.26562C 3.5625 5.25 4.375 5.64375 6.25 6.43125C 8.8125 7.41563 10 8.85938 10 11.025C 10 13.5844 8.125 15.75 4.125 15.75C 2.4375 15.75 0.8125 15.2906 -9.31322e-10 14.8313L 0.75 12.0094Z"/>
</defs>
</svg>
