<svg width="28" height="26" viewBox="0 0 28 26" version="1.1" xmlns="http://www.w3.org/2000/svg" xmlns:xlink="http://www.w3.org/1999/xlink">
<title>layer1</title>
<desc>Created using Figma</desc>
<g id="Canvas" transform="translate(-1318 122)">
<g id="layer1">
<g id="rect5462">
<use xlink:href="#path0_fill" transform="translate(1318 -122)" fill="#2D9CDB"/>
</g>
</g>
</g>
<defs>
<path id="path0_fill" d="M 23.498 5.03212e-06C 23.4234 0.000253916 23.3497 0.0172243 23.2824 0.0496702C 23.2152 0.0821162 23.156 0.129214 23.1094 0.187505L 19.1094 5.18751C 19.0511 5.26109 19.0147 5.3496 19.0043 5.4429C 18.994 5.5362 19.0101 5.63053 19.0509 5.7151C 19.0916 5.79966 19.1554 5.87105 19.2348 5.92109C 19.3142 5.97113 19.4061 5.9978 19.5 5.99805L 21 5.99805L 21 14.0566C 19.5563 14.2525 18.2765 14.9631 17.3477 15.9981L 14.5 15.9981C 14.4665 15.9986 14.4331 16.0025 14.4004 16.0098C 14.2877 16.0327 14.1863 16.0938 14.1134 16.1827C 14.0404 16.2717 14.0004 16.383 14 16.4981L 14 23.4981C 14 23.6307 14.0527 23.7578 14.1465 23.8516C 14.2402 23.9454 14.3674 23.998 14.5 23.9981L 17.3496 23.9981C 18.4489 25.2218 20.0385 25.9981 21.8086 25.9981C 25.1164 25.9981 27.8086 23.3059 27.8086 19.9981C 27.8086 18.3203 27.1142 16.801 26 15.7109L 26 5.99805L 27.5 5.99805C 27.5939 5.9978 27.6858 5.97113 27.7652 5.92109C 27.8446 5.87105 27.9084 5.79966 27.9491 5.7151C 27.9899 5.63053 28.006 5.5362 27.9957 5.4429C 27.9853 5.3496 27.9489 5.26109 27.8906 5.18751L 23.8906 0.187505C 23.8435 0.128699 23.7838 0.0812914 23.7158 0.0488239C 23.6478 0.0163563 23.5734 -0.00033207 23.498 5.03212e-06ZM 23.5 1.29883L 26.459 4.99805L 25.5 4.99805C 25.3674 4.99807 25.2402 5.05075 25.1465 5.14451C 25.0527 5.23828 25 5.36545 25 5.49805L 25 14.9258C 24.1252 14.3731 23.1005 14.0428 22 14.0078L 22 5.49805C 22 5.36545 21.9473 5.23828 21.8535 5.14451C 21.7598 5.05075 21.6326 4.99807 21.5 4.99805L 20.541 4.99805L 23.5 1.29883ZM 7.5 7.99805C 7.3674 7.99807 7.24023 8.05075 7.14646 8.14451C 7.0527 8.23828 7.00001 8.36545 7 8.49805L 7 23.4981C 7.00001 23.6307 7.0527 23.7578 7.14646 23.8516C 7.24023 23.9454 7.3674 23.998 7.5 23.9981L 11.5 23.9981C 11.6326 23.998 11.7598 23.9454 11.8535 23.8516C 11.9473 23.7578 12 23.6307 12 23.4981L 12 8.49805C 12 8.36545 11.9473 8.23828 11.8535 8.14451C 11.7598 8.05075 11.6326 7.99807 11.5 7.99805L 7.5 7.99805ZM 8 8.99805L 11 8.99805L 11 22.9981L 8 22.9981L 8 8.99805ZM 0.5 11.9981C 0.367396 11.9981 0.240227 12.0507 0.146461 12.1445C 0.0526959 12.2383 1.32584e-05 12.3654 6.66134e-16 12.4981L 6.66134e-16 23.4981C 1.32584e-05 23.6307 0.0526959 23.7578 0.146461 23.8516C 0.240227 23.9454 0.367396 23.998 0.5 23.9981L 4.5 23.9981C 4.6326 23.998 4.75977 23.9454 4.85354 23.8516C 4.9473 23.7578 4.99999 23.6307 5 23.4981L 5 12.4981C 4.99999 12.3654 4.9473 12.2383 4.85354 12.1445C 4.75977 12.0507 4.6326 11.9981 4.5 11.9981L 0.5 11.9981ZM 1 12.9981L 4 12.9981L 4 22.9981L 1 22.9981L 1 12.9981ZM 21.8086 14.9981C 24.5759 14.9981 26.8086 17.2308 26.8086 19.9981C 26.8086 22.7655 24.5759 24.9981 21.8086 24.9981C 19.0412 24.9981 16.8086 22.7655 16.8086 19.9981C 16.8086 17.2308 19.0412 14.9981 21.8086 14.9981ZM 21.5254 15.9981L 21.5254 16.9238C 21.2739 16.9547 21.0471 17.0156 20.8438 17.1055C 20.6404 17.1953 20.4665 17.3109 20.3223 17.4512C 20.1817 17.5916 20.0718 17.7564 19.9941 17.9473C 19.9202 18.1382 19.8848 18.35 19.8848 18.5801C 19.8848 18.83 19.9267 19.0494 20.0117 19.2402C 20.1005 19.4311 20.226 19.6001 20.3887 19.7461C 20.5551 19.8921 20.7553 20.0194 20.9883 20.1289C 21.225 20.2356 21.4913 20.3288 21.7871 20.4102C 22.009 20.4832 22.1982 20.5601 22.3535 20.6387C 22.5125 20.7173 22.6382 20.8019 22.7344 20.8945C 22.8342 20.9872 22.9068 21.0867 22.9512 21.1934C 22.9955 21.3001 23.0176 21.4166 23.0176 21.543C 23.0176 21.6945 22.991 21.8335 22.9355 21.957C 22.8801 22.0777 22.7986 22.1806 22.6914 22.2676C 22.5879 22.3519 22.4581 22.4172 22.3027 22.4648C 22.1511 22.5096 21.9772 22.5332 21.7812 22.5332C 21.6407 22.5332 21.4999 22.5151 21.3594 22.4785C 21.2188 22.442 21.0912 22.3778 20.9766 22.2852C 20.8619 22.1925 20.7695 22.0673 20.6992 21.9102C 20.629 21.753 20.5938 21.555 20.5938 21.3164L 19.6172 21.3164C 19.6172 21.6336 19.6677 21.9055 19.7676 22.1328C 19.8674 22.3574 20.0016 22.5446 20.168 22.6934C 20.3381 22.8422 20.5318 22.9546 20.75 23.0332C 20.9682 23.1121 21.1928 23.1645 21.4258 23.1895L 21.4258 23.9981L 22.1973 23.9981L 22.1973 23.1895C 22.4746 23.1614 22.7234 23.1057 22.9453 23.0215C 23.1672 22.9373 23.3564 22.824 23.5117 22.6836C 23.667 22.5433 23.788 22.3784 23.873 22.1875C 23.9581 21.9938 24 21.7766 24 21.5352C 24 21.2881 23.9603 21.0709 23.8789 20.8828C 23.7976 20.6947 23.6766 20.5279 23.5176 20.3848C 23.3586 20.2417 23.1627 20.1165 22.9297 20.0098C 22.6967 19.9003 22.4282 19.8038 22.125 19.7168C 21.8883 19.641 21.6881 19.563 21.5254 19.4844C 21.3664 19.403 21.2385 19.3164 21.1387 19.2266C 21.0388 19.1367 20.9662 19.0402 20.9219 18.9336C 20.8812 18.8241 20.8613 18.7012 20.8613 18.5664C 20.8613 18.4205 20.8812 18.2867 20.9219 18.166C 20.9663 18.0453 21.0302 17.9436 21.1152 17.8594C 21.204 17.7723 21.3139 17.7039 21.4434 17.6563C 21.5728 17.6086 21.7248 17.5859 21.9023 17.5859C 22.0725 17.5859 22.2243 17.6171 22.3574 17.6816C 22.4905 17.7462 22.6027 17.8361 22.6914 17.9512C 22.7802 18.0662 22.8463 18.2022 22.8906 18.3594C 22.9387 18.5166 22.9629 18.6908 22.9629 18.8789L 23.9336 18.8789C 23.9336 18.3091 23.7906 17.8597 23.5059 17.5313C 23.2248 17.2 22.8263 16.9979 22.3086 16.9277L 22.3086 15.9981L 21.5254 15.9981ZM 15 16.9981L 16.6191 16.9981C 16.1062 17.8817 15.8086 18.905 15.8086 19.9981C 15.8086 21.092 16.1073 22.1139 16.6211 22.9981L 15 22.9981L 15 16.9981Z"/>
</defs>
</svg>
