<svg width="100" height="99" viewBox="0 0 100 99" version="1.1" xmlns="http://www.w3.org/2000/svg" xmlns:xlink="http://www.w3.org/1999/xlink">
<title>if_12_SEO_Benchmark_1688863</title>
<desc>Created using Figma</desc>
<g id="Canvas" transform="translate(380 -246)">
<g id="if_12_SEO_Benchmark_1688863">
<g id="12 SEO Benchmark">
<g id="Vector">
<use xlink:href="#path0_stroke" transform="translate(-372 254)" fill="#E3D047"/>
</g>
<g id="Vector">
<use xlink:href="#path1_fill" transform="translate(-380 289)" fill="#FFFFFF"/>
</g>
<g id="Vector">
<use xlink:href="#path1_fill" transform="translate(-296 246)" fill="#FFFFFF"/>
</g>
<g id="Vector">
<use xlink:href="#path1_fill" transform="translate(-324 271)" fill="#FFFFFF"/>
</g>
<g id="Vector">
<use xlink:href="#path2_fill" transform="translate(-352 253.01)" fill="#FFFFFF"/>
</g>
<g id="Vector">
<use xlink:href="#path3_stroke" transform="translate(-372 309)" fill="#E3D047"/>
</g>
<g id="Vector">
<use xlink:href="#path4_stroke" transform="translate(-316 291)" fill="#E3D047"/>
</g>
<g id="Vector">
<use xlink:href="#path5_stroke" transform="translate(-288 267)" fill="#E3D047"/>
</g>
<g id="Vector">
<use xlink:href="#path6_stroke" transform="translate(-344 276)" fill="#E3D047"/>
</g>
</g>
</g>
</g>
<defs>
<path id="path0_stroke" d="M 28 7L 29.6223 4.47646L 27.3155 2.99356L 25.6319 5.15818L 28 7ZM 56 25L 54.3777 27.5235L 56.2965 28.757L 57.998 27.2378L 56 25ZM 2.36806 44.8418L 30.3681 8.84182L 25.6319 5.15818L -2.36806 41.1582L 2.36806 44.8418ZM 26.3777 9.52354L 54.3777 27.5235L 57.6223 22.4765L 29.6223 4.47646L 26.3777 9.52354ZM 57.998 27.2378L 85.998 2.23781L 82.002 -2.23781L 54.002 22.7622L 57.998 27.2378Z"/>
<path id="path1_fill" d="M 8 16C 12.4183 16 16 12.4183 16 8C 16 3.58172 12.4183 0 8 0C 3.58172 0 0 3.58172 0 8C 0 12.4183 3.58172 16 8 16Z"/>
<path id="path2_fill" d="M 8 16C 12.4183 16 16 12.4183 16 8C 16 3.58172 12.4183 0 8 0C 3.58172 0 0 3.58172 0 8C 0 12.4183 3.58172 16 8 16Z"/>
<path id="path3_stroke" d="M -3 0L -3 36L 3 36L 3 0L -3 0Z"/>
<path id="path4_stroke" d="M -3 0L -3 54L 3 54L 3 0L -3 0Z"/>
<path id="path5_stroke" d="M -3 0L -3 78L 3 78L 3 0L -3 0Z"/>
<path id="path6_stroke" d="M -3 0L -3 69L 3 69L 3 0L -3 0Z"/>
</defs>
</svg>
