<svg width="61" height="106" viewBox="0 0 61 106" version="1.1" xmlns="http://www.w3.org/2000/svg" xmlns:xlink="http://www.w3.org/1999/xlink">
<title>if_private__lock__wifi__secure_2537366</title>
<desc>Created using Figma</desc>
<g id="Canvas" transform="translate(19 -246)">
<g id="if_private__lock__wifi__secure_2537366">
<g id="Group">
<g id="Group">
<g id="Vector">
<use xlink:href="#path0_fill" transform="translate(-19 272.498)" fill="#FFFFFF"/>
</g>
</g>
<g id="Group">
<g id="Vector">
<use xlink:href="#path1_fill" transform="translate(-7.60611 259.004)" fill="#E3D047"/>
</g>
</g>
<g id="Group">
<g id="Vector">
<use xlink:href="#path2_fill" transform="translate(-16.3204 246)" fill="#E3D047"/>
</g>
</g>
</g>
</g>
</g>
<defs>
<path id="path0_fill" d="M 52.2857 26.5053L 52.2857 22.538C 52.2857 16.5485 50.0284 10.8954 45.9213 6.61162C 41.7854 2.34836 36.3092 -3.10526e-08 30.5 -3.10526e-08C 18.487 -3.10526e-08 8.71429 10.1104 8.71429 22.538L 8.71429 26.5053L 0 26.5053L 0.108902 79.5018L 61 79.5018L 61 26.5053L 52.2857 26.5053ZM 13.0714 22.538C 13.0714 12.5461 20.89 4.41637 30.5 4.41637C 35.1316 4.41637 39.5047 6.29571 42.8045 9.69856C 46.1085 13.1445 47.9286 17.7043 47.9286 22.538L 47.9286 26.4982L 13.0714 26.4982L 13.0714 22.538ZM 36.2078 56.7796L 36.2078 65.9656L 24.7922 65.9656L 24.7922 56.7796C 22.57 55.0129 21.2411 52.2969 21.2411 49.4041C 21.2411 44.2369 25.4022 40.0194 30.5 40.0194C 35.5979 40.0194 39.7589 44.2369 39.7589 49.4041C 39.7589 52.2969 38.43 55.0129 36.2078 56.7796Z"/>
<path id="path1_fill" d="M -6.80804e-08 9.63171L 3.35509 12.4502C 7.58883 7.26934 13.1831 4.41637 19.1061 4.41637C 25.0291 4.41637 30.6234 7.26934 34.8571 12.4502L 38.2122 9.63171C 33.136 3.4201 26.3503 9.31579e-08 19.1061 9.31579e-08C 11.8619 9.31579e-08 5.07624 3.4201 -6.80804e-08 9.63171Z"/>
<path id="path2_fill" d="M 27.8204 4.41637C 37.0357 4.41637 45.7234 8.83814 52.2857 16.8665L 55.6408 14.0481C 48.236 4.98891 38.3558 -3.10526e-08 27.8204 -3.10526e-08C 17.285 -3.10526e-08 7.4048 4.98891 -6.80804e-08 14.0481L 3.35509 16.8665C 9.91739 8.83814 18.6051 4.41637 27.8204 4.41637Z"/>
</defs>
</svg>
