<svg width="113" height="113" viewBox="0 0 113 113" version="1.1" xmlns="http://www.w3.org/2000/svg" xmlns:xlink="http://www.w3.org/1999/xlink">
<title>if_free-25_463004</title>
<desc>Created using Figma</desc>
<g id="Canvas" transform="translate(-275 -241)">
<g id="if_free-25_463004">
<g id="Vector">
<use xlink:href="#path0_fill" transform="translate(275 241)" fill="#E3D047"/>
</g>
<g id="Vector">
<use xlink:href="#path1_fill" transform="translate(284 250)" fill="#FFFFFF"/>
</g>
</g>
</g>
<defs>
<path id="path0_fill" d="M 56.5 4.24015C 85.333 4.24015 108.76 27.667 108.76 56.5C 108.76 85.333 85.333 108.76 56.5 108.76C 27.667 108.76 4.24015 85.333 4.24015 56.5C 4.24015 27.667 27.667 4.24015 56.5 4.24015ZM 56.5 -2.02186e-07C 25.2289 -2.02186e-07 -2.02186e-07 25.3349 -2.02186e-07 56.5C -2.02186e-07 87.6651 25.3349 113 56.5 113C 87.7711 113 113 87.6651 113 56.5C 113 25.3349 87.7711 -2.02186e-07 56.5 -2.02186e-07Z"/>
<path id="path1_fill" d="M 75 48.3L 94.6 48.3C 94.6 48 94.6 47.6 94.6 47.3C 94.6 47 94.6 46.6 94.6 46.3L 75 46.3C 74.9 38.3 73.7 30.6 71.6 23.3C 76.1 22 80.5 20.2 84.7 18.2C 84.3 17.7 83.8 17.1 83.4 16.6C 79.4 18.5 75.3 20.1 71.1 21.4C 69 14.7 66 8.3 62.3 2.4C 61.3 2.1 60.4 1.8 59.4 1.5C 63.5 7.8 66.9 14.6 69.2 21.9C 62.6 23.7 55.6 24.7 48.5 24.8L 48.5 7.62939e-07C 48.2 7.62939e-07 47.8 7.62939e-07 47.5 7.62939e-07C 47.2 7.62939e-07 46.8 7.62939e-07 46.5 7.62939e-07L 46.5 24.8C 39.4 24.7 32.5 23.7 25.9 22C 28.2 14.7 31.6 7.8 35.7 1.4C 34.7 1.7 33.7 1.9 32.8 2.3C 29.1 8.2 26.1 14.7 24 21.4C 19.7 20.1 15.5 18.5 11.5 16.6C 11.1 17.1 10.6 17.7 10.2 18.2C 14.4 20.3 18.9 22 23.4 23.3C 21.3 30.6 20.1 38.3 20 46.2L 7.62939e-07 46.2C 7.62939e-07 46.5 7.62939e-07 46.9 7.62939e-07 47.2C 7.62939e-07 47.5 7.62939e-07 47.9 7.62939e-07 48.2L 19.8 48.2C 19.9 56.7 21.2 64.9 23.7 72.7C 19.3 74 15.1 75.6 11 77.5C 11.4 78 11.9 78.6 12.4 79.1C 16.3 77.3 20.3 75.8 24.4 74.6C 26.5 80.8 29.3 86.7 32.7 92.2C 33.7 92.5 34.6 92.8 35.6 93.1C 31.7 87.2 28.6 80.8 26.3 74.1C 32.7 72.4 39.4 71.5 46.3 71.4L 46.3 94.5C 46.6 94.5 47 94.5 47.3 94.5C 47.6 94.5 48 94.5 48.3 94.5L 48.3 71.5C 55.3 71.6 62 72.5 68.5 74.2C 66.2 80.9 63.1 87.3 59.2 93.1C 60.2 92.8 61.2 92.5 62.1 92.2C 65.5 86.7 68.3 80.9 70.4 74.7C 74.5 75.9 78.4 77.4 82.2 79.1C 82.7 78.6 83.1 78.1 83.6 77.5C 79.6 75.6 75.4 74 71 72.7C 73.5 65.1 74.9 56.8 75 48.3ZM 46.3 69.5C 39.2 69.6 32.2 70.5 25.6 72.3C 23.2 64.7 21.9 56.7 21.8 48.4L 46.3 48.4L 46.3 69.5ZM 46.3 46.3L 21.8 46.3C 21.9 38.5 23.1 31 25.1 23.9C 31.9 25.7 38.9 26.7 46.2 26.8L 46.2 46.3L 46.3 46.3ZM 48.3 26.8C 55.7 26.7 62.8 25.7 69.6 23.9C 71.7 31 72.9 38.6 72.9 46.3L 48.3 46.3L 48.3 26.8ZM 69.2 72.3C 62.5 70.5 55.5 69.6 48.3 69.5L 48.3 48.3L 73.3 48.3C 73.2 56.6 71.5 64.7 69.2 72.3Z"/>
</defs>
</svg>
