<svg width="290" height="78" viewBox="0 0 290 78" version="1.1" xmlns="http://www.w3.org/2000/svg" xmlns:xlink="http://www.w3.org/1999/xlink">
<title>Group</title>
<desc>Created using Figma</desc>
<g id="Canvas" transform="translate(-1997 283)">
<g id="Group">
<g id="if_Untitled-2-50_536306">
<g id="Group">
<g id="Vector">
<use xlink:href="#path0_fill" transform="translate(1997 -256)" fill="#FFFFFF"/>
</g>
</g>
</g>
<g id="if_XRP-alt_1175359">
<g id="XRP">
<use xlink:href="#path1_fill" transform="translate(2009 -225)" fill="#FFFFFF"/>
</g>
</g>
<g id="if_ETH_1175230">
<g id="Group">
<g id="Vector">
<use xlink:href="#path2_fill" transform="translate(2026.31 -250.142)" fill="#FFFFFF"/>
</g>
<g id="Vector">
<use xlink:href="#path3_fill" transform="translate(2026.74 -267.169)" fill="#FFFFFF"/>
</g>
<g id="Vector">
<use xlink:href="#path4_fill" transform="translate(2040.58 -267.175)" fill="#FFFFFF"/>
</g>
<g id="Vector">
<use xlink:href="#path5_fill" transform="translate(2040.58 -250.142)" fill="#FFFFFF"/>
</g>
<g id="Vector">
<use xlink:href="#path6_fill" transform="translate(2026.4 -241.469)" fill="#FFFFFF"/>
</g>
<g id="Vector">
<use xlink:href="#path7_fill" transform="translate(2040.58 -241.469)" fill="#FFFFFF"/>
</g>
</g>
</g>
<g id="if_LTC-alt_1175272">
<g id="LTC alt 2">
<use xlink:href="#path8_fill" transform="translate(2011 -283)" fill="#FFFFFF"/>
</g>
<g id="SWIFTY">
<g id="Vector">
<use xlink:href="#path9_fill" transform="translate(2063 -268.325)" fill="#FFFFFF"/>
<mask id="mask0_outline_ins">
<use xlink:href="#path9_fill" fill="white" transform="translate(2063 -268.325)"/>
</mask>
<g mask="url(#mask0_outline_ins)">
<use xlink:href="#path10_stroke_2x" transform="translate(2063 -268.325)" fill="#FFFFFF"/>
</g>
</g>
<g id="Vector">
<use xlink:href="#path11_fill" transform="matrix(-1 0 0 -1 2168.96 -240.285)" fill="#FFFFFF"/>
<mask id="mask1_outline_ins">
<use xlink:href="#path11_fill" fill="white" transform="matrix(-1 0 0 -1 2168.96 -240.285)"/>
</mask>
<g mask="url(#mask1_outline_ins)">
<use xlink:href="#path12_stroke_2x" transform="matrix(-1 0 0 -1 2168.96 -240.285)" fill="#FFFFFF"/>
</g>
</g>
<g id="Vector">
<use xlink:href="#path13_fill" transform="matrix(1 -1.22483e-16 1.22447e-16 1 2158.24 -282)" fill="#FFFFFF"/>
<mask id="mask2_outline_ins">
<use xlink:href="#path13_fill" fill="white" transform="matrix(1 -1.22483e-16 1.22447e-16 1 2158.24 -282)"/>
</mask>
<g mask="url(#mask2_outline_ins)">
<use xlink:href="#path14_stroke_2x" transform="matrix(1 -1.22483e-16 1.22447e-16 1 2158.24 -282)" fill="#FFFFFF"/>
</g>
</g>
</g>
</g>
</g>
</g>
<defs>
<path id="path0_fill" d="M 18.5279 15.0303C 18.1088 14.315 17.5456 13.7586 16.8317 13.3643C 16.3399 13.0795 15.6304 12.821 14.6998 12.5866C 15.5644 12.2898 16.2596 11.9228 16.791 11.4693C 17.3179 11.0235 17.726 10.5065 18.0065 9.91834C 18.2837 9.33123 18.4267 8.71236 18.4267 8.05735C 18.4267 7.16136 18.1616 6.33547 17.6314 5.58297C 17.0979 4.83485 16.3399 4.25541 15.3554 3.85561C 14.7823 3.6223 14.0717 3.46457 13.2532 3.36818L 13.2532 0.454568L 10.4734 0L 10.4734 3.24989L 8.68369 3.24989L 8.68369 0.345033L 5.90389 0L 5.90389 3.24989L -1.88834e-08 3.24989L -1.88834e-08 5.99153L 0.781025 5.99153C 1.30354 5.99153 1.65555 6.03973 1.84476 6.12954C 2.02847 6.22703 2.15937 6.35299 2.23637 6.51182C 2.31338 6.67393 2.34858 7.04744 2.34858 7.63455L 2.34858 18.6668C 2.34858 19.2386 2.31118 19.6132 2.23637 19.7808C 2.15937 19.944 2.02957 20.0711 1.84476 20.1642C 1.65665 20.2507 1.30354 20.2956 0.781025 20.2956L -1.88834e-08 20.2956L -1.88834e-08 23.0384L 5.90389 23.0384L 5.90389 25.7658L 8.68149 26.2883L 8.68149 23.0384L 10.4085 23.0384C 10.4305 23.0384 10.4503 23.0362 10.4745 23.0362L 10.4745 25.8216L 13.2521 26.2883L 13.2521 22.8741C 14.1476 22.7601 14.9044 22.5772 15.5061 22.3417C 16.6677 21.8773 17.5665 21.2015 18.2012 20.3186C 18.8392 19.4336 19.1538 18.4697 19.1538 17.4203C 19.1527 16.5419 18.9426 15.7456 18.5279 15.0303ZM 7.26354 6.44391L 9.44161 6.44391C 10.7133 6.44391 11.5933 6.52277 12.0894 6.67941C 12.5844 6.83604 12.9606 7.10002 13.2202 7.46258C 13.4809 7.83719 13.614 8.2808 13.614 8.7978C 13.614 9.30275 13.4754 9.74199 13.1993 10.1275C 12.9232 10.5109 12.5129 10.7968 11.9673 10.9819C 11.4217 11.1747 10.579 11.2667 9.44051 11.2667L 7.26244 11.2667L 7.26244 6.44391L 7.26354 6.44391ZM 13.4149 18.6679C 13.0266 19.1598 12.5569 19.4807 12.0025 19.6373C 11.4503 19.7951 10.7496 19.875 9.90692 19.875L 8.45708 19.875C 7.97306 19.875 7.67715 19.8498 7.56825 19.7972C 7.45714 19.7425 7.38014 19.6516 7.33284 19.5212C 7.29214 19.415 7.27124 19.0634 7.26354 18.4533L 7.26354 14.1737L 9.82992 14.1737C 10.9608 14.1737 11.8001 14.2789 12.3479 14.4859C 12.8957 14.6929 13.3093 15.0018 13.5821 15.4082C 13.8605 15.8146 13.9947 16.3119 13.9947 16.899C 13.998 17.5836 13.8033 18.1739 13.4149 18.6679Z"/>
<path id="path1_fill" d="M 16.8383 12.2725C 16.1664 11.9039 15.4354 11.7332 14.7155 11.7388L 14.7216 11.7354C 13.7339 11.7467 12.9237 10.9782 12.9121 10.0192C 12.9007 9.07286 13.6703 8.29525 14.6387 8.26293L 14.6387 8.26248L 14.6369 8.2616C 15.3695 8.25806 16.1107 8.07165 16.7859 7.68183C 18.805 6.51599 19.4688 3.98136 18.2685 2.02048C 17.0679 0.0595041 14.458 -0.585091 12.4389 0.580741C 10.4198 1.74649 9.75611 4.28121 10.9565 6.24209C 11.4565 7.05919 11.1801 8.11522 10.3388 8.60103C 9.5095 9.07985 8.44161 8.82543 7.93219 8.03578L 7.93175 8.03596L 7.93175 8.03817C 7.56466 7.42262 7.02983 6.89085 6.34612 6.51573C 4.30108 5.39355 1.70625 6.09385 0.550821 8.08024C -0.604609 10.0662 0.116816 12.5861 2.16194 13.7082C 4.20716 14.8304 6.80163 14.13 7.95715 12.1437C 7.96414 12.1317 7.97034 12.1193 7.97716 12.1073L 7.97716 12.1102L 7.9776 12.1104C 8.46843 11.3086 9.53154 11.0308 10.3718 11.4918C 11.224 11.9595 11.5244 13.0093 11.043 13.8368C 9.88738 15.8232 10.6089 18.3429 12.6539 19.4649C 14.6991 20.5872 17.2938 19.8867 18.4492 17.9004C 19.6045 15.9143 18.8833 13.3946 16.8383 12.2725Z"/>
<path id="path2_fill" d="M 13.4092 13.6988L 13.4092 -5.13439e-07L 1.85478e-07 5.86114L 13.4092 13.6988Z"/>
<path id="path3_fill" d="M 12.9771 16.0847L 12.9771 -3.38157e-10L -9.57303e-08 21.7567L 12.9771 16.0847Z"/>
<path id="path4_fill" d="M -3.94888e-07 -6.99635e-10L -3.94888e-07 16.0913L 13.1595 21.8435L -3.94888e-07 -6.99635e-10Z"/>
<path id="path5_fill" d="M -3.94888e-07 -5.13439e-07L -3.94888e-07 13.6991L 13.4186 5.86505L -3.94888e-07 -5.13439e-07Z"/>
<path id="path6_fill" d="M 13.319 18.7995L 13.319 7.78127L 5.98315e-09 -4.77618e-07L 13.319 18.7995Z"/>
<path id="path7_fill" d="M -3.94888e-07 18.7995L 13.319 -4.77618e-07L -3.94888e-07 7.78127L -3.94888e-07 18.7995Z"/>
<path id="path8_fill" d="M 6.54546 16.8549L 7.72261 11.2866L 13.6718 7.23447L 14.3691 3.9251L 8.41879 7.99381L 10.1088 0L 5.53855 0L 3.08383 11.6417L 0.581114 13.3531L -1.68683e-08 16.547L 2.39263 14.9172L 1.16204 20.7539L 15.802 20.7539L 16.6154 16.8549L 6.54546 16.8549Z"/>
<path id="path9_fill" d="M 24.2522 33.1425C 24.2522 31.5803 23.6944 30.3629 22.5787 29.4905C 21.4832 28.6182 19.5459 27.7152 16.7666 26.7818C 13.9874 25.8484 11.7154 24.9457 9.95044 24.0734C 4.2094 21.253 1.33888 17.3777 1.33888 12.4475C 1.33888 9.99249 2.04891 7.83168 3.46897 5.96506C 4.90928 4.07817 6.93794 2.61734 9.55487 1.58258C 12.1718 0.527534 15.1133 0 18.3794 0C 21.5644 0 24.4145 0.568125 26.9301 1.70433C 29.466 2.8405 31.4337 4.46367 32.8333 6.57376C 34.2332 8.66353 34.933 11.0577 34.933 13.7562L 24.2828 13.7562C 24.2828 11.9504 23.7249 10.5504 22.6091 9.55626C 21.5137 8.56209 20.0226 8.065 18.136 8.065C 16.2291 8.065 14.7177 8.49109 13.602 9.34323C 12.5065 10.1751 11.9588 11.2403 11.9588 12.5388C 11.9588 13.675 12.5674 14.7098 13.7846 15.6432C 15.0017 16.556 17.1419 17.5096 20.2052 18.5038C 23.2684 19.4777 25.784 20.5328 27.7517 21.669C 32.5391 24.4284 34.933 28.2325 34.933 33.0817C 34.933 36.957 33.4724 40.0004 30.5511 42.2118C 27.6299 44.4234 23.6234 45.5293 18.5316 45.5293C 14.9409 45.5293 11.6849 44.8901 8.76369 43.6119C 5.86274 42.3133 3.67182 40.5481 2.19092 38.3163C 0.730308 36.0641 0 33.4775 0 30.5558L 10.7112 30.5558C 10.7112 32.9295 11.3198 34.6846 12.5369 35.8208C 13.7744 36.9367 15.7726 37.4946 18.5316 37.4946C 20.2965 37.4946 21.6861 37.1193 22.7004 36.3685C 23.735 35.5977 24.2522 34.5223 24.2522 33.1425ZM 74.7347 28.3948L 79.8166 0.608691L 90.406 0.608691L 81.0033 44.9205L 69.927 44.9205L 63.9931 19.6602L 58.1811 44.9205L 47.1352 44.9205L 37.7021 0.608691L 48.3221 0.608691L 53.4037 28.3948L 59.4898 0.608691L 68.5575 0.608691L 74.7347 28.3948ZM 105.956 44.9205L 95.2443 44.9205L 95.2443 20.0865L 105.956 34.3701L 105.956 44.9205ZM 141.284 27.2688L 124.061 27.2688L 124.061 44.9205L 113.38 44.9205L 113.38 0.608691L 143.019 0.608691L 143.019 8.85629L 124.061 8.85629L 124.061 19.0518L 141.284 19.0518L 141.284 27.2688ZM 182.851 8.85629L 169.553 8.85629L 169.553 56.4449L 158.872 44.9205L 158.872 8.85629L 145.818 8.85629L 145.818 0.608691L 182.851 0.608691L 182.851 8.85629ZM 204.091 19.8431L 212.246 0.608691L 223.779 0.608691L 209.507 29.0036L 209.507 44.9205L 198.674 44.9205L 198.674 29.0036L 184.433 0.608691L 195.905 0.608691L 204.091 19.8431Z"/>
<path id="path10_stroke_2x" d="M 22.5787 29.4905L 19.464 33.4018L 19.4814 33.4158L 19.499 33.4295L 22.5787 29.4905ZM 9.95044 24.0734L 12.1659 19.591L 12.1551 19.5857L 9.95044 24.0734ZM 3.46897 5.96506L -0.505479 2.93128L -0.510374 2.93772L 3.46897 5.96506ZM 9.55487 1.58258L 11.3934 6.23228L 11.4089 6.22614L 11.4244 6.21989L 9.55487 1.58258ZM 26.9301 1.70433L 24.872 6.26111L 24.8789 6.2642L 24.8857 6.26728L 26.9301 1.70433ZM 32.8333 6.57376L 28.6666 9.3375L 28.6729 9.34698L 28.6792 9.35643L 32.8333 6.57376ZM 34.933 13.7562L 34.933 18.7562L 39.933 18.7562L 39.933 13.7562L 34.933 13.7562ZM 24.2828 13.7562L 19.2828 13.7562L 19.2828 18.7562L 24.2828 18.7562L 24.2828 13.7562ZM 22.6091 9.55626L 19.2489 13.2588L 19.2658 13.2742L 19.2828 13.2893L 22.6091 9.55626ZM 13.602 9.34323L 16.6258 13.3253L 16.6368 13.3169L 13.602 9.34323ZM 13.7846 15.6432L 10.742 19.6109L 10.7632 19.6271L 10.7846 19.6432L 13.7846 15.6432ZM 20.2052 18.5038L 18.6617 23.2596L 18.676 23.2642L 18.6903 23.2688L 20.2052 18.5038ZM 27.7517 21.669L 25.2515 25.9991L 25.2549 26.001L 27.7517 21.669ZM 30.5511 42.2118L 27.5333 38.2252L 27.5331 38.2254L 30.5511 42.2118ZM 8.76369 43.6119L 6.72092 48.1755L 6.74008 48.1841L 6.75931 48.1925L 8.76369 43.6119ZM 2.19092 38.3163L -2.00408 41.0369L -1.98984 41.0589L -1.97537 41.0807L 2.19092 38.3163ZM 0 30.5558L 0 25.5558L -5 25.5558L -5 30.5558L 0 30.5558ZM 10.7112 30.5558L 15.7112 30.5558L 15.7112 25.5558L 10.7112 25.5558L 10.7112 30.5558ZM 12.5369 35.8208L 9.12504 39.4758L 9.1565 39.5051L 9.18846 39.534L 12.5369 35.8208ZM 22.7004 36.3685L 25.6751 40.3873L 25.6814 40.3827L 25.6876 40.378L 22.7004 36.3685ZM 74.7347 28.3948L 69.8539 29.4799L 79.6531 29.2944L 74.7347 28.3948ZM 79.8166 0.608691L 79.8166 -4.39131L 75.6481 -4.39131L 74.8982 -0.290855L 79.8166 0.608691ZM 90.406 0.608691L 95.2971 1.64656L 96.5783 -4.39131L 90.406 -4.39131L 90.406 0.608691ZM 81.0033 44.9205L 81.0033 49.9205L 85.0536 49.9205L 85.8944 45.9584L 81.0033 44.9205ZM 69.927 44.9205L 65.0595 46.0639L 65.9655 49.9205L 69.927 49.9205L 69.927 44.9205ZM 63.9931 19.6602L 68.8607 18.5168L 59.1205 18.5391L 63.9931 19.6602ZM 58.1811 44.9205L 58.1811 49.9205L 62.1613 49.9205L 63.0537 46.0417L 58.1811 44.9205ZM 47.1352 44.9205L 42.2448 45.9616L 43.0875 49.9205L 47.1352 49.9205L 47.1352 44.9205ZM 37.7021 0.608691L 37.7021 -4.39131L 31.5256 -4.39131L 32.8116 1.64976L 37.7021 0.608691ZM 48.3221 0.608691L 53.2405 -0.290811L 52.4906 -4.39131L 48.3221 -4.39131L 48.3221 0.608691ZM 53.4037 28.3948L 48.4853 29.2943L 58.288 29.4646L 53.4037 28.3948ZM 59.4898 0.608691L 59.4898 -4.39131L 55.4664 -4.39131L 54.6056 -0.461104L 59.4898 0.608691ZM 68.5575 0.608691L 73.4384 -0.476376L 72.568 -4.39131L 68.5575 -4.39131L 68.5575 0.608691ZM 105.956 44.9205L 105.956 49.9205L 110.956 49.9205L 110.956 44.9205L 105.956 44.9205ZM 95.2443 44.9205L 90.2443 44.9205L 90.2443 49.9205L 95.2443 49.9205L 95.2443 44.9205ZM 95.2443 20.0865L 99.2445 17.0867L 90.2443 5.08482L 90.2443 20.0865L 95.2443 20.0865ZM 105.956 34.3701L 110.956 34.3701L 110.956 32.7036L 109.956 31.3703L 105.956 34.3701ZM 141.284 27.2688L 141.284 32.2688L 146.284 32.2688L 146.284 27.2688L 141.284 27.2688ZM 124.061 27.2688L 124.061 22.2688L 119.061 22.2688L 119.061 27.2688L 124.061 27.2688ZM 124.061 44.9205L 124.061 49.9205L 129.061 49.9205L 129.061 44.9205L 124.061 44.9205ZM 113.38 44.9205L 108.38 44.9205L 108.38 49.9205L 113.38 49.9205L 113.38 44.9205ZM 113.38 0.608691L 113.38 -4.39131L 108.38 -4.39131L 108.38 0.608691L 113.38 0.608691ZM 143.019 0.608691L 148.019 0.608691L 148.019 -4.39131L 143.019 -4.39131L 143.019 0.608691ZM 143.019 8.85629L 143.019 13.8563L 148.019 13.8563L 148.019 8.85629L 143.019 8.85629ZM 124.061 8.85629L 124.061 3.85629L 119.061 3.85629L 119.061 8.85629L 124.061 8.85629ZM 124.061 19.0518L 119.061 19.0518L 119.061 24.0518L 124.061 24.0518L 124.061 19.0518ZM 141.284 19.0518L 146.284 19.0518L 146.284 14.0518L 141.284 14.0518L 141.284 19.0518ZM 182.851 8.85629L 182.851 13.8563L 187.851 13.8563L 187.851 8.85629L 182.851 8.85629ZM 169.553 8.85629L 169.553 3.85629L 164.553 3.85629L 164.553 8.85629L 169.553 8.85629ZM 169.553 56.4449L 165.886 59.8437L 174.553 69.1954L 174.553 56.4449L 169.553 56.4449ZM 158.872 44.9205L 153.872 44.9205L 153.872 46.8812L 155.205 48.3193L 158.872 44.9205ZM 158.872 8.85629L 163.872 8.85629L 163.872 3.85629L 158.872 3.85629L 158.872 8.85629ZM 145.818 8.85629L 140.818 8.85629L 140.818 13.8563L 145.818 13.8563L 145.818 8.85629ZM 145.818 0.608691L 145.818 -4.39131L 140.818 -4.39131L 140.818 0.608691L 145.818 0.608691ZM 182.851 0.608691L 187.851 0.608691L 187.851 -4.39131L 182.851 -4.39131L 182.851 0.608691ZM 204.091 19.8431L 199.49 21.801L 204.099 32.6318L 208.694 21.7948L 204.091 19.8431ZM 212.246 0.608691L 212.246 -4.39131L 208.935 -4.39131L 207.642 -1.34304L 212.246 0.608691ZM 223.779 0.608691L 228.246 2.85407L 231.888 -4.39131L 223.779 -4.39131L 223.779 0.608691ZM 209.507 29.0036L 205.04 26.7582L 204.507 27.8177L 204.507 29.0036L 209.507 29.0036ZM 209.507 44.9205L 209.507 49.9205L 214.507 49.9205L 214.507 44.9205L 209.507 44.9205ZM 198.674 44.9205L 193.674 44.9205L 193.674 49.9205L 198.674 49.9205L 198.674 44.9205ZM 198.674 29.0036L 203.674 29.0036L 203.674 27.82L 203.144 26.762L 198.674 29.0036ZM 184.433 0.608691L 184.433 -4.39131L 176.332 -4.39131L 179.964 2.85025L 184.433 0.608691ZM 195.905 0.608691L 200.506 -1.34926L 199.211 -4.39131L 195.905 -4.39131L 195.905 0.608691ZM 29.2522 33.1425C 29.2522 30.2238 28.1226 27.4782 25.6583 25.5515L 19.499 33.4295C 19.4906 33.4229 19.4544 33.3928 19.4081 33.3349C 19.361 33.2761 19.3195 33.2087 19.2883 33.1407C 19.2219 32.9957 19.2522 32.9613 19.2522 33.1425L 29.2522 33.1425ZM 25.6934 25.5792C 23.8717 24.1285 21.221 23.0033 18.3585 22.042L 15.1748 31.5217C 17.8707 32.4271 19.0947 33.1078 19.464 33.4018L 25.6934 25.5792ZM 18.3585 22.042C 15.7071 21.1535 13.7479 20.3775 12.1659 19.591L 7.73495 28.5557C 9.68285 29.514 12.2678 30.5434 15.1748 31.5217L 18.3585 22.042ZM 12.1551 19.5857C 7.52204 17.3096 6.33888 14.8808 6.33888 12.4475L -3.66112 12.4475C -3.66112 19.8747 0.896768 25.1964 7.74579 28.5611L 12.1551 19.5857ZM 6.33888 12.4475C 6.27602 10.7829 6.47481 10.1579 7.44831 8.99241L -0.510374 2.93772C -2.37698 5.50543 -3.59825 9.20212 -3.66112 12.4475L 6.33888 12.4475ZM 7.44341 8.99884C 8.39517 7.66265 9.33645 7.0045 11.3934 6.23228L 7.71633 -3.06713C 4.53943 -1.76982 1.42338 0.493681 -0.505474 2.93129L 7.44341 8.99884ZM 11.4244 6.21989C 13.5552 5.33234 15.5564 4.98033 18.3794 5L 18.3794 -5C 14.6703 -4.98033 10.7884 -4.27727 7.68529 -3.05474L 11.4244 6.21989ZM 18.3794 5C 21.0733 4.97582 22.8868 5.32904 24.872 6.26111L 28.9882 -2.85245C 25.9421 -4.19279 22.0555 -4.97582 18.3794 -5L 18.3794 5ZM 24.8857 6.26728C 26.8293 7.08874 27.7191 7.81052 28.6666 9.3375L 37.0001 3.81001C 35.1484 1.11682 32.1028 -1.40774 28.9745 -2.85863L 24.8857 6.26728ZM 28.6792 9.35643C 29.7037 10.781 29.9835 11.7662 29.933 13.7562L 39.933 13.7562C 39.8825 10.3491 38.7627 6.5461 36.9875 3.79108L 28.6792 9.35643ZM 34.933 8.75615L 24.2828 8.75615L 24.2828 18.7562L 34.933 18.7562L 34.933 8.75615ZM 29.2828 13.7562C 29.2828 10.8474 28.3354 7.96168 25.9354 5.82318L 19.2828 13.2893C 19.2784 13.2854 19.2619 13.2693 19.2434 13.2428C 19.225 13.2164 19.2182 13.1994 19.2196 13.2029C 19.2224 13.2098 19.2828 13.3645 19.2828 13.7562L 29.2828 13.7562ZM 25.9693 5.85371C 23.7219 3.81403 20.9113 3.065 18.136 3.065L 18.136 13.065C 18.6462 13.065 18.9426 13.1327 19.0879 13.1812C 19.2165 13.224 19.2471 13.2572 19.2489 13.2588L 25.9693 5.85371ZM 18.136 3.065C 15.5207 3.065 12.8197 3.64922 10.5672 5.36957L 16.6368 13.3169C 16.7841 13.1731 16.5958 13.2703 16.929 13.197C 17.3184 13.0724 17.4924 13.0554 18.136 13.065L 18.136 3.065ZM 10.5781 5.36122C 8.3236 7.07326 6.9588 9.57219 6.9588 12.5388L 16.9588 12.5388C 16.9588 12.6165 16.936 12.8194 16.8162 13.0525C 16.7011 13.2763 16.5848 13.3564 16.6258 13.3252L 10.5781 5.36122ZM 6.9588 12.5388C 6.9588 15.7342 8.75522 18.0874 10.742 19.6109L 16.8271 11.6754C 16.5934 11.4962 16.6263 11.4643 16.7251 11.6323C 16.8461 11.838 16.9588 12.1645 16.9588 12.5388L 6.9588 12.5388ZM 10.7846 19.6432C 12.7064 21.0845 15.5254 22.2417 18.6617 23.2596L 21.7486 13.748C 18.7585 12.7776 17.2971 12.0275 16.7845 11.6431L 10.7846 19.6432ZM 18.6903 23.2688C 21.5422 24.1702 23.5624 25.0122 25.2515 25.999L 30.2519 17.339C 28.0055 16.0535 24.9946 14.7851 21.7201 13.7388L 18.6903 23.2688ZM 25.2549 26.001C 28.753 28.0172 29.933 30.3008 29.933 33.0817L 39.933 33.0817C 39.933 26.1643 36.3252 20.8395 30.2485 17.3371L 25.2549 26.001ZM 29.933 33.0817C 29.933 35.4964 29.1244 37.0208 27.5333 38.2252L 33.569 46.1984C 37.8204 42.98 39.933 38.4176 39.933 33.0817L 29.933 33.0817ZM 27.5331 38.2254C 25.7622 39.5661 22.9498 40.5293 18.5316 40.5293L 18.5316 50.5293C 24.2971 50.5293 29.4976 49.2807 33.5692 46.1982L 27.5331 38.2254ZM 18.5316 40.5293C 15.4247 40.5527 13.1776 40.1181 10.7681 39.0312L 6.75931 48.1925C 10.1923 49.6621 14.4571 50.5058 18.5316 50.5293L 18.5316 40.5293ZM 10.8065 39.0482C 8.4742 38.0495 7.36683 37.1796 6.35722 35.5518L -1.97537 41.0807C -0.0231936 43.9167 3.25129 46.5772 6.72092 48.1755L 10.8065 39.0482ZM 6.38593 35.5956C 5.28496 34.0013 4.95275 32.7917 5 30.5558L -5 30.5558C -4.95275 34.1632 -3.82434 38.1269 -2.00408 41.0369L 6.38593 35.5956ZM 0 35.5558L 10.7112 35.5558L 10.7112 25.5558L 0 25.5558L 0 35.5558ZM 5.71118 30.5558C 5.71118 33.7143 6.52635 37.0499 9.12504 39.4758L 15.9488 32.1658C 16.1132 32.3192 15.7112 32.1447 15.7112 30.5558L 5.71118 30.5558ZM 9.18846 39.534C 11.7839 41.8745 15.2937 42.4946 18.5316 42.4946L 18.5316 32.4946C 17.4668 32.4946 16.7529 32.3845 16.3083 32.2603C 15.875 32.1394 15.8071 32.037 15.8854 32.1076L 9.18846 39.534ZM 18.5316 42.4946C 20.9512 42.4946 23.5166 41.9851 25.6751 40.3873L 19.7257 32.3497C 19.8556 32.2535 19.6418 32.4946 18.5316 32.4946L 18.5316 42.4946ZM 25.6876 40.378C 28.0882 38.5895 29.2522 35.9734 29.2522 33.1425L 19.2522 33.1425C 19.2522 33.1992 19.2445 33.0533 19.3584 32.8165C 19.4777 32.5685 19.6366 32.416 19.7132 32.3589L 25.6876 40.378ZM 79.6531 29.2944L 84.735 1.50824L 74.8982 -0.290855L 69.8163 27.4953L 79.6531 29.2944ZM 79.8166 5.60869L 90.406 5.60869L 90.406 -4.39131L 79.8166 -4.39131L 79.8166 5.60869ZM 85.5149 -0.429173L 76.1122 43.8826L 85.8944 45.9584L 95.2971 1.64656L 85.5149 -0.429173ZM 81.0033 39.9205L 69.927 39.9205L 69.927 49.9205L 81.0033 49.9205L 81.0033 39.9205ZM 74.7945 43.7771L 68.8607 18.5168L 59.1256 20.8037L 65.0595 46.0639L 74.7945 43.7771ZM 59.1205 18.5391L 53.3084 43.7994L 63.0537 46.0417L 68.8658 20.7814L 59.1205 18.5391ZM 52.0256 43.8794L 42.5925 -0.432382L 32.8116 1.64976L 42.2448 45.9616L 52.0256 43.8794ZM 37.7021 5.60869L 48.3221 5.60869L 48.3221 -4.39131L 37.7021 -4.39131L 37.7021 5.60869ZM 43.4037 1.50819L 48.4853 29.2943L 58.3222 27.4953L 53.2405 -0.290811L 43.4037 1.50819ZM 58.288 29.4646L 64.374 1.67849L 54.6056 -0.461104L 48.5195 27.325L 58.288 29.4646ZM 59.4898 5.60869L 68.5575 5.60869L 68.5575 -4.39131L 59.4898 -4.39131L 59.4898 5.60869ZM 63.6767 1.69376L 69.8539 29.4799L 79.6156 27.3098L 73.4384 -0.476376L 63.6767 1.69376ZM 105.956 39.9205L 95.2443 39.9205L 95.2443 49.9205L 105.956 49.9205L 105.956 39.9205ZM 100.244 44.9205L 100.244 20.0865L 90.2443 20.0865L 90.2443 44.9205L 100.244 44.9205ZM 91.2441 23.0862L 101.955 37.3698L 109.956 31.3703L 99.2445 17.0867L 91.2441 23.0862ZM 100.956 34.3701L 100.956 44.9205L 110.956 44.9205L 110.956 34.3701L 100.956 34.3701ZM 141.284 22.2688L 124.061 22.2688L 124.061 32.2688L 141.284 32.2688L 141.284 22.2688ZM 119.061 27.2688L 119.061 44.9205L 129.061 44.9205L 129.061 27.2688L 119.061 27.2688ZM 124.061 39.9205L 113.38 39.9205L 113.38 49.9205L 124.061 49.9205L 124.061 39.9205ZM 118.38 44.9205L 118.38 0.608691L 108.38 0.608691L 108.38 44.9205L 118.38 44.9205ZM 113.38 5.60869L 143.019 5.60869L 143.019 -4.39131L 113.38 -4.39131L 113.38 5.60869ZM 138.019 0.608691L 138.019 8.85629L 148.019 8.85629L 148.019 0.608691L 138.019 0.608691ZM 143.019 3.85629L 124.061 3.85629L 124.061 13.8563L 143.019 13.8563L 143.019 3.85629ZM 119.061 8.85629L 119.061 19.0518L 129.061 19.0518L 129.061 8.85629L 119.061 8.85629ZM 124.061 24.0518L 141.284 24.0518L 141.284 14.0518L 124.061 14.0518L 124.061 24.0518ZM 136.284 19.0518L 136.284 27.2688L 146.284 27.2688L 146.284 19.0518L 136.284 19.0518ZM 182.851 3.85629L 169.553 3.85629L 169.553 13.8563L 182.851 13.8563L 182.851 3.85629ZM 164.553 8.85629L 164.553 56.4449L 174.553 56.4449L 174.553 8.85629L 164.553 8.85629ZM 173.22 53.0461L 162.54 41.5217L 155.205 48.3193L 165.886 59.8437L 173.22 53.0461ZM 163.872 44.9205L 163.872 8.85629L 153.872 8.85629L 153.872 44.9205L 163.872 44.9205ZM 158.872 3.85629L 145.818 3.85629L 145.818 13.8563L 158.872 13.8563L 158.872 3.85629ZM 150.818 8.85629L 150.818 0.608691L 140.818 0.608691L 140.818 8.85629L 150.818 8.85629ZM 145.818 5.60869L 182.851 5.60869L 182.851 -4.39131L 145.818 -4.39131L 145.818 5.60869ZM 177.851 0.608691L 177.851 8.85629L 187.851 8.85629L 187.851 0.608691L 177.851 0.608691ZM 208.694 21.7948L 216.849 2.56042L 207.642 -1.34304L 199.487 17.8913L 208.694 21.7948ZM 212.246 5.60869L 223.779 5.60869L 223.779 -4.39131L 212.246 -4.39131L 212.246 5.60869ZM 219.311 -1.63669L 205.04 26.7582L 213.975 31.249L 228.246 2.85407L 219.311 -1.63669ZM 204.507 29.0036L 204.507 44.9205L 214.507 44.9205L 214.507 29.0036L 204.507 29.0036ZM 209.507 39.9205L 198.674 39.9205L 198.674 49.9205L 209.507 49.9205L 209.507 39.9205ZM 203.674 44.9205L 203.674 29.0036L 193.674 29.0036L 193.674 44.9205L 203.674 44.9205ZM 203.144 26.762L 188.902 -1.63287L 179.964 2.85025L 194.205 31.2451L 203.144 26.762ZM 184.433 5.60869L 195.905 5.60869L 195.905 -4.39131L 184.433 -4.39131L 184.433 5.60869ZM 191.304 2.56664L 199.49 21.801L 208.691 17.8851L 200.506 -1.34926L 191.304 2.56664ZM 58.1811 39.9205L 47.1352 39.9205L 47.1352 49.9205L 58.1811 49.9205L 58.1811 39.9205Z"/>
<path id="path11_fill" d="M 0 27.4311L 10.7112 27.4311L 10.7112 14.2836L 0 0L 0 27.4311Z"/>
<path id="path12_stroke_2x" d="M 10.7112 27.4311L 10.7112 32.4311L 15.7112 32.4311L 15.7112 27.4311L 10.7112 27.4311ZM 0 27.4311L -5 27.4311L -5 32.4311L 0 32.4311L 0 27.4311ZM 0 0L 4.0002 -2.99973L -5 -15.0017L -5 0L 0 0ZM 10.7112 14.2836L 15.7112 14.2836L 15.7112 12.6171L 14.7114 11.2839L 10.7112 14.2836ZM 10.7112 22.4311L 0 22.4311L 0 32.4311L 10.7112 32.4311L 10.7112 22.4311ZM 5 27.4311L 5 0L -5 0L -5 27.4311L 5 27.4311ZM -4.0002 2.99973L 6.71101 17.2833L 14.7114 11.2839L 4.0002 -2.99973L -4.0002 2.99973ZM 5.71121 14.2836L 5.71121 27.4311L 15.7112 27.4311L 15.7112 14.2836L 5.71121 14.2836Z"/>
<path id="path13_fill" d="M 0 0L 5.1933 9.0896L 10.3866 0L 0 0Z"/>
<path id="path14_stroke_2x" d="M 5.1933 9.0896L 0.851928 11.57L 5.1933 19.1685L 9.53467 11.57L 5.1933 9.0896ZM 0 0L 0 -5L -8.61527 -5L -4.34137 2.48042L 0 0ZM 10.3866 0L 14.728 2.48042L 19.0019 -5L 10.3866 -5L 10.3866 0ZM 9.53467 6.60918L 4.34137 -2.48042L -4.34137 2.48042L 0.851928 11.57L 9.53467 6.60918ZM 0 5L 10.3866 5L 10.3866 -5L 0 -5L 0 5ZM 6.04523 -2.48042L 0.851928 6.60918L 9.53467 11.57L 14.728 2.48042L 6.04523 -2.48042Z"/>
</defs>
</svg>
