<svg width="32" height="33" viewBox="0 0 32 33" version="1.1" xmlns="http://www.w3.org/2000/svg" xmlns:xlink="http://www.w3.org/1999/xlink">
<title>Group</title>
<desc>Created using Figma</desc>
<g id="Canvas" transform="translate(-671 160)">
<g id="Group">
<g id="Vector">
<use xlink:href="#path0_fill" transform="matrix(-1 0 0 1 698.733 -159.502)" fill="#7C8BA6"/>
</g>
<g id="Vector">
<use xlink:href="#path1_fill" transform="matrix(-1 0 0 1 691.601 -152.468)" fill="#7C8BA6"/>
</g>
<g id="Vector">
<use xlink:href="#path2_fill" transform="matrix(-1 0 0 1 702.569 -140.172)" fill="#7C8BA6"/>
</g>
<g id="Vector">
<use xlink:href="#path3_fill" transform="matrix(-1 0 0 1 684.637 -140.172)" fill="#7C8BA6"/>
</g>
</g>
</g>
<defs>
<path id="path0_fill" d="M 11.6177 22.9229C 5.2135 22.9229 1.96424e-07 17.781 1.96424e-07 11.4646C 1.96424e-07 5.14194 5.2135 0 11.6177 0C 18.022 0 23.2355 5.14194 23.2355 11.4583C 23.2355 17.781 18.022 22.9229 11.6177 22.9229ZM 11.6177 5.33873C 8.19356 5.33873 5.40659 8.08745 5.40659 11.4646C 5.40659 14.8418 8.19356 17.5842 11.6177 17.5842C 15.0419 17.5842 17.8289 14.8355 17.8289 11.4646C 17.8289 8.08111 15.0419 5.33873 11.6177 5.33873Z"/>
<path id="path1_fill" d="M 4.48619 8.84922C 6.96384 8.84922 8.97237 6.86826 8.97237 4.42461C 8.97237 1.98097 6.96384 0 4.48619 0C 2.00853 0 0 1.98097 0 4.42461C 0 6.86826 2.00853 8.84922 4.48619 8.84922Z"/>
<path id="path2_fill" d="M 5.18132 0L 4.9106e-08 8.67782L 4.85306 9.28089L 7.73658 13.1723L 12.8793 4.56427C 9.58383 4.1199 7.03501 2.57097 5.18132 0Z"/>
<path id="path3_fill" d="M 7.69152 0L 12.8793 8.67782L 8.02622 9.28089L 5.1427 13.1723L -7.85696e-07 4.56427C 3.28901 4.1199 5.83783 2.57097 7.69152 0Z"/>
</defs>
</svg>
