<svg width="51" height="51" viewBox="0 0 51 51" version="1.1" xmlns="http://www.w3.org/2000/svg" xmlns:xlink="http://www.w3.org/1999/xlink">
<title>Group 8</title>
<desc>Created using Figma</desc>
<g id="Canvas" transform="translate(-1323 480)">
<g id="Group 8">
<g id="icons">
<g id="user2">
<use xlink:href="#path0_fill" transform="translate(1323 -480)" fill="#354052"/>
</g>
</g>
</g>
</g>
<defs>
<path id="path0_fill" d="M 25.5 0C 11.475 0 0 11.475 0 25.5C 0 39.525 11.475 51 25.5 51C 39.525 51 51 39.525 51 25.5C 51 11.475 39.525 0 25.5 0ZM 25.5 8.5C 30.175 8.5 34 13.175 34 19.125C 34 25.075 30.175 29.75 25.5 29.75C 20.825 29.75 17 25.075 17 19.125C 17 13.175 20.825 8.5 25.5 8.5ZM 39.525 41.4375C 35.9125 44.625 30.8125 46.75 25.5 46.75C 20.1875 46.75 15.0875 44.625 11.475 41.4375C 10.625 40.5875 10.4125 39.3125 11.2625 38.4625C 13.6 35.7 16.7875 33.7875 20.1875 32.725C 21.8875 33.575 23.5875 34 25.5 34C 27.4125 34 29.1125 33.575 30.8125 32.725C 34.425 33.7875 37.4 35.7 39.7375 38.4625C 40.5875 39.3125 40.5875 40.5875 39.525 41.4375Z"/>
</defs>
</svg>
