<svg width="25" height="21" viewBox="0 0 25 21" version="1.1" xmlns="http://www.w3.org/2000/svg" xmlns:xlink="http://www.w3.org/1999/xlink">
<title>Group</title>
<desc>Created using Figma</desc>
<g id="Canvas" transform="translate(-1318 203)">
<g id="Group">
<g id="Vector">
<use xlink:href="#path0_fill" transform="translate(1318 -198.7)" fill="#354052"/>
</g>
<g id="Vector">
<use xlink:href="#path1_fill" transform="translate(1321.01 -203)" fill="#2D9CDB"/>
</g>
</g>
</g>
<defs>
<path id="path0_fill" d="M 6.25686 0.000123213C 6.04596 0.000123213 5.83096 0.0127232 5.63186 0.0626232C 5.51526 0.0922232 5.40026 0.142123 5.28806 0.187623C 5.24466 0.205323 5.20566 0.230023 5.16306 0.250123C 5.14536 0.258323 5.14946 0.272723 5.13186 0.281323C 5.02606 0.333723 4.91906 0.371723 4.81936 0.437623C 4.80536 0.446723 4.77076 0.459523 4.75686 0.468923C 4.72756 0.488923 4.72306 0.510123 4.69436 0.531323C 4.61276 0.589923 4.52096 0.652323 4.44436 0.718923C 4.37446 0.781723 4.32226 0.867923 4.25686 0.937623C 4.03566 1.16452 3.81926 1.40622 3.66306 1.68762C 3.39486 2.15792 3.21626 2.67312 3.13186 3.21892C 3.09116 3.21032 3.04256 3.20712 3.00686 3.21892C 2.73356 3.30772 2.67266 3.82812 2.85066 4.37512C 2.95506 4.69612 3.11096 4.95112 3.28806 5.09412C 3.52606 6.01912 4.03776 6.79812 4.69436 7.28112L 4.69436 7.81212L 4.16306 8.31212L 3.13186 8.84412C 2.29026 9.26112 1.44126 9.67712 0.600664 10.0941C 0.134764 10.3751 -0.0375455 10.9201 0.00686451 11.4381C 0.0285465 11.7631 -0.0980655 12.1891 0.225615 12.4061C 0.533114 12.5641 0.923005 12.4741 1.25681 12.5001L 3.06931 12.5001C 3.25101 12.2621 3.47811 12.0421 3.75681 11.8751L 3.78801 11.8441L 3.81931 11.8441C 5.23031 11.1511 6.62341 10.4441 8.03801 9.75012L 9.66301 8.96912C 9.57091 8.92312 9.47381 8.88912 9.38181 8.84412L 8.35061 8.31212L 7.81931 7.81212L 7.81931 7.28112C 8.23481 6.97612 8.58601 6.53412 8.85061 6.03112C 8.49411 5.45512 8.21971 4.79312 8.03801 4.09412C 7.73611 3.78412 7.45311 3.43992 7.28801 2.93762C 7.11811 2.42052 7.06961 1.88622 7.13181 1.43762C 7.18691 1.04022 7.37781 0.664023 7.75681 0.468923C 7.64521 0.396423 7.50001 0.339923 7.38181 0.281323C 7.32221 0.252123 7.28681 0.212423 7.22561 0.187623C 7.18211 0.169923 7.14481 0.171723 7.10061 0.156323C 6.96771 0.110323 6.83251 0.0549231 6.69431 0.0313231C 6.68371 0.0297231 6.67371 0.0331231 6.66301 0.0313231C 6.53331 0.0109231 6.38971 -0.00137679 6.25681 0.000123213L 6.25686 0.000123213Z"/>
<path id="path1_fill" d="M 10.499 -2.44141e-05C 10.145 -2.44141e-05 9.79597 -4.88311e-05 9.46097 0.0999512C 9.26597 0.0999512 9.07596 0.200024 8.88797 0.300024C 8.81497 0.300024 8.74096 0.3 8.66897 0.4L 8.58697 0.4C 8.40997 0.5 8.23597 0.600049 8.06797 0.700049L 7.98597 0.700049C 7.93697 0.800049 7.89797 0.8 7.84997 0.9C 7.71297 1 7.56896 1.00005 7.43996 1.20005C 7.32296 1.30005 7.22197 1.39998 7.11197 1.49998C 6.74087 1.89998 6.41877 2.30002 6.15647 2.80002C 5.70597 3.50002 5.36967 4.40002 5.22777 5.30002L 5.03657 5.30002C 4.57757 5.50002 4.46457 6.30005 4.76347 7.20005C 4.93887 7.80005 5.23077 8.2 5.52827 8.4C 5.92787 10 6.77436 11.3 7.87697 12.1L 7.87697 13L 7.00297 13.8L 5.25507 14.7C 3.84157 15.4 2.43347 16.1 1.02157 16.8C 0.239065 17.2 -0.0636347 18.2 0.0109653 19C 0.0473653 19.6 -0.150335 20.3 0.393265 20.6C 0.909765 20.9 1.52597 20.7 2.08677 20.7L 7.00297 20.7L 13.995 20.7C 16.064 20.7 18.127 20.8 20.196 20.7C 20.867 20.7 21.053 20 20.988 19.4C 21 18.6 21.048 17.7 20.414 17.1C 19.897 16.6 19.161 16.4 18.53 16C 17.603 15.6 16.67 15.1 15.744 14.7L 13.995 13.8L 13.121 13L 13.121 12.1C 14.224 11.3 15.071 10 15.47 8.4C 15.768 8.2 16.06 7.80005 16.235 7.20005C 16.534 6.30005 16.421 5.50002 15.962 5.30002L 15.771 5.30002C 15.629 4.40002 15.293 3.50002 14.842 2.80002C 14.58 2.30002 14.258 1.89998 13.886 1.49998C 13.776 1.39998 13.676 1.30005 13.558 1.20005L 13.531 1.20005C 13.189 0.900049 12.808 0.6 12.411 0.4C 12.311 0.4 12.214 0.300024 12.111 0.300024C 12.038 0.300024 11.967 0.200049 11.892 0.200049C 11.669 0.100049 11.442 0.0999756 11.209 -2.44141e-05L 11.155 -2.44141e-05L 10.499 -2.44141e-05Z"/>
</defs>
</svg>
