<svg width="261" height="420" viewBox="0 0 261 420" version="1.1" xmlns="http://www.w3.org/2000/svg" xmlns:xlink="http://www.w3.org/1999/xlink">
<title>if_Star_Trek_alt_367641</title>
<desc>Created using Figma</desc>
<g id="Canvas" transform="translate(-35585 -429)">
<g id="if_Star_Trek_alt_367641">
<g id="if_Star_Trek_367642">
<g id="Vector">
<use xlink:href="#path0_fill" transform="translate(35585 429)" fill="#D6E1EC"/>
</g>
</g>
</g>
</g>
<defs>
<path id="path0_fill" d="M 174.53 171.549L 148.52 184.558L 155.747 219.246L 135.512 190.334L 115.278 219.246L 122.504 184.558L 96.4871 171.549L 125.399 164.322L 135.512 66.043L 145.626 164.322L 174.53 171.549ZM 259.613 392.26C 259.613 392.26 242.499 285.281 188.998 267.46C 186.344 266.564 183.478 266.144 180.44 266.144C 122.383 266.144 0.0790605 420 0.0790605 420C 0.0790605 420 -7.83894 160.473 134.805 0C 277.442 160.473 259.613 392.26 259.613 392.26ZM 225.039 259.098C 217.542 215.967 205.872 175.256 190.366 138.08C 175.387 102.174 156.769 69.495 134.835 40.59C 60.6931 139.012 36.8341 267.783 29.2391 346.941C 35.8261 339.82 42.8351 332.428 50.1281 325.014C 106.908 267.28 148.325 240.39 180.44 240.39C 186.291 240.39 191.908 241.27 197.149 243.022C 207.112 246.345 216.414 251.706 225.039 259.098Z"/>
</defs>
</svg>
