<svg width="297" height="420" viewBox="0 0 297 420" version="1.1" xmlns="http://www.w3.org/2000/svg" xmlns:xlink="http://www.w3.org/1999/xlink">
<title>if_Star_Trek_alt_367641</title>
<desc>Created using Figma</desc>
<g id="Canvas" transform="translate(-36575 -429)">
<g id="if_Star_Trek_alt_367641">
<g id="Vector">
<use xlink:href="#path0_fill" transform="translate(36575 429)" fill="#D6E1EC"/>
</g>
</g>
</g>
<defs>
<path id="path0_fill" d="M 296.914 209.996C 296.914 148.247 259.001 95.189 205.244 72.856C 190.829 47.696 173.633 23.1 153.097 0C 134.14 21.325 117.861 44.418 103.852 68.397C 43.719 87.383 -7.32422e-07 143.674 -7.32422e-07 209.996C -7.32422e-07 242.195 10.332 271.995 27.807 296.35C 16.799 368.078 18.37 420 18.37 420C 18.37 420 48.252 382.418 85.481 344.393C 104.611 353.401 125.943 358.455 148.457 358.455C 189.325 358.455 226.396 341.851 253.264 315.029C 271.25 350.672 277.906 392.261 277.906 392.261C 277.906 392.261 281.138 350.137 273.807 289.388C 288.417 266.407 296.914 239.188 296.914 209.996ZM 143.689 164.323L 152.623 77.466L 153.804 66.044L 154.992 77.571L 163.918 164.323L 192.823 171.542L 166.813 184.551L 174.039 219.239L 153.805 190.334L 133.57 219.239L 140.797 184.551L 114.779 171.542L 143.689 164.323ZM 31.748 272.904C 21.612 254.174 15.844 232.751 15.844 209.996C 15.844 157.104 46.982 111.363 91.881 90.091C 60.133 151.33 42.041 216.659 31.748 272.904ZM 148.457 342.61C 130.403 342.61 113.183 338.97 97.475 332.406C 136.914 293.816 181.58 258.881 207.297 267.453C 222.802 272.619 235.239 285.281 245.105 300.651C 220.899 326.443 186.536 342.61 148.457 342.61ZM 218.358 97.385C 255.97 120.808 281.07 162.519 281.07 209.996C 281.07 228.766 277.13 246.609 270.069 262.806C 262.046 213.087 246.819 154.525 218.358 97.385Z"/>
</defs>
</svg>
