<svg width="380" height="381" viewBox="0 0 380 381" version="1.1" xmlns="http://www.w3.org/2000/svg" xmlns:xlink="http://www.w3.org/1999/xlink">
<title>if_death_star_216969</title>
<desc>Created using Figma</desc>
<g id="Canvas" transform="translate(-37541 -448)">
<g id="if_death_star_216969">
<g id="Vector">
<use xlink:href="#path0_fill" transform="translate(37541 448)" fill="#D6E1EC"/>
</g>
<g id="Vector">
<use xlink:href="#path1_fill" transform="translate(37541 645.303)" fill="#D6E1EC"/>
</g>
</g>
</g>
<defs>
<path id="path0_fill" d="M 379.999 183.697C 379.583 172.069 378.255 160.682 375.856 149.679L 298.769 149.679L 298.769 136.072L 325.961 136.072L 325.961 122.465L 271.578 122.465L 271.578 108.858L 312.366 108.858L 312.366 95.2509L 298.769 95.2509L 298.769 81.6442L 271.578 81.6442L 271.578 68.0352L 285.174 68.0352L 285.174 54.4285L 257.981 54.4285L 257.981 40.8217L 271.578 40.8217L 271.578 27.2142L 271.578 18.5772C 246.828 6.79466 219.238 5.77981e-09 190.002 5.77981e-09C 87.1696 5.77981e-09 3.60759 81.6609 6.93002e-08 183.697L 379.999 183.697ZM 122.023 40.8217C 152.052 40.8217 176.406 65.1966 176.406 95.2502C 176.406 125.313 152.052 149.679 122.023 149.679C 91.9807 149.679 67.639 125.312 67.639 95.2502C 67.639 65.1966 91.9807 40.8217 122.023 40.8217Z"/>
<path id="path1_fill" d="M 230.79 170.09L 217.194 170.09L 217.194 156.483L 257.981 156.483L 257.981 142.876L 271.578 142.876L 271.578 129.268L 312.366 129.268L 312.366 115.661L 325.961 115.661L 325.961 102.054L 298.769 102.054L 298.769 88.4472L 257.981 88.4472L 257.981 74.8397L 285.174 74.8397L 285.174 61.2322L 339.557 61.2322L 339.557 47.6255L 312.366 47.6255L 312.366 34.018L 375.857 34.018C 378.256 23.0158 379.584 11.6317 380 -2.58935e-06L 6.93002e-08 -2.58935e-06C 3.60684 102.045 87.1696 183.697 190.002 183.697C 204.022 183.697 217.645 182.075 230.79 179.205L 230.79 170.09Z"/>
</defs>
</svg>
